G04 EAGLE Gerber RS-274X export*
G75*
%MOMM*%
%FSLAX34Y34*%
%LPD*%
%INBottom Copper*%
%IPPOS*%
%AMOC8*
5,1,8,0,0,1.08239X$1,22.5*%
G01*
%ADD10R,1.000000X3.500000*%
%ADD11R,1.500000X3.400000*%
%ADD12C,1.008000*%
%ADD13C,1.524000*%
%ADD14C,0.756400*%
%ADD15C,0.508000*%
%ADD16C,0.203200*%

G36*
X30113Y9928D02*
X30113Y9928D01*
X30121Y9928D01*
X30129Y9928D01*
X30322Y9949D01*
X30513Y9968D01*
X30521Y9970D01*
X30529Y9971D01*
X30713Y10029D01*
X30898Y10086D01*
X30905Y10090D01*
X30913Y10093D01*
X31081Y10185D01*
X31252Y10278D01*
X31258Y10283D01*
X31266Y10287D01*
X31411Y10411D01*
X31561Y10536D01*
X31566Y10543D01*
X31573Y10548D01*
X31691Y10698D01*
X31813Y10850D01*
X31817Y10857D01*
X31822Y10864D01*
X31910Y11036D01*
X31998Y11207D01*
X32001Y11215D01*
X32004Y11223D01*
X32057Y11411D01*
X32110Y11594D01*
X32110Y11602D01*
X32112Y11611D01*
X32127Y11806D01*
X32142Y11996D01*
X32141Y12004D01*
X32142Y12012D01*
X32118Y12205D01*
X32095Y12396D01*
X32092Y12403D01*
X32091Y12412D01*
X32030Y12595D01*
X31970Y12778D01*
X31966Y12785D01*
X31963Y12793D01*
X31866Y12962D01*
X31772Y13129D01*
X31766Y13135D01*
X31762Y13142D01*
X31548Y13395D01*
X24688Y20255D01*
X24688Y40191D01*
X24685Y40217D01*
X24687Y40244D01*
X24665Y40418D01*
X24648Y40591D01*
X24640Y40617D01*
X24637Y40643D01*
X24581Y40809D01*
X24530Y40976D01*
X24517Y41000D01*
X24509Y41025D01*
X24421Y41177D01*
X24338Y41330D01*
X24321Y41351D01*
X24308Y41374D01*
X24093Y41627D01*
X19991Y45729D01*
X18419Y47301D01*
X17723Y48981D01*
X17723Y63484D01*
X17721Y63510D01*
X17723Y63537D01*
X17701Y63711D01*
X17683Y63884D01*
X17676Y63910D01*
X17672Y63937D01*
X17617Y64102D01*
X17565Y64269D01*
X17552Y64293D01*
X17544Y64318D01*
X17457Y64470D01*
X17373Y64623D01*
X17356Y64644D01*
X17343Y64667D01*
X17128Y64920D01*
X15747Y66301D01*
X15747Y165331D01*
X15746Y165341D01*
X15747Y165353D01*
X15734Y166620D01*
X15805Y166711D01*
X15915Y166847D01*
X15928Y166871D01*
X15944Y166892D01*
X16022Y167049D01*
X16104Y167203D01*
X16112Y167228D01*
X16124Y167252D01*
X16169Y167422D01*
X16219Y167588D01*
X16221Y167615D01*
X16228Y167641D01*
X16255Y167972D01*
X16255Y669805D01*
X16252Y669836D01*
X16254Y669867D01*
X16232Y670037D01*
X16215Y670206D01*
X16206Y670235D01*
X16202Y670266D01*
X16101Y670582D01*
X15747Y671435D01*
X15747Y673749D01*
X16632Y675886D01*
X18268Y677522D01*
X20278Y678354D01*
X20405Y678407D01*
X22719Y678407D01*
X24856Y677522D01*
X26492Y675886D01*
X27377Y673749D01*
X27377Y671435D01*
X26492Y669298D01*
X25996Y668802D01*
X25979Y668782D01*
X25958Y668764D01*
X25851Y668626D01*
X25741Y668491D01*
X25728Y668467D01*
X25712Y668446D01*
X25634Y668289D01*
X25552Y668135D01*
X25544Y668110D01*
X25532Y668086D01*
X25487Y667916D01*
X25437Y667749D01*
X25435Y667723D01*
X25428Y667697D01*
X25401Y667366D01*
X25401Y170533D01*
X25404Y170504D01*
X25402Y170475D01*
X25424Y170304D01*
X25441Y170132D01*
X25449Y170105D01*
X25453Y170076D01*
X25508Y169912D01*
X25559Y169747D01*
X25572Y169722D01*
X25582Y169694D01*
X25668Y169545D01*
X25751Y169393D01*
X25769Y169371D01*
X25783Y169346D01*
X25898Y169216D01*
X26008Y169084D01*
X26031Y169066D01*
X26050Y169044D01*
X26188Y168940D01*
X26322Y168831D01*
X26348Y168818D01*
X26371Y168801D01*
X26527Y168725D01*
X26679Y168646D01*
X26707Y168638D01*
X26733Y168625D01*
X26901Y168582D01*
X27066Y168535D01*
X27095Y168532D01*
X27123Y168525D01*
X27454Y168501D01*
X41062Y168648D01*
X41078Y168650D01*
X41094Y168648D01*
X41266Y168670D01*
X43138Y168670D01*
X43148Y168671D01*
X43160Y168670D01*
X44416Y168684D01*
X45302Y167798D01*
X45309Y167792D01*
X45317Y167782D01*
X46630Y166497D01*
X46788Y166312D01*
X89663Y123437D01*
X89663Y114046D01*
X89665Y114028D01*
X89663Y114010D01*
X89684Y113828D01*
X89703Y113645D01*
X89708Y113628D01*
X89710Y113611D01*
X89767Y113436D01*
X89821Y113260D01*
X89829Y113245D01*
X89835Y113228D01*
X89925Y113068D01*
X90013Y112906D01*
X90024Y112893D01*
X90033Y112877D01*
X90153Y112738D01*
X90270Y112597D01*
X90284Y112586D01*
X90296Y112572D01*
X90441Y112460D01*
X90584Y112345D01*
X90600Y112337D01*
X90614Y112326D01*
X90779Y112244D01*
X90941Y112159D01*
X90958Y112154D01*
X90974Y112146D01*
X91153Y112099D01*
X91328Y112048D01*
X91346Y112046D01*
X91363Y112042D01*
X91694Y112015D01*
X107689Y112015D01*
X109308Y110396D01*
X109315Y110390D01*
X109320Y110383D01*
X109470Y110263D01*
X109619Y110141D01*
X109627Y110137D01*
X109634Y110131D01*
X109804Y110043D01*
X109975Y109952D01*
X109984Y109950D01*
X109991Y109945D01*
X110176Y109892D01*
X110361Y109837D01*
X110370Y109837D01*
X110378Y109834D01*
X110569Y109818D01*
X110762Y109801D01*
X110771Y109802D01*
X110780Y109801D01*
X110969Y109823D01*
X111162Y109844D01*
X111171Y109847D01*
X111179Y109848D01*
X111361Y109907D01*
X111546Y109966D01*
X111554Y109970D01*
X111562Y109973D01*
X111731Y110068D01*
X111898Y110161D01*
X111905Y110166D01*
X111913Y110171D01*
X112059Y110297D01*
X112205Y110421D01*
X112211Y110428D01*
X112218Y110434D01*
X112335Y110585D01*
X112455Y110737D01*
X112459Y110745D01*
X112464Y110752D01*
X112550Y110924D01*
X112637Y111096D01*
X112640Y111105D01*
X112644Y111113D01*
X112694Y111299D01*
X112745Y111484D01*
X112746Y111493D01*
X112748Y111501D01*
X112775Y111832D01*
X112775Y173934D01*
X112774Y173947D01*
X112775Y173960D01*
X112754Y174147D01*
X112735Y174334D01*
X112731Y174347D01*
X112730Y174360D01*
X112672Y174540D01*
X112617Y174719D01*
X112611Y174731D01*
X112607Y174744D01*
X112515Y174909D01*
X112425Y175073D01*
X112417Y175084D01*
X112410Y175095D01*
X112288Y175238D01*
X112168Y175383D01*
X112157Y175391D01*
X112149Y175401D01*
X112001Y175517D01*
X111854Y175635D01*
X111842Y175641D01*
X111832Y175649D01*
X111663Y175734D01*
X111497Y175820D01*
X111484Y175824D01*
X111472Y175830D01*
X111291Y175880D01*
X111110Y175932D01*
X111096Y175933D01*
X111083Y175936D01*
X110895Y175949D01*
X110708Y175965D01*
X110695Y175963D01*
X110682Y175964D01*
X110494Y175940D01*
X110309Y175918D01*
X110296Y175914D01*
X110283Y175912D01*
X109967Y175810D01*
X108091Y175033D01*
X105777Y175033D01*
X103640Y175918D01*
X102004Y177554D01*
X101119Y179691D01*
X101119Y181510D01*
X101117Y181536D01*
X101119Y181563D01*
X101097Y181737D01*
X101079Y181910D01*
X101072Y181936D01*
X101068Y181963D01*
X101013Y182128D01*
X100961Y182295D01*
X100948Y182319D01*
X100940Y182344D01*
X100853Y182496D01*
X100769Y182649D01*
X100752Y182670D01*
X100739Y182693D01*
X100524Y182946D01*
X61721Y221749D01*
X61721Y486236D01*
X61720Y486245D01*
X61721Y486254D01*
X61700Y486446D01*
X61681Y486637D01*
X61679Y486645D01*
X61678Y486654D01*
X61620Y486836D01*
X61563Y487022D01*
X61559Y487030D01*
X61556Y487038D01*
X61463Y487206D01*
X61371Y487376D01*
X61366Y487383D01*
X61361Y487390D01*
X61236Y487538D01*
X61114Y487685D01*
X61107Y487691D01*
X61101Y487697D01*
X60950Y487816D01*
X60800Y487937D01*
X60792Y487941D01*
X60785Y487947D01*
X60614Y488034D01*
X60443Y488123D01*
X60434Y488125D01*
X60426Y488129D01*
X60240Y488181D01*
X60056Y488234D01*
X60047Y488235D01*
X60038Y488237D01*
X59846Y488251D01*
X59654Y488267D01*
X59646Y488266D01*
X59637Y488267D01*
X59444Y488242D01*
X59255Y488220D01*
X59246Y488217D01*
X59237Y488216D01*
X59054Y488155D01*
X58872Y488095D01*
X58864Y488091D01*
X58856Y488088D01*
X58690Y487993D01*
X58521Y487897D01*
X58514Y487892D01*
X58507Y487887D01*
X58254Y487672D01*
X56984Y486402D01*
X56967Y486382D01*
X56946Y486364D01*
X56840Y486226D01*
X56729Y486091D01*
X56716Y486067D01*
X56700Y486046D01*
X56622Y485890D01*
X56540Y485735D01*
X56532Y485710D01*
X56520Y485686D01*
X56475Y485516D01*
X56425Y485349D01*
X56423Y485323D01*
X56416Y485297D01*
X56389Y484966D01*
X56389Y459521D01*
X56166Y459298D01*
X56149Y459277D01*
X56128Y459260D01*
X56021Y459122D01*
X55911Y458987D01*
X55898Y458963D01*
X55882Y458942D01*
X55804Y458785D01*
X55722Y458631D01*
X55714Y458605D01*
X55702Y458581D01*
X55657Y458412D01*
X55607Y458245D01*
X55605Y458218D01*
X55598Y458193D01*
X55571Y457862D01*
X55571Y456805D01*
X54686Y454668D01*
X53050Y453032D01*
X50913Y452147D01*
X48599Y452147D01*
X46462Y453032D01*
X44826Y454668D01*
X43941Y456805D01*
X43941Y459119D01*
X44826Y461256D01*
X46462Y462892D01*
X48780Y463851D01*
X48870Y463881D01*
X49046Y463935D01*
X49061Y463943D01*
X49078Y463949D01*
X49238Y464039D01*
X49400Y464127D01*
X49413Y464138D01*
X49429Y464147D01*
X49568Y464267D01*
X49709Y464384D01*
X49720Y464398D01*
X49734Y464410D01*
X49846Y464555D01*
X49961Y464698D01*
X49969Y464714D01*
X49980Y464728D01*
X50062Y464893D01*
X50147Y465055D01*
X50152Y465072D01*
X50160Y465088D01*
X50207Y465267D01*
X50258Y465442D01*
X50260Y465460D01*
X50264Y465477D01*
X50291Y465808D01*
X50291Y484966D01*
X50289Y484993D01*
X50291Y485019D01*
X50269Y485193D01*
X50251Y485367D01*
X50244Y485392D01*
X50240Y485419D01*
X50185Y485584D01*
X50133Y485752D01*
X50120Y485775D01*
X50112Y485801D01*
X50025Y485952D01*
X49941Y486106D01*
X49924Y486126D01*
X49911Y486149D01*
X49696Y486402D01*
X48410Y487688D01*
X47525Y489825D01*
X47525Y492139D01*
X48410Y494276D01*
X50046Y495912D01*
X52183Y496797D01*
X54497Y496797D01*
X56634Y495912D01*
X58254Y494292D01*
X58261Y494286D01*
X58266Y494279D01*
X58416Y494159D01*
X58565Y494036D01*
X58573Y494032D01*
X58580Y494027D01*
X58750Y493938D01*
X58921Y493848D01*
X58930Y493845D01*
X58937Y493841D01*
X59122Y493788D01*
X59307Y493733D01*
X59316Y493732D01*
X59324Y493730D01*
X59515Y493714D01*
X59708Y493697D01*
X59717Y493698D01*
X59726Y493697D01*
X59915Y493719D01*
X60108Y493740D01*
X60117Y493743D01*
X60125Y493744D01*
X60307Y493803D01*
X60492Y493862D01*
X60500Y493866D01*
X60508Y493869D01*
X60675Y493963D01*
X60844Y494056D01*
X60851Y494062D01*
X60859Y494067D01*
X61004Y494192D01*
X61151Y494317D01*
X61157Y494324D01*
X61164Y494330D01*
X61280Y494480D01*
X61401Y494633D01*
X61405Y494641D01*
X61410Y494648D01*
X61496Y494819D01*
X61583Y494992D01*
X61586Y495000D01*
X61590Y495008D01*
X61640Y495194D01*
X61691Y495380D01*
X61692Y495389D01*
X61694Y495397D01*
X61721Y495728D01*
X61721Y1242850D01*
X61719Y1242868D01*
X61721Y1242886D01*
X61700Y1243068D01*
X61681Y1243251D01*
X61676Y1243268D01*
X61674Y1243285D01*
X61617Y1243460D01*
X61563Y1243636D01*
X61555Y1243651D01*
X61549Y1243668D01*
X61459Y1243828D01*
X61371Y1243990D01*
X61360Y1244003D01*
X61351Y1244019D01*
X61231Y1244158D01*
X61114Y1244299D01*
X61100Y1244310D01*
X61088Y1244324D01*
X60943Y1244436D01*
X60800Y1244551D01*
X60784Y1244559D01*
X60770Y1244570D01*
X60605Y1244652D01*
X60443Y1244737D01*
X60426Y1244742D01*
X60410Y1244750D01*
X60312Y1244776D01*
X57920Y1245766D01*
X56284Y1247402D01*
X55399Y1249539D01*
X55399Y1251853D01*
X56284Y1253990D01*
X57920Y1255626D01*
X60057Y1256511D01*
X62371Y1256511D01*
X64508Y1255626D01*
X66144Y1253990D01*
X67029Y1251853D01*
X67029Y1250034D01*
X67031Y1250008D01*
X67029Y1249981D01*
X67051Y1249807D01*
X67069Y1249634D01*
X67076Y1249608D01*
X67080Y1249581D01*
X67135Y1249416D01*
X67187Y1249249D01*
X67200Y1249225D01*
X67208Y1249200D01*
X67295Y1249048D01*
X67379Y1248895D01*
X67396Y1248874D01*
X67409Y1248851D01*
X67624Y1248598D01*
X67819Y1248403D01*
X67819Y1187227D01*
X67819Y1187222D01*
X67819Y1187218D01*
X67839Y1187023D01*
X67859Y1186826D01*
X67860Y1186822D01*
X67860Y1186817D01*
X67920Y1186628D01*
X67977Y1186441D01*
X67979Y1186437D01*
X67980Y1186433D01*
X68076Y1186258D01*
X68169Y1186087D01*
X68171Y1186084D01*
X68174Y1186080D01*
X68302Y1185927D01*
X68426Y1185778D01*
X68430Y1185775D01*
X68433Y1185772D01*
X68588Y1185648D01*
X68740Y1185525D01*
X68744Y1185523D01*
X68748Y1185521D01*
X68925Y1185430D01*
X69097Y1185340D01*
X69102Y1185339D01*
X69106Y1185337D01*
X69298Y1185282D01*
X69484Y1185229D01*
X69489Y1185228D01*
X69493Y1185227D01*
X69689Y1185212D01*
X69886Y1185196D01*
X69890Y1185196D01*
X69894Y1185196D01*
X70088Y1185219D01*
X70285Y1185243D01*
X70290Y1185244D01*
X70294Y1185244D01*
X70479Y1185306D01*
X70668Y1185367D01*
X70672Y1185370D01*
X70676Y1185371D01*
X70845Y1185467D01*
X71019Y1185565D01*
X71022Y1185568D01*
X71026Y1185570D01*
X71175Y1185700D01*
X71323Y1185828D01*
X71326Y1185832D01*
X71330Y1185835D01*
X71451Y1185992D01*
X71570Y1186147D01*
X71572Y1186151D01*
X71575Y1186154D01*
X71727Y1186449D01*
X72033Y1187188D01*
X73668Y1188824D01*
X75805Y1189709D01*
X78119Y1189709D01*
X80256Y1188824D01*
X81892Y1187188D01*
X82777Y1185051D01*
X82777Y1182737D01*
X81892Y1180600D01*
X80256Y1178964D01*
X78119Y1178079D01*
X77724Y1178079D01*
X77706Y1178077D01*
X77688Y1178079D01*
X77506Y1178058D01*
X77323Y1178039D01*
X77306Y1178034D01*
X77289Y1178032D01*
X77114Y1177975D01*
X76938Y1177921D01*
X76923Y1177913D01*
X76906Y1177907D01*
X76746Y1177817D01*
X76584Y1177729D01*
X76571Y1177718D01*
X76555Y1177709D01*
X76416Y1177589D01*
X76275Y1177472D01*
X76264Y1177458D01*
X76250Y1177446D01*
X76138Y1177301D01*
X76023Y1177158D01*
X76015Y1177142D01*
X76004Y1177128D01*
X75921Y1176962D01*
X75837Y1176801D01*
X75832Y1176784D01*
X75824Y1176768D01*
X75777Y1176589D01*
X75726Y1176414D01*
X75724Y1176396D01*
X75720Y1176379D01*
X75693Y1176048D01*
X75693Y562022D01*
X75694Y562013D01*
X75693Y562004D01*
X75714Y561812D01*
X75733Y561621D01*
X75735Y561613D01*
X75736Y561604D01*
X75794Y561422D01*
X75851Y561236D01*
X75855Y561228D01*
X75858Y561220D01*
X75951Y561052D01*
X76043Y560882D01*
X76048Y560875D01*
X76053Y560868D01*
X76178Y560720D01*
X76300Y560573D01*
X76307Y560567D01*
X76313Y560561D01*
X76465Y560441D01*
X76614Y560321D01*
X76622Y560317D01*
X76629Y560311D01*
X76801Y560224D01*
X76971Y560135D01*
X76980Y560133D01*
X76988Y560129D01*
X77174Y560077D01*
X77358Y560024D01*
X77367Y560023D01*
X77376Y560021D01*
X77568Y560007D01*
X77760Y559991D01*
X77768Y559992D01*
X77777Y559991D01*
X77970Y560016D01*
X78159Y560038D01*
X78168Y560041D01*
X78177Y560042D01*
X78360Y560103D01*
X78542Y560163D01*
X78550Y560167D01*
X78558Y560170D01*
X78724Y560265D01*
X78893Y560361D01*
X78900Y560366D01*
X78907Y560371D01*
X79160Y560586D01*
X80780Y562206D01*
X81667Y562573D01*
X82917Y563091D01*
X85231Y563091D01*
X87368Y562206D01*
X89004Y560570D01*
X89889Y558433D01*
X89889Y556119D01*
X88939Y553827D01*
X88880Y553707D01*
X88798Y553553D01*
X88790Y553528D01*
X88778Y553504D01*
X88733Y553334D01*
X88683Y553167D01*
X88681Y553141D01*
X88674Y553115D01*
X88647Y552784D01*
X88647Y531542D01*
X88649Y531515D01*
X88647Y531489D01*
X88669Y531315D01*
X88687Y531141D01*
X88694Y531116D01*
X88698Y531089D01*
X88753Y530924D01*
X88805Y530756D01*
X88818Y530733D01*
X88826Y530707D01*
X88913Y530556D01*
X88997Y530402D01*
X89014Y530382D01*
X89027Y530359D01*
X89242Y530106D01*
X89766Y529582D01*
X90651Y527445D01*
X90651Y525131D01*
X89766Y522994D01*
X88130Y521358D01*
X85993Y520473D01*
X83679Y520473D01*
X81542Y521358D01*
X79907Y522994D01*
X79601Y523733D01*
X79599Y523737D01*
X79597Y523741D01*
X79505Y523911D01*
X79410Y524088D01*
X79408Y524091D01*
X79405Y524095D01*
X79282Y524243D01*
X79154Y524398D01*
X79151Y524401D01*
X79148Y524404D01*
X78994Y524528D01*
X78841Y524652D01*
X78837Y524654D01*
X78834Y524657D01*
X78661Y524746D01*
X78485Y524839D01*
X78480Y524840D01*
X78477Y524842D01*
X78291Y524896D01*
X78099Y524952D01*
X78094Y524952D01*
X78090Y524954D01*
X77893Y524970D01*
X77697Y524987D01*
X77693Y524986D01*
X77688Y524986D01*
X77493Y524963D01*
X77297Y524941D01*
X77293Y524940D01*
X77289Y524939D01*
X77101Y524878D01*
X76914Y524818D01*
X76910Y524816D01*
X76906Y524815D01*
X76731Y524716D01*
X76563Y524622D01*
X76559Y524619D01*
X76555Y524617D01*
X76405Y524487D01*
X76257Y524360D01*
X76254Y524356D01*
X76250Y524354D01*
X76131Y524200D01*
X76008Y524043D01*
X76006Y524039D01*
X76004Y524035D01*
X75917Y523861D01*
X75828Y523683D01*
X75826Y523679D01*
X75824Y523675D01*
X75773Y523482D01*
X75721Y523295D01*
X75721Y523291D01*
X75720Y523286D01*
X75693Y522955D01*
X75693Y243912D01*
X75695Y243886D01*
X75693Y243859D01*
X75715Y243685D01*
X75733Y243512D01*
X75740Y243486D01*
X75744Y243459D01*
X75799Y243294D01*
X75851Y243127D01*
X75864Y243103D01*
X75872Y243078D01*
X75959Y242926D01*
X76043Y242773D01*
X76060Y242752D01*
X76073Y242729D01*
X76288Y242476D01*
X97785Y220979D01*
X97795Y220970D01*
X97804Y220960D01*
X97950Y220843D01*
X98096Y220724D01*
X98108Y220718D01*
X98118Y220709D01*
X98287Y220623D01*
X98452Y220535D01*
X98465Y220531D01*
X98477Y220525D01*
X98659Y220474D01*
X98838Y220420D01*
X98851Y220419D01*
X98864Y220416D01*
X99051Y220401D01*
X99239Y220384D01*
X99252Y220385D01*
X99265Y220384D01*
X99450Y220407D01*
X99639Y220427D01*
X99652Y220431D01*
X99665Y220433D01*
X99843Y220492D01*
X100023Y220549D01*
X100035Y220555D01*
X100047Y220560D01*
X100212Y220653D01*
X100375Y220744D01*
X100385Y220752D01*
X100397Y220759D01*
X100540Y220883D01*
X100682Y221004D01*
X100690Y221015D01*
X100701Y221024D01*
X100815Y221173D01*
X100932Y221320D01*
X100938Y221332D01*
X100946Y221343D01*
X101098Y221638D01*
X101243Y221988D01*
X102878Y223624D01*
X105015Y224509D01*
X106834Y224509D01*
X106860Y224511D01*
X106887Y224509D01*
X107061Y224531D01*
X107234Y224549D01*
X107260Y224556D01*
X107287Y224560D01*
X107452Y224615D01*
X107619Y224667D01*
X107643Y224680D01*
X107668Y224688D01*
X107820Y224775D01*
X107973Y224859D01*
X107994Y224876D01*
X108017Y224889D01*
X108270Y225104D01*
X116371Y233205D01*
X116388Y233226D01*
X116409Y233243D01*
X116516Y233381D01*
X116626Y233516D01*
X116639Y233540D01*
X116655Y233561D01*
X116733Y233718D01*
X116815Y233872D01*
X116823Y233898D01*
X116835Y233922D01*
X116880Y234091D01*
X116930Y234258D01*
X116932Y234285D01*
X116939Y234310D01*
X116966Y234641D01*
X116966Y362994D01*
X116964Y363012D01*
X116966Y363030D01*
X116945Y363212D01*
X116926Y363395D01*
X116921Y363412D01*
X116919Y363429D01*
X116862Y363604D01*
X116808Y363780D01*
X116800Y363795D01*
X116794Y363812D01*
X116704Y363972D01*
X116616Y364134D01*
X116605Y364147D01*
X116596Y364163D01*
X116476Y364302D01*
X116359Y364443D01*
X116345Y364454D01*
X116333Y364468D01*
X116188Y364580D01*
X116045Y364695D01*
X116029Y364703D01*
X116015Y364714D01*
X115850Y364796D01*
X115688Y364881D01*
X115671Y364886D01*
X115655Y364894D01*
X115476Y364941D01*
X115301Y364992D01*
X115283Y364994D01*
X115266Y364998D01*
X114935Y365025D01*
X114667Y365025D01*
X112530Y365910D01*
X110894Y367546D01*
X110009Y369683D01*
X110009Y371997D01*
X110894Y374134D01*
X112530Y375770D01*
X114667Y376655D01*
X116981Y376655D01*
X119118Y375770D01*
X120754Y374134D01*
X121639Y371997D01*
X121639Y370178D01*
X121641Y370152D01*
X121639Y370125D01*
X121661Y369951D01*
X121679Y369778D01*
X121686Y369752D01*
X121690Y369725D01*
X121745Y369560D01*
X121797Y369393D01*
X121810Y369369D01*
X121818Y369344D01*
X121905Y369192D01*
X121989Y369039D01*
X122006Y369018D01*
X122019Y368995D01*
X122234Y368742D01*
X123064Y367912D01*
X123064Y238197D01*
X123065Y238188D01*
X123064Y238179D01*
X123085Y237986D01*
X123104Y237797D01*
X123106Y237788D01*
X123107Y237779D01*
X123166Y237594D01*
X123222Y237412D01*
X123226Y237404D01*
X123229Y237395D01*
X123323Y237225D01*
X123414Y237058D01*
X123419Y237051D01*
X123424Y237043D01*
X123548Y236896D01*
X123671Y236748D01*
X123678Y236743D01*
X123684Y236736D01*
X123836Y236616D01*
X123985Y236496D01*
X123993Y236492D01*
X124000Y236486D01*
X124173Y236399D01*
X124342Y236310D01*
X124351Y236308D01*
X124359Y236304D01*
X124545Y236252D01*
X124729Y236199D01*
X124738Y236198D01*
X124747Y236196D01*
X124940Y236182D01*
X125131Y236166D01*
X125139Y236167D01*
X125148Y236167D01*
X125341Y236191D01*
X125530Y236213D01*
X125539Y236216D01*
X125548Y236217D01*
X125730Y236278D01*
X125913Y236338D01*
X125921Y236342D01*
X125929Y236345D01*
X126096Y236441D01*
X126264Y236536D01*
X126271Y236542D01*
X126278Y236546D01*
X126531Y236761D01*
X153582Y263812D01*
X155963Y266193D01*
X168736Y266193D01*
X168763Y266195D01*
X168789Y266193D01*
X168963Y266215D01*
X169137Y266233D01*
X169162Y266240D01*
X169189Y266244D01*
X169354Y266299D01*
X169522Y266351D01*
X169545Y266364D01*
X169571Y266372D01*
X169722Y266459D01*
X169876Y266543D01*
X169896Y266560D01*
X169919Y266573D01*
X170172Y266788D01*
X171966Y268582D01*
X174103Y269467D01*
X176417Y269467D01*
X178554Y268582D01*
X180190Y266946D01*
X180781Y265518D01*
X180787Y265507D01*
X180791Y265494D01*
X180882Y265329D01*
X180971Y265163D01*
X180980Y265153D01*
X180986Y265141D01*
X181107Y264999D01*
X181227Y264853D01*
X181238Y264845D01*
X181246Y264834D01*
X181394Y264718D01*
X181540Y264599D01*
X181552Y264593D01*
X181562Y264585D01*
X181731Y264499D01*
X181897Y264412D01*
X181909Y264409D01*
X181921Y264402D01*
X182103Y264352D01*
X182283Y264299D01*
X182296Y264298D01*
X182309Y264294D01*
X182498Y264281D01*
X182684Y264265D01*
X182697Y264266D01*
X182711Y264265D01*
X182899Y264289D01*
X183084Y264310D01*
X183097Y264314D01*
X183110Y264315D01*
X183289Y264375D01*
X183467Y264433D01*
X183479Y264439D01*
X183492Y264444D01*
X183655Y264538D01*
X183819Y264629D01*
X183829Y264638D01*
X183841Y264645D01*
X184094Y264859D01*
X215006Y295772D01*
X215012Y295779D01*
X215019Y295784D01*
X215139Y295934D01*
X215261Y296083D01*
X215265Y296091D01*
X215271Y296098D01*
X215360Y296269D01*
X215450Y296439D01*
X215452Y296447D01*
X215457Y296455D01*
X215510Y296641D01*
X215565Y296825D01*
X215565Y296834D01*
X215568Y296842D01*
X215584Y297034D01*
X215601Y297226D01*
X215600Y297235D01*
X215601Y297244D01*
X215579Y297431D01*
X215558Y297626D01*
X215555Y297635D01*
X215554Y297643D01*
X215495Y297825D01*
X215436Y298010D01*
X215432Y298018D01*
X215429Y298026D01*
X215334Y298194D01*
X215241Y298362D01*
X215236Y298369D01*
X215231Y298377D01*
X215105Y298523D01*
X214981Y298669D01*
X214974Y298675D01*
X214968Y298682D01*
X214817Y298799D01*
X214665Y298919D01*
X214657Y298923D01*
X214650Y298928D01*
X214478Y299014D01*
X214306Y299101D01*
X214297Y299104D01*
X214289Y299108D01*
X214103Y299158D01*
X213918Y299209D01*
X213909Y299210D01*
X213901Y299212D01*
X213570Y299239D01*
X210933Y299239D01*
X208796Y300124D01*
X207160Y301760D01*
X206275Y303897D01*
X206275Y305716D01*
X206273Y305742D01*
X206275Y305769D01*
X206253Y305943D01*
X206235Y306116D01*
X206228Y306142D01*
X206224Y306169D01*
X206169Y306334D01*
X206117Y306501D01*
X206104Y306525D01*
X206096Y306550D01*
X206009Y306702D01*
X205925Y306855D01*
X205908Y306876D01*
X205895Y306899D01*
X205680Y307152D01*
X199020Y313812D01*
X199013Y313818D01*
X199008Y313825D01*
X198858Y313945D01*
X198709Y314067D01*
X198701Y314071D01*
X198694Y314077D01*
X198524Y314165D01*
X198353Y314256D01*
X198344Y314258D01*
X198337Y314263D01*
X198152Y314316D01*
X197967Y314371D01*
X197958Y314371D01*
X197950Y314374D01*
X197758Y314390D01*
X197566Y314407D01*
X197557Y314406D01*
X197548Y314407D01*
X197359Y314385D01*
X197166Y314364D01*
X197157Y314361D01*
X197149Y314360D01*
X196967Y314301D01*
X196782Y314242D01*
X196774Y314238D01*
X196766Y314235D01*
X196597Y314140D01*
X196430Y314047D01*
X196423Y314042D01*
X196415Y314037D01*
X196269Y313911D01*
X196123Y313787D01*
X196117Y313780D01*
X196110Y313774D01*
X195993Y313623D01*
X195873Y313471D01*
X195869Y313463D01*
X195864Y313456D01*
X195778Y313284D01*
X195691Y313112D01*
X195688Y313103D01*
X195684Y313095D01*
X195634Y312909D01*
X195583Y312724D01*
X195582Y312715D01*
X195580Y312707D01*
X195553Y312376D01*
X195553Y309993D01*
X194668Y307856D01*
X193032Y306220D01*
X190895Y305335D01*
X188581Y305335D01*
X186444Y306220D01*
X184808Y307856D01*
X183923Y309993D01*
X183923Y312307D01*
X184696Y314171D01*
X184702Y314193D01*
X184712Y314213D01*
X184760Y314385D01*
X184812Y314557D01*
X184814Y314579D01*
X184820Y314601D01*
X184833Y314780D01*
X184850Y314958D01*
X184848Y314980D01*
X184850Y315002D01*
X184827Y315180D01*
X184809Y315358D01*
X184802Y315379D01*
X184799Y315402D01*
X184742Y315571D01*
X184689Y315742D01*
X184678Y315762D01*
X184671Y315783D01*
X184582Y315938D01*
X184496Y316096D01*
X184481Y316113D01*
X184470Y316132D01*
X184255Y316385D01*
X109727Y390913D01*
X109727Y550498D01*
X109725Y550525D01*
X109727Y550551D01*
X109705Y550725D01*
X109687Y550899D01*
X109680Y550924D01*
X109676Y550951D01*
X109621Y551116D01*
X109569Y551284D01*
X109556Y551307D01*
X109548Y551333D01*
X109461Y551484D01*
X109377Y551638D01*
X109360Y551658D01*
X109347Y551681D01*
X109132Y551934D01*
X107846Y553220D01*
X106961Y555357D01*
X106961Y557671D01*
X107846Y559808D01*
X109482Y561444D01*
X111619Y562329D01*
X113933Y562329D01*
X115809Y561552D01*
X115822Y561548D01*
X115833Y561542D01*
X116013Y561490D01*
X116194Y561435D01*
X116207Y561434D01*
X116220Y561430D01*
X116408Y561415D01*
X116595Y561397D01*
X116608Y561398D01*
X116622Y561397D01*
X116808Y561419D01*
X116995Y561439D01*
X117008Y561443D01*
X117021Y561444D01*
X117200Y561502D01*
X117380Y561559D01*
X117391Y561565D01*
X117404Y561569D01*
X117569Y561662D01*
X117733Y561752D01*
X117743Y561760D01*
X117755Y561767D01*
X117897Y561890D01*
X118041Y562011D01*
X118049Y562021D01*
X118060Y562030D01*
X118175Y562179D01*
X118292Y562326D01*
X118298Y562338D01*
X118306Y562348D01*
X118390Y562517D01*
X118476Y562684D01*
X118480Y562697D01*
X118486Y562709D01*
X118535Y562892D01*
X118586Y563071D01*
X118587Y563085D01*
X118590Y563098D01*
X118617Y563428D01*
X118617Y701222D01*
X118615Y701248D01*
X118617Y701275D01*
X118595Y701449D01*
X118577Y701622D01*
X118570Y701648D01*
X118566Y701675D01*
X118511Y701840D01*
X118459Y702007D01*
X118446Y702031D01*
X118438Y702056D01*
X118351Y702208D01*
X118267Y702361D01*
X118250Y702382D01*
X118237Y702405D01*
X118022Y702658D01*
X115918Y704762D01*
X113537Y707143D01*
X113537Y1194388D01*
X113535Y1194415D01*
X113537Y1194441D01*
X113515Y1194615D01*
X113497Y1194789D01*
X113490Y1194814D01*
X113486Y1194841D01*
X113430Y1195007D01*
X113379Y1195174D01*
X113366Y1195197D01*
X113358Y1195223D01*
X113271Y1195374D01*
X113187Y1195528D01*
X113170Y1195548D01*
X113157Y1195571D01*
X112942Y1195824D01*
X111656Y1197110D01*
X110771Y1199247D01*
X110771Y1201561D01*
X111656Y1203698D01*
X113292Y1205334D01*
X115429Y1206219D01*
X117856Y1206219D01*
X117874Y1206221D01*
X117892Y1206219D01*
X118074Y1206240D01*
X118257Y1206259D01*
X118274Y1206264D01*
X118291Y1206266D01*
X118466Y1206323D01*
X118642Y1206377D01*
X118657Y1206385D01*
X118674Y1206391D01*
X118834Y1206481D01*
X118996Y1206569D01*
X119009Y1206580D01*
X119025Y1206589D01*
X119164Y1206709D01*
X119305Y1206826D01*
X119316Y1206840D01*
X119330Y1206852D01*
X119442Y1206997D01*
X119557Y1207140D01*
X119565Y1207156D01*
X119576Y1207170D01*
X119658Y1207335D01*
X119743Y1207497D01*
X119748Y1207514D01*
X119756Y1207530D01*
X119803Y1207709D01*
X119854Y1207884D01*
X119856Y1207902D01*
X119860Y1207919D01*
X119887Y1208250D01*
X119887Y1322571D01*
X129734Y1332418D01*
X129751Y1332439D01*
X129772Y1332456D01*
X129879Y1332594D01*
X129989Y1332729D01*
X130002Y1332753D01*
X130018Y1332774D01*
X130096Y1332931D01*
X130178Y1333085D01*
X130186Y1333111D01*
X130198Y1333135D01*
X130243Y1333304D01*
X130293Y1333471D01*
X130295Y1333498D01*
X130302Y1333523D01*
X130329Y1333854D01*
X130329Y1335673D01*
X131214Y1337810D01*
X132850Y1339446D01*
X134987Y1340331D01*
X137301Y1340331D01*
X139438Y1339446D01*
X141074Y1337810D01*
X141959Y1335673D01*
X141959Y1333359D01*
X141074Y1331222D01*
X139438Y1329586D01*
X137301Y1328701D01*
X135482Y1328701D01*
X135456Y1328699D01*
X135429Y1328701D01*
X135255Y1328679D01*
X135082Y1328661D01*
X135056Y1328654D01*
X135029Y1328650D01*
X134864Y1328594D01*
X134697Y1328543D01*
X134673Y1328530D01*
X134648Y1328522D01*
X134496Y1328435D01*
X134343Y1328351D01*
X134322Y1328334D01*
X134299Y1328321D01*
X134046Y1328106D01*
X126580Y1320640D01*
X126563Y1320619D01*
X126542Y1320602D01*
X126435Y1320464D01*
X126325Y1320329D01*
X126312Y1320305D01*
X126296Y1320284D01*
X126218Y1320127D01*
X126136Y1319973D01*
X126128Y1319947D01*
X126116Y1319923D01*
X126071Y1319754D01*
X126021Y1319587D01*
X126019Y1319560D01*
X126012Y1319535D01*
X125985Y1319204D01*
X125985Y1314370D01*
X125986Y1314361D01*
X125985Y1314352D01*
X126006Y1314160D01*
X126025Y1313969D01*
X126027Y1313961D01*
X126028Y1313952D01*
X126086Y1313770D01*
X126143Y1313584D01*
X126147Y1313576D01*
X126150Y1313568D01*
X126243Y1313400D01*
X126335Y1313230D01*
X126340Y1313223D01*
X126345Y1313216D01*
X126470Y1313068D01*
X126592Y1312921D01*
X126599Y1312915D01*
X126605Y1312909D01*
X126757Y1312789D01*
X126906Y1312669D01*
X126914Y1312665D01*
X126921Y1312659D01*
X127093Y1312572D01*
X127263Y1312483D01*
X127272Y1312481D01*
X127280Y1312477D01*
X127466Y1312425D01*
X127650Y1312372D01*
X127659Y1312371D01*
X127668Y1312369D01*
X127860Y1312355D01*
X128052Y1312339D01*
X128060Y1312340D01*
X128069Y1312339D01*
X128262Y1312364D01*
X128451Y1312386D01*
X128460Y1312389D01*
X128469Y1312390D01*
X128652Y1312451D01*
X128834Y1312511D01*
X128842Y1312515D01*
X128850Y1312518D01*
X129016Y1312613D01*
X129185Y1312709D01*
X129192Y1312714D01*
X129199Y1312719D01*
X129452Y1312934D01*
X130818Y1314300D01*
X132955Y1315185D01*
X135269Y1315185D01*
X137406Y1314300D01*
X139042Y1312664D01*
X139927Y1310527D01*
X139927Y1308213D01*
X139042Y1306076D01*
X137406Y1304440D01*
X135367Y1303596D01*
X135347Y1303585D01*
X135326Y1303578D01*
X135170Y1303490D01*
X135012Y1303406D01*
X134995Y1303391D01*
X134975Y1303381D01*
X134840Y1303264D01*
X134701Y1303149D01*
X134687Y1303132D01*
X134670Y1303117D01*
X134561Y1302976D01*
X134448Y1302837D01*
X134437Y1302817D01*
X134424Y1302799D01*
X134344Y1302639D01*
X134261Y1302480D01*
X134254Y1302459D01*
X134244Y1302439D01*
X134198Y1302265D01*
X134148Y1302094D01*
X134146Y1302072D01*
X134140Y1302050D01*
X134113Y1301719D01*
X134113Y443261D01*
X134113Y443256D01*
X134113Y443252D01*
X134133Y443057D01*
X134153Y442860D01*
X134154Y442856D01*
X134154Y442851D01*
X134214Y442662D01*
X134271Y442475D01*
X134273Y442471D01*
X134274Y442467D01*
X134370Y442292D01*
X134463Y442121D01*
X134465Y442118D01*
X134468Y442114D01*
X134596Y441961D01*
X134720Y441812D01*
X134724Y441809D01*
X134727Y441806D01*
X134882Y441682D01*
X135034Y441559D01*
X135038Y441557D01*
X135042Y441555D01*
X135219Y441464D01*
X135391Y441374D01*
X135396Y441373D01*
X135400Y441371D01*
X135592Y441316D01*
X135778Y441263D01*
X135783Y441262D01*
X135787Y441261D01*
X135983Y441246D01*
X136180Y441230D01*
X136184Y441230D01*
X136188Y441230D01*
X136382Y441253D01*
X136579Y441277D01*
X136584Y441278D01*
X136588Y441278D01*
X136773Y441340D01*
X136962Y441401D01*
X136966Y441404D01*
X136970Y441405D01*
X137139Y441501D01*
X137313Y441599D01*
X137316Y441602D01*
X137320Y441604D01*
X137469Y441734D01*
X137617Y441862D01*
X137620Y441866D01*
X137624Y441869D01*
X137745Y442026D01*
X137864Y442181D01*
X137866Y442185D01*
X137869Y442188D01*
X138021Y442483D01*
X138327Y443222D01*
X139962Y444858D01*
X142099Y445743D01*
X144413Y445743D01*
X146550Y444858D01*
X148186Y443222D01*
X149071Y441085D01*
X149071Y438771D01*
X148186Y436634D01*
X146550Y434999D01*
X145273Y434470D01*
X145253Y434459D01*
X145232Y434452D01*
X145076Y434364D01*
X144918Y434279D01*
X144901Y434265D01*
X144881Y434254D01*
X144745Y434137D01*
X144607Y434023D01*
X144593Y434006D01*
X144576Y433991D01*
X144467Y433850D01*
X144354Y433710D01*
X144343Y433691D01*
X144330Y433673D01*
X144250Y433512D01*
X144167Y433354D01*
X144160Y433332D01*
X144150Y433312D01*
X144104Y433139D01*
X144054Y432967D01*
X144052Y432945D01*
X144046Y432924D01*
X144019Y432593D01*
X144019Y415972D01*
X144021Y415945D01*
X144019Y415919D01*
X144041Y415745D01*
X144059Y415571D01*
X144066Y415546D01*
X144070Y415519D01*
X144125Y415354D01*
X144177Y415186D01*
X144190Y415163D01*
X144198Y415137D01*
X144285Y414986D01*
X144369Y414832D01*
X144386Y414812D01*
X144399Y414789D01*
X144614Y414536D01*
X145900Y413250D01*
X146785Y411113D01*
X146785Y408799D01*
X145900Y406662D01*
X144264Y405026D01*
X142127Y404141D01*
X139813Y404141D01*
X137676Y405026D01*
X137580Y405122D01*
X137573Y405128D01*
X137568Y405135D01*
X137418Y405255D01*
X137269Y405377D01*
X137261Y405382D01*
X137254Y405387D01*
X137084Y405476D01*
X136913Y405566D01*
X136905Y405569D01*
X136897Y405573D01*
X136711Y405626D01*
X136527Y405681D01*
X136518Y405682D01*
X136510Y405684D01*
X136318Y405700D01*
X136126Y405717D01*
X136117Y405716D01*
X136108Y405717D01*
X135918Y405695D01*
X135726Y405674D01*
X135717Y405671D01*
X135709Y405670D01*
X135526Y405611D01*
X135342Y405552D01*
X135334Y405548D01*
X135326Y405545D01*
X135158Y405451D01*
X134990Y405358D01*
X134983Y405352D01*
X134975Y405347D01*
X134829Y405222D01*
X134683Y405097D01*
X134677Y405090D01*
X134670Y405084D01*
X134553Y404933D01*
X134433Y404781D01*
X134429Y404773D01*
X134424Y404766D01*
X134338Y404594D01*
X134251Y404422D01*
X134248Y404414D01*
X134244Y404406D01*
X134194Y404218D01*
X134143Y404034D01*
X134142Y404026D01*
X134140Y404017D01*
X134113Y403686D01*
X134113Y388184D01*
X134115Y388158D01*
X134113Y388131D01*
X134135Y387957D01*
X134153Y387784D01*
X134160Y387758D01*
X134164Y387731D01*
X134219Y387566D01*
X134271Y387399D01*
X134284Y387375D01*
X134292Y387350D01*
X134379Y387198D01*
X134463Y387045D01*
X134480Y387024D01*
X134493Y387001D01*
X134708Y386748D01*
X147212Y374244D01*
X147215Y374241D01*
X147218Y374237D01*
X147372Y374113D01*
X147523Y373989D01*
X147527Y373987D01*
X147531Y373984D01*
X147708Y373891D01*
X147879Y373800D01*
X147883Y373799D01*
X147887Y373797D01*
X148078Y373741D01*
X148265Y373685D01*
X148269Y373685D01*
X148274Y373684D01*
X148466Y373667D01*
X148666Y373649D01*
X148670Y373649D01*
X148675Y373649D01*
X148865Y373670D01*
X149066Y373692D01*
X149071Y373694D01*
X149075Y373694D01*
X149258Y373753D01*
X149450Y373814D01*
X149454Y373816D01*
X149458Y373817D01*
X149631Y373914D01*
X149802Y374009D01*
X149806Y374011D01*
X149810Y374014D01*
X149961Y374144D01*
X150109Y374269D01*
X150112Y374273D01*
X150116Y374276D01*
X150236Y374430D01*
X150359Y374585D01*
X150361Y374589D01*
X150364Y374593D01*
X150453Y374769D01*
X150541Y374944D01*
X150542Y374948D01*
X150545Y374952D01*
X150596Y375142D01*
X150649Y375332D01*
X150650Y375336D01*
X150651Y375341D01*
X150664Y375533D01*
X150679Y375733D01*
X150678Y375738D01*
X150678Y375742D01*
X150654Y375932D01*
X150628Y376133D01*
X150627Y376137D01*
X150626Y376142D01*
X150525Y376457D01*
X149859Y378064D01*
X149859Y397144D01*
X151329Y400692D01*
X154044Y403407D01*
X155802Y404135D01*
X157592Y404877D01*
X161432Y404877D01*
X164980Y403407D01*
X167695Y400692D01*
X169165Y397144D01*
X169165Y378064D01*
X167695Y374516D01*
X164980Y371801D01*
X161432Y370331D01*
X157592Y370331D01*
X155985Y370997D01*
X155981Y370998D01*
X155977Y371000D01*
X155789Y371056D01*
X155600Y371113D01*
X155596Y371114D01*
X155591Y371115D01*
X155390Y371133D01*
X155199Y371151D01*
X155195Y371151D01*
X155190Y371151D01*
X154991Y371130D01*
X154799Y371110D01*
X154795Y371108D01*
X154790Y371108D01*
X154603Y371049D01*
X154414Y370990D01*
X154410Y370988D01*
X154406Y370986D01*
X154236Y370892D01*
X154061Y370797D01*
X154058Y370794D01*
X154054Y370792D01*
X153904Y370665D01*
X153753Y370537D01*
X153750Y370534D01*
X153747Y370531D01*
X153625Y370377D01*
X153502Y370223D01*
X153500Y370219D01*
X153497Y370215D01*
X153407Y370038D01*
X153318Y369864D01*
X153317Y369860D01*
X153315Y369856D01*
X153261Y369664D01*
X153208Y369477D01*
X153208Y369473D01*
X153207Y369468D01*
X153192Y369265D01*
X153177Y369076D01*
X153178Y369071D01*
X153178Y369067D01*
X153203Y368869D01*
X153226Y368676D01*
X153227Y368672D01*
X153228Y368667D01*
X153290Y368482D01*
X153352Y368294D01*
X153355Y368290D01*
X153356Y368286D01*
X153455Y368114D01*
X153552Y367944D01*
X153555Y367941D01*
X153557Y367937D01*
X153772Y367684D01*
X209992Y311464D01*
X210013Y311447D01*
X210030Y311426D01*
X210168Y311319D01*
X210303Y311209D01*
X210327Y311196D01*
X210348Y311180D01*
X210505Y311102D01*
X210659Y311020D01*
X210685Y311012D01*
X210709Y311000D01*
X210878Y310955D01*
X211045Y310905D01*
X211072Y310903D01*
X211097Y310896D01*
X211428Y310869D01*
X213247Y310869D01*
X215384Y309984D01*
X217019Y308348D01*
X217071Y308223D01*
X217073Y308219D01*
X217075Y308214D01*
X217169Y308041D01*
X217262Y307868D01*
X217264Y307864D01*
X217267Y307860D01*
X217391Y307710D01*
X217518Y307557D01*
X217521Y307554D01*
X217524Y307551D01*
X217676Y307429D01*
X217831Y307304D01*
X217835Y307301D01*
X217838Y307299D01*
X218008Y307210D01*
X218187Y307116D01*
X218192Y307115D01*
X218195Y307113D01*
X218383Y307059D01*
X218573Y307003D01*
X218578Y307003D01*
X218582Y307002D01*
X218782Y306985D01*
X218975Y306969D01*
X218979Y306969D01*
X218984Y306969D01*
X219180Y306992D01*
X219375Y307014D01*
X219379Y307015D01*
X219383Y307016D01*
X219570Y307077D01*
X219758Y307137D01*
X219762Y307139D01*
X219766Y307141D01*
X219937Y307237D01*
X220109Y307333D01*
X220113Y307336D01*
X220117Y307339D01*
X220264Y307466D01*
X220415Y307595D01*
X220418Y307599D01*
X220422Y307602D01*
X220541Y307756D01*
X220664Y307912D01*
X220666Y307916D01*
X220668Y307920D01*
X220757Y308098D01*
X220844Y308272D01*
X220846Y308276D01*
X220848Y308280D01*
X220899Y308473D01*
X220951Y308660D01*
X220951Y308665D01*
X220952Y308669D01*
X220979Y309000D01*
X220979Y371378D01*
X220978Y371387D01*
X220979Y371396D01*
X220959Y371586D01*
X220939Y371779D01*
X220937Y371787D01*
X220936Y371796D01*
X220878Y371979D01*
X220821Y372164D01*
X220817Y372171D01*
X220814Y372180D01*
X220721Y372348D01*
X220629Y372518D01*
X220624Y372524D01*
X220619Y372532D01*
X220494Y372680D01*
X220372Y372827D01*
X220365Y372832D01*
X220359Y372839D01*
X220207Y372959D01*
X220058Y373079D01*
X220050Y373083D01*
X220043Y373089D01*
X219870Y373177D01*
X219701Y373265D01*
X219692Y373267D01*
X219684Y373271D01*
X219499Y373323D01*
X219314Y373376D01*
X219305Y373377D01*
X219296Y373379D01*
X219104Y373393D01*
X218912Y373409D01*
X218904Y373408D01*
X218895Y373409D01*
X218703Y373384D01*
X218513Y373362D01*
X218504Y373359D01*
X218495Y373358D01*
X218313Y373297D01*
X218130Y373237D01*
X218122Y373233D01*
X218114Y373230D01*
X217946Y373134D01*
X217779Y373039D01*
X217772Y373033D01*
X217765Y373029D01*
X217512Y372814D01*
X216931Y372234D01*
X215637Y371294D01*
X214212Y370568D01*
X212851Y370125D01*
X212851Y387096D01*
X212849Y387114D01*
X212851Y387131D01*
X212830Y387314D01*
X212811Y387496D01*
X212806Y387513D01*
X212804Y387531D01*
X212779Y387609D01*
X212818Y387746D01*
X212820Y387764D01*
X212824Y387781D01*
X212851Y388112D01*
X212851Y405083D01*
X214212Y404640D01*
X215637Y403914D01*
X216931Y402974D01*
X217512Y402394D01*
X217519Y402388D01*
X217524Y402381D01*
X217673Y402261D01*
X217823Y402139D01*
X217831Y402134D01*
X217838Y402129D01*
X218007Y402041D01*
X218179Y401950D01*
X218188Y401947D01*
X218195Y401943D01*
X218379Y401891D01*
X218565Y401835D01*
X218574Y401834D01*
X218582Y401832D01*
X218773Y401816D01*
X218966Y401799D01*
X218975Y401800D01*
X218984Y401799D01*
X219173Y401821D01*
X219366Y401842D01*
X219375Y401845D01*
X219383Y401846D01*
X219566Y401906D01*
X219750Y401964D01*
X219758Y401968D01*
X219766Y401971D01*
X219935Y402066D01*
X220102Y402159D01*
X220109Y402164D01*
X220117Y402169D01*
X220262Y402294D01*
X220409Y402419D01*
X220415Y402426D01*
X220422Y402432D01*
X220539Y402584D01*
X220659Y402735D01*
X220663Y402743D01*
X220668Y402750D01*
X220755Y402924D01*
X220841Y403094D01*
X220844Y403102D01*
X220848Y403111D01*
X220898Y403299D01*
X220949Y403482D01*
X220950Y403491D01*
X220952Y403499D01*
X220979Y403830D01*
X220979Y742878D01*
X220978Y742887D01*
X220979Y742896D01*
X220958Y743088D01*
X220939Y743278D01*
X220937Y743287D01*
X220936Y743296D01*
X220878Y743478D01*
X220821Y743663D01*
X220817Y743671D01*
X220814Y743680D01*
X220721Y743848D01*
X220629Y744017D01*
X220624Y744024D01*
X220619Y744032D01*
X220494Y744180D01*
X220372Y744327D01*
X220365Y744332D01*
X220359Y744339D01*
X220208Y744458D01*
X220058Y744579D01*
X220050Y744583D01*
X220043Y744589D01*
X219872Y744676D01*
X219701Y744765D01*
X219692Y744767D01*
X219684Y744771D01*
X219498Y744823D01*
X219314Y744876D01*
X219305Y744877D01*
X219296Y744879D01*
X219104Y744893D01*
X218912Y744909D01*
X218904Y744908D01*
X218895Y744908D01*
X218702Y744884D01*
X218513Y744862D01*
X218504Y744859D01*
X218495Y744858D01*
X218312Y744797D01*
X218130Y744737D01*
X218122Y744733D01*
X218114Y744730D01*
X217948Y744634D01*
X217779Y744539D01*
X217772Y744533D01*
X217765Y744529D01*
X217512Y744314D01*
X216214Y743016D01*
X216197Y742995D01*
X216176Y742978D01*
X216069Y742840D01*
X215959Y742705D01*
X215946Y742681D01*
X215930Y742660D01*
X215852Y742504D01*
X215770Y742349D01*
X215762Y742323D01*
X215750Y742299D01*
X215705Y742130D01*
X215655Y741963D01*
X215653Y741936D01*
X215646Y741911D01*
X215619Y741580D01*
X215619Y739761D01*
X214734Y737624D01*
X213098Y735988D01*
X210961Y735103D01*
X208647Y735103D01*
X206510Y735988D01*
X204874Y737624D01*
X203989Y739761D01*
X203989Y742075D01*
X204874Y744212D01*
X206510Y745848D01*
X208647Y746733D01*
X210058Y746733D01*
X210076Y746735D01*
X210094Y746733D01*
X210276Y746754D01*
X210459Y746773D01*
X210476Y746778D01*
X210493Y746780D01*
X210668Y746837D01*
X210844Y746891D01*
X210859Y746899D01*
X210876Y746905D01*
X211036Y746995D01*
X211198Y747083D01*
X211211Y747094D01*
X211227Y747103D01*
X211366Y747223D01*
X211507Y747340D01*
X211518Y747354D01*
X211532Y747366D01*
X211644Y747511D01*
X211759Y747654D01*
X211767Y747670D01*
X211778Y747684D01*
X211860Y747849D01*
X211945Y748011D01*
X211950Y748028D01*
X211958Y748044D01*
X212005Y748223D01*
X212056Y748398D01*
X212058Y748416D01*
X212062Y748433D01*
X212089Y748764D01*
X212089Y765156D01*
X212087Y765183D01*
X212089Y765209D01*
X212067Y765383D01*
X212049Y765557D01*
X212042Y765582D01*
X212038Y765609D01*
X211983Y765774D01*
X211931Y765942D01*
X211918Y765965D01*
X211910Y765991D01*
X211823Y766142D01*
X211739Y766296D01*
X211722Y766316D01*
X211709Y766339D01*
X211494Y766592D01*
X211094Y766992D01*
X211081Y767003D01*
X211072Y767013D01*
X211066Y767018D01*
X211056Y767030D01*
X210918Y767137D01*
X210783Y767247D01*
X210759Y767260D01*
X210738Y767276D01*
X210581Y767354D01*
X210427Y767436D01*
X210402Y767444D01*
X210378Y767456D01*
X210208Y767501D01*
X210041Y767551D01*
X210015Y767553D01*
X209989Y767560D01*
X209658Y767587D01*
X157400Y767587D01*
X157373Y767585D01*
X157347Y767587D01*
X157173Y767565D01*
X156999Y767547D01*
X156974Y767540D01*
X156947Y767536D01*
X156781Y767480D01*
X156614Y767429D01*
X156591Y767416D01*
X156565Y767408D01*
X156414Y767321D01*
X156260Y767237D01*
X156240Y767220D01*
X156217Y767207D01*
X155964Y766992D01*
X154678Y765706D01*
X152541Y764821D01*
X150227Y764821D01*
X148090Y765706D01*
X146454Y767342D01*
X145569Y769479D01*
X145569Y771793D01*
X146454Y773930D01*
X148090Y775566D01*
X150227Y776451D01*
X152541Y776451D01*
X154678Y775566D01*
X155964Y774280D01*
X155984Y774263D01*
X156002Y774242D01*
X156140Y774135D01*
X156275Y774025D01*
X156299Y774012D01*
X156320Y773996D01*
X156477Y773918D01*
X156631Y773836D01*
X156656Y773828D01*
X156680Y773816D01*
X156849Y773771D01*
X157017Y773721D01*
X157043Y773719D01*
X157069Y773712D01*
X157400Y773685D01*
X208642Y773685D01*
X208669Y773687D01*
X208695Y773685D01*
X208869Y773707D01*
X209043Y773725D01*
X209068Y773732D01*
X209095Y773736D01*
X209260Y773791D01*
X209428Y773843D01*
X209451Y773856D01*
X209477Y773864D01*
X209628Y773951D01*
X209782Y774035D01*
X209802Y774052D01*
X209825Y774065D01*
X210078Y774280D01*
X211872Y776074D01*
X214009Y776959D01*
X216323Y776959D01*
X218171Y776193D01*
X218184Y776189D01*
X218195Y776183D01*
X218375Y776131D01*
X218556Y776077D01*
X218569Y776075D01*
X218582Y776072D01*
X218770Y776056D01*
X218957Y776039D01*
X218970Y776040D01*
X218984Y776039D01*
X219170Y776061D01*
X219357Y776080D01*
X219370Y776084D01*
X219383Y776086D01*
X219562Y776144D01*
X219742Y776200D01*
X219753Y776207D01*
X219766Y776211D01*
X219930Y776303D01*
X220095Y776393D01*
X220105Y776402D01*
X220117Y776409D01*
X220259Y776531D01*
X220403Y776653D01*
X220411Y776663D01*
X220422Y776672D01*
X220536Y776820D01*
X220654Y776967D01*
X220660Y776979D01*
X220668Y776990D01*
X220752Y777158D01*
X220838Y777325D01*
X220842Y777338D01*
X220848Y777350D01*
X220897Y777533D01*
X220948Y777713D01*
X220949Y777726D01*
X220952Y777739D01*
X220979Y778070D01*
X220979Y794079D01*
X220977Y794106D01*
X220979Y794133D01*
X220957Y794306D01*
X220939Y794480D01*
X220932Y794505D01*
X220928Y794532D01*
X220873Y794698D01*
X220821Y794865D01*
X220808Y794888D01*
X220800Y794914D01*
X220713Y795065D01*
X220629Y795219D01*
X220612Y795239D01*
X220599Y795263D01*
X220384Y795516D01*
X188816Y827084D01*
X188795Y827101D01*
X188778Y827121D01*
X188640Y827228D01*
X188505Y827339D01*
X188481Y827351D01*
X188460Y827368D01*
X188303Y827446D01*
X188149Y827527D01*
X188123Y827535D01*
X188099Y827547D01*
X187930Y827593D01*
X187763Y827642D01*
X187736Y827645D01*
X187711Y827652D01*
X187380Y827679D01*
X186061Y827679D01*
X186030Y827676D01*
X185999Y827678D01*
X185829Y827656D01*
X185660Y827639D01*
X185630Y827630D01*
X185599Y827626D01*
X185283Y827524D01*
X183529Y826797D01*
X181215Y826797D01*
X179078Y827682D01*
X177442Y829318D01*
X176557Y831455D01*
X176557Y833769D01*
X177442Y835906D01*
X179078Y837542D01*
X181215Y838427D01*
X183529Y838427D01*
X185666Y837542D01*
X187302Y835906D01*
X187664Y835030D01*
X187675Y835011D01*
X187682Y834989D01*
X187770Y834833D01*
X187854Y834675D01*
X187869Y834658D01*
X187880Y834639D01*
X187997Y834503D01*
X188111Y834365D01*
X188128Y834351D01*
X188143Y834334D01*
X188284Y834224D01*
X188423Y834111D01*
X188443Y834101D01*
X188461Y834087D01*
X188621Y834007D01*
X188780Y833924D01*
X188801Y833918D01*
X188821Y833908D01*
X188995Y833861D01*
X189166Y833811D01*
X189189Y833809D01*
X189210Y833803D01*
X189541Y833776D01*
X190747Y833776D01*
X227077Y797446D01*
X227077Y770962D01*
X227078Y770953D01*
X227077Y770944D01*
X227098Y770751D01*
X227117Y770562D01*
X227119Y770553D01*
X227120Y770544D01*
X227178Y770361D01*
X227235Y770177D01*
X227239Y770169D01*
X227242Y770160D01*
X227334Y769993D01*
X227427Y769823D01*
X227432Y769816D01*
X227437Y769808D01*
X227561Y769661D01*
X227684Y769513D01*
X227691Y769508D01*
X227697Y769501D01*
X227849Y769381D01*
X227998Y769261D01*
X228006Y769257D01*
X228013Y769251D01*
X228186Y769164D01*
X228355Y769075D01*
X228364Y769073D01*
X228372Y769069D01*
X228558Y769017D01*
X228742Y768964D01*
X228751Y768963D01*
X228760Y768961D01*
X228953Y768947D01*
X229144Y768931D01*
X229152Y768932D01*
X229161Y768932D01*
X229354Y768956D01*
X229543Y768978D01*
X229552Y768981D01*
X229561Y768982D01*
X229744Y769043D01*
X229926Y769103D01*
X229934Y769107D01*
X229942Y769110D01*
X230109Y769206D01*
X230277Y769301D01*
X230284Y769307D01*
X230291Y769311D01*
X230544Y769526D01*
X241748Y780730D01*
X241765Y780751D01*
X241786Y780768D01*
X241893Y780906D01*
X242003Y781041D01*
X242016Y781065D01*
X242032Y781086D01*
X242110Y781243D01*
X242192Y781397D01*
X242200Y781423D01*
X242212Y781447D01*
X242257Y781616D01*
X242307Y781783D01*
X242309Y781810D01*
X242316Y781835D01*
X242343Y782166D01*
X242343Y783985D01*
X243228Y786122D01*
X244864Y787758D01*
X247001Y788643D01*
X249315Y788643D01*
X251452Y787758D01*
X253088Y786122D01*
X253973Y783985D01*
X253973Y781671D01*
X253088Y779534D01*
X251452Y777898D01*
X250657Y777569D01*
X249315Y777013D01*
X247496Y777013D01*
X247470Y777011D01*
X247443Y777013D01*
X247269Y776991D01*
X247096Y776973D01*
X247070Y776966D01*
X247043Y776962D01*
X246878Y776907D01*
X246711Y776855D01*
X246687Y776842D01*
X246662Y776834D01*
X246510Y776747D01*
X246357Y776663D01*
X246336Y776646D01*
X246313Y776633D01*
X246060Y776418D01*
X231228Y761586D01*
X231211Y761565D01*
X231190Y761548D01*
X231083Y761410D01*
X230973Y761275D01*
X230960Y761251D01*
X230944Y761230D01*
X230866Y761073D01*
X230784Y760919D01*
X230776Y760893D01*
X230764Y760869D01*
X230719Y760700D01*
X230669Y760533D01*
X230667Y760506D01*
X230660Y760481D01*
X230633Y760150D01*
X230633Y725090D01*
X230634Y725081D01*
X230633Y725072D01*
X230654Y724881D01*
X230673Y724689D01*
X230675Y724681D01*
X230676Y724672D01*
X230734Y724489D01*
X230791Y724304D01*
X230795Y724296D01*
X230798Y724288D01*
X230891Y724119D01*
X230983Y723950D01*
X230988Y723944D01*
X230993Y723936D01*
X231118Y723787D01*
X231240Y723641D01*
X231247Y723635D01*
X231253Y723629D01*
X231404Y723509D01*
X231554Y723389D01*
X231562Y723385D01*
X231569Y723379D01*
X231741Y723291D01*
X231911Y723203D01*
X231920Y723201D01*
X231928Y723197D01*
X232114Y723145D01*
X232298Y723092D01*
X232307Y723091D01*
X232316Y723089D01*
X232508Y723075D01*
X232700Y723059D01*
X232708Y723060D01*
X232717Y723059D01*
X232909Y723084D01*
X233099Y723106D01*
X233108Y723109D01*
X233117Y723110D01*
X233298Y723171D01*
X233482Y723231D01*
X233490Y723235D01*
X233498Y723238D01*
X233663Y723333D01*
X233833Y723429D01*
X233840Y723434D01*
X233847Y723439D01*
X234100Y723654D01*
X234196Y723750D01*
X236333Y724635D01*
X238647Y724635D01*
X240784Y723750D01*
X242420Y722114D01*
X243305Y719977D01*
X243305Y717663D01*
X242420Y715526D01*
X241388Y714494D01*
X241371Y714474D01*
X241350Y714456D01*
X241243Y714318D01*
X241133Y714183D01*
X241120Y714159D01*
X241104Y714138D01*
X241026Y713981D01*
X240944Y713827D01*
X240936Y713802D01*
X240924Y713778D01*
X240879Y713608D01*
X240829Y713441D01*
X240827Y713415D01*
X240820Y713389D01*
X240793Y713058D01*
X240793Y581783D01*
X240795Y581756D01*
X240793Y581730D01*
X240815Y581556D01*
X240833Y581382D01*
X240840Y581357D01*
X240844Y581330D01*
X240899Y581164D01*
X240951Y580997D01*
X240964Y580974D01*
X240972Y580948D01*
X241059Y580797D01*
X241143Y580643D01*
X241160Y580623D01*
X241173Y580600D01*
X241388Y580347D01*
X251687Y570048D01*
X251687Y310178D01*
X251688Y310169D01*
X251687Y310160D01*
X251708Y309967D01*
X251727Y309778D01*
X251729Y309769D01*
X251730Y309760D01*
X251789Y309576D01*
X251845Y309393D01*
X251849Y309385D01*
X251852Y309376D01*
X251945Y309208D01*
X252037Y309039D01*
X252042Y309032D01*
X252047Y309024D01*
X252171Y308877D01*
X252294Y308729D01*
X252301Y308724D01*
X252307Y308717D01*
X252459Y308597D01*
X252608Y308477D01*
X252616Y308473D01*
X252623Y308467D01*
X252796Y308380D01*
X252965Y308291D01*
X252974Y308289D01*
X252982Y308285D01*
X253168Y308233D01*
X253352Y308180D01*
X253361Y308179D01*
X253370Y308177D01*
X253563Y308163D01*
X253754Y308147D01*
X253762Y308148D01*
X253771Y308148D01*
X253964Y308172D01*
X254153Y308194D01*
X254162Y308197D01*
X254171Y308198D01*
X254353Y308259D01*
X254536Y308319D01*
X254544Y308323D01*
X254552Y308326D01*
X254719Y308422D01*
X254887Y308517D01*
X254894Y308523D01*
X254901Y308527D01*
X255154Y308742D01*
X311062Y364650D01*
X311079Y364671D01*
X311100Y364688D01*
X311206Y364826D01*
X311317Y364961D01*
X311330Y364985D01*
X311346Y365006D01*
X311424Y365163D01*
X311506Y365317D01*
X311514Y365343D01*
X311526Y365367D01*
X311571Y365536D01*
X311621Y365703D01*
X311623Y365730D01*
X311630Y365755D01*
X311657Y366086D01*
X311657Y871046D01*
X311655Y871073D01*
X311657Y871099D01*
X311635Y871273D01*
X311617Y871447D01*
X311610Y871472D01*
X311606Y871499D01*
X311551Y871664D01*
X311499Y871832D01*
X311486Y871855D01*
X311478Y871881D01*
X311391Y872032D01*
X311307Y872186D01*
X311290Y872206D01*
X311277Y872229D01*
X311062Y872482D01*
X309776Y873768D01*
X308891Y875905D01*
X308891Y878219D01*
X309776Y880356D01*
X311412Y881992D01*
X313549Y882877D01*
X315863Y882877D01*
X318000Y881992D01*
X319636Y880356D01*
X320521Y878219D01*
X320521Y875905D01*
X319655Y873815D01*
X319654Y873811D01*
X319651Y873807D01*
X319594Y873615D01*
X319538Y873430D01*
X319538Y873425D01*
X319537Y873421D01*
X319519Y873223D01*
X319500Y873029D01*
X319501Y873024D01*
X319500Y873020D01*
X319522Y872821D01*
X319542Y872628D01*
X319543Y872624D01*
X319544Y872620D01*
X319603Y872432D01*
X319662Y872244D01*
X319664Y872240D01*
X319665Y872236D01*
X319761Y872062D01*
X319855Y871891D01*
X319858Y871887D01*
X319860Y871883D01*
X319987Y871734D01*
X320114Y871583D01*
X320118Y871580D01*
X320121Y871576D01*
X320274Y871455D01*
X320429Y871332D01*
X320433Y871330D01*
X320436Y871327D01*
X320613Y871237D01*
X320787Y871148D01*
X320791Y871146D01*
X320795Y871144D01*
X320987Y871091D01*
X321174Y871038D01*
X321179Y871038D01*
X321183Y871036D01*
X321385Y871022D01*
X321576Y871007D01*
X321580Y871007D01*
X321585Y871007D01*
X321782Y871032D01*
X321976Y871056D01*
X321980Y871057D01*
X321984Y871057D01*
X322169Y871120D01*
X322358Y871182D01*
X322362Y871184D01*
X322366Y871186D01*
X322536Y871284D01*
X322708Y871381D01*
X322711Y871384D01*
X322715Y871387D01*
X322968Y871601D01*
X326302Y874936D01*
X326319Y874957D01*
X326340Y874974D01*
X326446Y875112D01*
X326557Y875247D01*
X326570Y875271D01*
X326586Y875292D01*
X326664Y875448D01*
X326746Y875603D01*
X326754Y875629D01*
X326766Y875653D01*
X326811Y875822D01*
X326861Y875989D01*
X326863Y876016D01*
X326870Y876041D01*
X326897Y876372D01*
X326897Y1164010D01*
X326895Y1164036D01*
X326897Y1164063D01*
X326875Y1164237D01*
X326857Y1164410D01*
X326850Y1164436D01*
X326846Y1164463D01*
X326791Y1164628D01*
X326739Y1164795D01*
X326726Y1164819D01*
X326718Y1164844D01*
X326631Y1164996D01*
X326547Y1165149D01*
X326530Y1165170D01*
X326517Y1165193D01*
X326302Y1165446D01*
X294960Y1196788D01*
X294939Y1196805D01*
X294922Y1196826D01*
X294784Y1196933D01*
X294649Y1197043D01*
X294625Y1197056D01*
X294604Y1197072D01*
X294447Y1197150D01*
X294293Y1197232D01*
X294267Y1197240D01*
X294243Y1197252D01*
X294074Y1197297D01*
X293907Y1197347D01*
X293880Y1197349D01*
X293855Y1197356D01*
X293524Y1197383D01*
X291705Y1197383D01*
X289568Y1198268D01*
X287932Y1199904D01*
X287047Y1202041D01*
X287047Y1204355D01*
X287932Y1206492D01*
X289568Y1208128D01*
X291705Y1209013D01*
X294019Y1209013D01*
X296156Y1208128D01*
X297792Y1206492D01*
X298677Y1204355D01*
X298677Y1202536D01*
X298679Y1202510D01*
X298677Y1202483D01*
X298699Y1202309D01*
X298717Y1202136D01*
X298724Y1202110D01*
X298728Y1202083D01*
X298783Y1201918D01*
X298835Y1201751D01*
X298848Y1201727D01*
X298856Y1201702D01*
X298943Y1201550D01*
X299027Y1201397D01*
X299044Y1201376D01*
X299057Y1201353D01*
X299272Y1201100D01*
X332995Y1167377D01*
X332995Y873005D01*
X330614Y870624D01*
X329003Y869014D01*
X328995Y869003D01*
X328985Y868995D01*
X328867Y868847D01*
X328748Y868702D01*
X328742Y868690D01*
X328734Y868680D01*
X328648Y868513D01*
X328560Y868347D01*
X328556Y868334D01*
X328550Y868322D01*
X328499Y868142D01*
X328445Y867961D01*
X328444Y867947D01*
X328440Y867934D01*
X328426Y867749D01*
X328408Y867560D01*
X328410Y867546D01*
X328409Y867533D01*
X328431Y867348D01*
X328452Y867159D01*
X328456Y867147D01*
X328458Y867133D01*
X328516Y866957D01*
X328573Y866776D01*
X328580Y866764D01*
X328584Y866751D01*
X328677Y866589D01*
X328768Y866423D01*
X328777Y866413D01*
X328783Y866401D01*
X328907Y866259D01*
X329029Y866116D01*
X329039Y866108D01*
X329048Y866098D01*
X329196Y865984D01*
X329345Y865867D01*
X329357Y865860D01*
X329367Y865852D01*
X329662Y865701D01*
X330192Y865482D01*
X331828Y863846D01*
X332713Y861709D01*
X332713Y859395D01*
X331828Y857258D01*
X330192Y855622D01*
X328055Y854737D01*
X326898Y854737D01*
X326880Y854735D01*
X326862Y854737D01*
X326680Y854716D01*
X326497Y854697D01*
X326480Y854692D01*
X326463Y854690D01*
X326288Y854633D01*
X326112Y854579D01*
X326097Y854571D01*
X326080Y854565D01*
X325920Y854475D01*
X325758Y854387D01*
X325745Y854376D01*
X325729Y854367D01*
X325590Y854247D01*
X325449Y854130D01*
X325438Y854116D01*
X325424Y854104D01*
X325312Y853959D01*
X325197Y853816D01*
X325189Y853800D01*
X325178Y853786D01*
X325096Y853621D01*
X325011Y853459D01*
X325006Y853442D01*
X324998Y853426D01*
X324951Y853247D01*
X324900Y853072D01*
X324898Y853054D01*
X324894Y853037D01*
X324867Y852706D01*
X324867Y359773D01*
X216750Y251656D01*
X216733Y251635D01*
X216712Y251618D01*
X216605Y251480D01*
X216495Y251345D01*
X216482Y251321D01*
X216466Y251300D01*
X216388Y251143D01*
X216306Y250989D01*
X216298Y250963D01*
X216286Y250939D01*
X216241Y250770D01*
X216191Y250603D01*
X216189Y250576D01*
X216182Y250551D01*
X216155Y250220D01*
X216155Y240610D01*
X216157Y240584D01*
X216155Y240557D01*
X216177Y240383D01*
X216195Y240210D01*
X216202Y240184D01*
X216206Y240157D01*
X216262Y239991D01*
X216313Y239825D01*
X216326Y239801D01*
X216334Y239776D01*
X216421Y239624D01*
X216505Y239471D01*
X216522Y239450D01*
X216535Y239427D01*
X216750Y239174D01*
X220632Y235292D01*
X220653Y235275D01*
X220670Y235254D01*
X220808Y235147D01*
X220943Y235037D01*
X220967Y235024D01*
X220988Y235008D01*
X221145Y234930D01*
X221299Y234848D01*
X221325Y234840D01*
X221349Y234828D01*
X221518Y234783D01*
X221685Y234733D01*
X221712Y234731D01*
X221737Y234724D01*
X222068Y234697D01*
X242904Y234697D01*
X242931Y234699D01*
X242957Y234697D01*
X243131Y234719D01*
X243305Y234737D01*
X243330Y234744D01*
X243357Y234748D01*
X243522Y234803D01*
X243690Y234855D01*
X243713Y234868D01*
X243739Y234876D01*
X243890Y234963D01*
X244044Y235047D01*
X244064Y235064D01*
X244087Y235077D01*
X244340Y235292D01*
X245626Y236578D01*
X247763Y237463D01*
X250077Y237463D01*
X252214Y236578D01*
X253850Y234942D01*
X254735Y232805D01*
X254735Y230491D01*
X253850Y228354D01*
X252214Y226718D01*
X250077Y225833D01*
X247763Y225833D01*
X245626Y226718D01*
X244340Y228004D01*
X244320Y228021D01*
X244302Y228042D01*
X244164Y228149D01*
X244029Y228259D01*
X244005Y228272D01*
X243984Y228288D01*
X243827Y228366D01*
X243673Y228448D01*
X243648Y228456D01*
X243624Y228468D01*
X243454Y228513D01*
X243287Y228563D01*
X243261Y228565D01*
X243235Y228572D01*
X242904Y228599D01*
X223592Y228599D01*
X223583Y228598D01*
X223574Y228599D01*
X223383Y228578D01*
X223192Y228559D01*
X223183Y228557D01*
X223174Y228556D01*
X222992Y228498D01*
X222807Y228441D01*
X222799Y228437D01*
X222790Y228434D01*
X222622Y228341D01*
X222453Y228249D01*
X222446Y228244D01*
X222438Y228239D01*
X222291Y228115D01*
X222143Y227992D01*
X222138Y227985D01*
X222131Y227979D01*
X222012Y227828D01*
X221891Y227678D01*
X221887Y227670D01*
X221881Y227663D01*
X221794Y227490D01*
X221705Y227321D01*
X221703Y227312D01*
X221699Y227304D01*
X221647Y227118D01*
X221594Y226934D01*
X221593Y226925D01*
X221591Y226916D01*
X221577Y226723D01*
X221561Y226532D01*
X221562Y226524D01*
X221562Y226515D01*
X221586Y226322D01*
X221608Y226133D01*
X221611Y226124D01*
X221612Y226115D01*
X221673Y225932D01*
X221733Y225750D01*
X221737Y225742D01*
X221740Y225734D01*
X221836Y225567D01*
X221931Y225399D01*
X221937Y225392D01*
X221941Y225385D01*
X222156Y225132D01*
X227425Y219863D01*
X227445Y219846D01*
X227463Y219826D01*
X227601Y219719D01*
X227736Y219608D01*
X227760Y219595D01*
X227781Y219579D01*
X227938Y219501D01*
X228092Y219419D01*
X228117Y219412D01*
X228142Y219400D01*
X228311Y219354D01*
X228478Y219304D01*
X228504Y219302D01*
X228530Y219295D01*
X228861Y219268D01*
X250081Y219268D01*
X250108Y219271D01*
X250135Y219269D01*
X250308Y219291D01*
X250482Y219308D01*
X250507Y219316D01*
X250534Y219319D01*
X250700Y219375D01*
X250867Y219426D01*
X250890Y219439D01*
X250916Y219447D01*
X251067Y219535D01*
X251221Y219618D01*
X251241Y219635D01*
X251265Y219648D01*
X251518Y219863D01*
X252803Y221149D01*
X254941Y222034D01*
X257254Y222034D01*
X259391Y221149D01*
X261027Y219513D01*
X261912Y217376D01*
X261912Y215063D01*
X261027Y212925D01*
X259391Y211290D01*
X257254Y210404D01*
X254941Y210404D01*
X252803Y211290D01*
X251518Y212576D01*
X251497Y212592D01*
X251479Y212613D01*
X251341Y212720D01*
X251206Y212831D01*
X251182Y212843D01*
X251161Y212860D01*
X251004Y212938D01*
X250850Y213019D01*
X250825Y213027D01*
X250801Y213039D01*
X250631Y213084D01*
X250464Y213134D01*
X250438Y213136D01*
X250412Y213143D01*
X250081Y213170D01*
X225494Y213170D01*
X206380Y232284D01*
X206377Y232296D01*
X206375Y232314D01*
X206318Y232488D01*
X206264Y232664D01*
X206255Y232680D01*
X206250Y232697D01*
X206159Y232857D01*
X206072Y233018D01*
X206061Y233032D01*
X206052Y233047D01*
X205932Y233187D01*
X205814Y233327D01*
X205800Y233338D01*
X205789Y233352D01*
X205644Y233465D01*
X205500Y233580D01*
X205485Y233588D01*
X205471Y233599D01*
X205306Y233681D01*
X205143Y233765D01*
X205126Y233770D01*
X205110Y233778D01*
X204932Y233826D01*
X204756Y233877D01*
X204738Y233878D01*
X204721Y233883D01*
X204390Y233910D01*
X201676Y233910D01*
X201658Y233908D01*
X201640Y233909D01*
X201458Y233888D01*
X201275Y233870D01*
X201258Y233865D01*
X201241Y233863D01*
X201066Y233806D01*
X200890Y233752D01*
X200875Y233743D01*
X200858Y233738D01*
X200698Y233647D01*
X200536Y233560D01*
X200523Y233549D01*
X200507Y233540D01*
X200368Y233420D01*
X200227Y233302D01*
X200216Y233288D01*
X200202Y233277D01*
X200090Y233132D01*
X199975Y232988D01*
X199967Y232973D01*
X199956Y232959D01*
X199874Y232794D01*
X199789Y232631D01*
X199784Y232614D01*
X199776Y232598D01*
X199729Y232420D01*
X199678Y232244D01*
X199676Y232226D01*
X199672Y232209D01*
X199645Y231878D01*
X199645Y175332D01*
X199647Y175306D01*
X199645Y175279D01*
X199667Y175105D01*
X199685Y174932D01*
X199692Y174906D01*
X199696Y174879D01*
X199751Y174714D01*
X199803Y174547D01*
X199816Y174523D01*
X199824Y174498D01*
X199911Y174346D01*
X199995Y174193D01*
X200012Y174172D01*
X200025Y174149D01*
X200240Y173896D01*
X205674Y168462D01*
X205695Y168445D01*
X205712Y168424D01*
X205850Y168317D01*
X205985Y168207D01*
X206009Y168194D01*
X206030Y168178D01*
X206187Y168100D01*
X206341Y168018D01*
X206367Y168010D01*
X206391Y167998D01*
X206560Y167953D01*
X206727Y167903D01*
X206754Y167901D01*
X206779Y167894D01*
X207110Y167867D01*
X208929Y167867D01*
X211066Y166982D01*
X212702Y165346D01*
X213587Y163209D01*
X213587Y160895D01*
X212702Y158758D01*
X211066Y157122D01*
X208929Y156237D01*
X206615Y156237D01*
X204478Y157122D01*
X202842Y158758D01*
X201957Y160895D01*
X201957Y162714D01*
X201955Y162740D01*
X201957Y162767D01*
X201935Y162941D01*
X201917Y163114D01*
X201910Y163140D01*
X201906Y163167D01*
X201850Y163333D01*
X201799Y163499D01*
X201787Y163523D01*
X201778Y163548D01*
X201691Y163700D01*
X201607Y163853D01*
X201590Y163874D01*
X201577Y163897D01*
X201362Y164150D01*
X199556Y165956D01*
X199549Y165962D01*
X199544Y165969D01*
X199394Y166089D01*
X199245Y166211D01*
X199237Y166215D01*
X199230Y166221D01*
X199060Y166309D01*
X198889Y166400D01*
X198880Y166402D01*
X198873Y166407D01*
X198688Y166460D01*
X198503Y166515D01*
X198494Y166515D01*
X198486Y166518D01*
X198295Y166534D01*
X198102Y166551D01*
X198093Y166550D01*
X198084Y166551D01*
X197895Y166529D01*
X197702Y166508D01*
X197693Y166505D01*
X197685Y166504D01*
X197503Y166445D01*
X197318Y166386D01*
X197310Y166382D01*
X197302Y166379D01*
X197135Y166285D01*
X196966Y166191D01*
X196959Y166186D01*
X196951Y166181D01*
X196806Y166056D01*
X196659Y165931D01*
X196653Y165924D01*
X196646Y165918D01*
X196530Y165767D01*
X196409Y165615D01*
X196405Y165607D01*
X196400Y165600D01*
X196314Y165428D01*
X196227Y165256D01*
X196224Y165247D01*
X196220Y165239D01*
X196170Y165053D01*
X196119Y164868D01*
X196118Y164859D01*
X196116Y164851D01*
X196089Y164520D01*
X196089Y161551D01*
X194116Y159578D01*
X194099Y159557D01*
X194078Y159540D01*
X193971Y159402D01*
X193861Y159267D01*
X193848Y159243D01*
X193832Y159222D01*
X193754Y159065D01*
X193672Y158911D01*
X193664Y158885D01*
X193652Y158861D01*
X193607Y158692D01*
X193557Y158525D01*
X193555Y158498D01*
X193548Y158473D01*
X193521Y158142D01*
X193521Y156323D01*
X192636Y154186D01*
X191000Y152550D01*
X189536Y151944D01*
X188863Y151665D01*
X186549Y151665D01*
X184412Y152550D01*
X182776Y154186D01*
X181891Y156323D01*
X181891Y158637D01*
X182804Y160839D01*
X182885Y160938D01*
X182891Y160950D01*
X182899Y160961D01*
X182985Y161128D01*
X183073Y161294D01*
X183077Y161307D01*
X183083Y161319D01*
X183134Y161499D01*
X183188Y161680D01*
X183189Y161693D01*
X183193Y161706D01*
X183207Y161892D01*
X183224Y162081D01*
X183223Y162094D01*
X183224Y162108D01*
X183201Y162293D01*
X183181Y162481D01*
X183177Y162494D01*
X183175Y162507D01*
X183116Y162687D01*
X183060Y162865D01*
X183053Y162877D01*
X183049Y162890D01*
X182955Y163054D01*
X182865Y163217D01*
X182856Y163227D01*
X182849Y163239D01*
X182726Y163381D01*
X182604Y163524D01*
X182594Y163533D01*
X182585Y163543D01*
X182435Y163658D01*
X182288Y163774D01*
X182276Y163780D01*
X182266Y163788D01*
X181971Y163940D01*
X181872Y163981D01*
X180236Y165616D01*
X179749Y166792D01*
X179743Y166804D01*
X179739Y166817D01*
X179648Y166981D01*
X179559Y167147D01*
X179551Y167157D01*
X179544Y167169D01*
X179423Y167312D01*
X179303Y167457D01*
X179292Y167466D01*
X179284Y167476D01*
X179136Y167593D01*
X178990Y167711D01*
X178978Y167717D01*
X178968Y167726D01*
X178800Y167811D01*
X178634Y167898D01*
X178621Y167902D01*
X178609Y167908D01*
X178427Y167959D01*
X178247Y168011D01*
X178234Y168012D01*
X178221Y168016D01*
X178032Y168030D01*
X177846Y168046D01*
X177833Y168044D01*
X177819Y168045D01*
X177632Y168022D01*
X177446Y168001D01*
X177433Y167997D01*
X177420Y167995D01*
X177242Y167935D01*
X177063Y167878D01*
X177051Y167871D01*
X177038Y167867D01*
X176876Y167773D01*
X176711Y167681D01*
X176701Y167673D01*
X176689Y167666D01*
X176436Y167451D01*
X174998Y166012D01*
X172861Y165127D01*
X170547Y165127D01*
X168410Y166012D01*
X166774Y167648D01*
X165889Y169785D01*
X165889Y172000D01*
X165888Y172014D01*
X165889Y172027D01*
X165868Y172212D01*
X165849Y172401D01*
X165845Y172414D01*
X165844Y172427D01*
X165786Y172606D01*
X165731Y172786D01*
X165725Y172798D01*
X165721Y172811D01*
X165629Y172975D01*
X165539Y173140D01*
X165531Y173150D01*
X165524Y173162D01*
X165402Y173305D01*
X165282Y173449D01*
X165271Y173458D01*
X165263Y173468D01*
X165115Y173584D01*
X164968Y173702D01*
X164956Y173708D01*
X164946Y173716D01*
X164777Y173801D01*
X164611Y173887D01*
X164598Y173891D01*
X164586Y173897D01*
X164404Y173947D01*
X164224Y173999D01*
X164210Y174000D01*
X164197Y174003D01*
X164009Y174016D01*
X163822Y174031D01*
X163809Y174030D01*
X163796Y174031D01*
X163608Y174006D01*
X163423Y173985D01*
X163410Y173980D01*
X163397Y173979D01*
X163081Y173877D01*
X162193Y173509D01*
X159879Y173509D01*
X157742Y174394D01*
X156106Y176030D01*
X155221Y178167D01*
X155221Y180481D01*
X156106Y182618D01*
X157742Y184254D01*
X159879Y185139D01*
X161698Y185139D01*
X161724Y185141D01*
X161751Y185139D01*
X161925Y185161D01*
X162098Y185179D01*
X162124Y185186D01*
X162151Y185190D01*
X162316Y185245D01*
X162483Y185297D01*
X162507Y185310D01*
X162532Y185318D01*
X162684Y185405D01*
X162837Y185489D01*
X162858Y185506D01*
X162881Y185519D01*
X163134Y185734D01*
X177148Y199748D01*
X177165Y199769D01*
X177186Y199786D01*
X177293Y199924D01*
X177403Y200059D01*
X177416Y200083D01*
X177432Y200104D01*
X177510Y200261D01*
X177592Y200415D01*
X177600Y200441D01*
X177612Y200465D01*
X177657Y200634D01*
X177707Y200801D01*
X177709Y200828D01*
X177716Y200853D01*
X177743Y201184D01*
X177743Y243692D01*
X177742Y243706D01*
X177743Y243719D01*
X177722Y243906D01*
X177703Y244093D01*
X177699Y244106D01*
X177698Y244119D01*
X177640Y244299D01*
X177585Y244478D01*
X177579Y244490D01*
X177575Y244503D01*
X177483Y244667D01*
X177393Y244832D01*
X177385Y244842D01*
X177378Y244854D01*
X177255Y244998D01*
X177136Y245141D01*
X177125Y245150D01*
X177117Y245160D01*
X176968Y245276D01*
X176822Y245394D01*
X176810Y245400D01*
X176799Y245408D01*
X176631Y245493D01*
X176465Y245579D01*
X176452Y245583D01*
X176440Y245589D01*
X176259Y245638D01*
X176078Y245691D01*
X176064Y245692D01*
X176051Y245695D01*
X175865Y245708D01*
X175676Y245723D01*
X175663Y245722D01*
X175650Y245723D01*
X175464Y245698D01*
X175277Y245676D01*
X175264Y245672D01*
X175251Y245671D01*
X175172Y245645D01*
X172805Y245645D01*
X170668Y246530D01*
X169382Y247816D01*
X169362Y247833D01*
X169344Y247854D01*
X169206Y247961D01*
X169071Y248071D01*
X169047Y248084D01*
X169026Y248100D01*
X168869Y248178D01*
X168715Y248260D01*
X168690Y248268D01*
X168666Y248280D01*
X168496Y248325D01*
X168329Y248375D01*
X168303Y248377D01*
X168277Y248384D01*
X167946Y248411D01*
X163793Y248411D01*
X163770Y248409D01*
X163748Y248411D01*
X163571Y248389D01*
X163392Y248371D01*
X163371Y248365D01*
X163349Y248362D01*
X163179Y248306D01*
X163007Y248253D01*
X162987Y248243D01*
X162966Y248236D01*
X162811Y248147D01*
X162653Y248061D01*
X162636Y248047D01*
X162617Y248036D01*
X162481Y247918D01*
X162344Y247804D01*
X162330Y247786D01*
X162313Y247772D01*
X162204Y247629D01*
X162092Y247490D01*
X162081Y247470D01*
X162068Y247452D01*
X161916Y247157D01*
X161901Y247122D01*
X160266Y245486D01*
X158129Y244601D01*
X155815Y244601D01*
X153678Y245486D01*
X152042Y247122D01*
X151294Y248929D01*
X151288Y248940D01*
X151284Y248953D01*
X151192Y249119D01*
X151104Y249284D01*
X151095Y249294D01*
X151089Y249306D01*
X150967Y249449D01*
X150848Y249594D01*
X150837Y249602D01*
X150829Y249613D01*
X150681Y249729D01*
X150535Y249848D01*
X150523Y249854D01*
X150513Y249862D01*
X150345Y249947D01*
X150178Y250035D01*
X150166Y250039D01*
X150154Y250045D01*
X149973Y250095D01*
X149792Y250148D01*
X149779Y250149D01*
X149766Y250153D01*
X149577Y250166D01*
X149391Y250182D01*
X149378Y250181D01*
X149364Y250182D01*
X149176Y250158D01*
X148991Y250137D01*
X148978Y250133D01*
X148965Y250132D01*
X148787Y250072D01*
X148608Y250014D01*
X148596Y250008D01*
X148583Y250003D01*
X148420Y249909D01*
X148256Y249818D01*
X148246Y249809D01*
X148234Y249802D01*
X147981Y249588D01*
X125056Y226662D01*
X125051Y226656D01*
X125045Y226651D01*
X125033Y226636D01*
X125018Y226624D01*
X124911Y226486D01*
X124801Y226351D01*
X124796Y226342D01*
X124792Y226337D01*
X124785Y226323D01*
X124772Y226306D01*
X124693Y226149D01*
X124612Y225995D01*
X124609Y225983D01*
X124607Y225980D01*
X124603Y225966D01*
X124592Y225945D01*
X124547Y225776D01*
X124497Y225609D01*
X124496Y225595D01*
X124495Y225593D01*
X124494Y225581D01*
X124488Y225557D01*
X124461Y225226D01*
X124461Y212344D01*
X124375Y212234D01*
X124265Y212099D01*
X124252Y212075D01*
X124236Y212054D01*
X124158Y211897D01*
X124076Y211743D01*
X124068Y211717D01*
X124056Y211693D01*
X124011Y211524D01*
X123961Y211357D01*
X123959Y211330D01*
X123952Y211305D01*
X123925Y210974D01*
X123925Y209155D01*
X123040Y207018D01*
X121404Y205383D01*
X121305Y205342D01*
X121294Y205335D01*
X121281Y205331D01*
X121116Y205240D01*
X120951Y205152D01*
X120940Y205143D01*
X120928Y205137D01*
X120785Y205015D01*
X120640Y204895D01*
X120632Y204885D01*
X120621Y204876D01*
X120505Y204728D01*
X120386Y204583D01*
X120380Y204571D01*
X120372Y204560D01*
X120287Y204393D01*
X120199Y204226D01*
X120196Y204213D01*
X120190Y204201D01*
X120139Y204020D01*
X120086Y203840D01*
X120085Y203826D01*
X120082Y203813D01*
X120068Y203624D01*
X120052Y203439D01*
X120053Y203425D01*
X120052Y203412D01*
X120076Y203225D01*
X120097Y203038D01*
X120101Y203026D01*
X120103Y203012D01*
X120162Y202835D01*
X120220Y202655D01*
X120227Y202643D01*
X120231Y202631D01*
X120325Y202468D01*
X120416Y202304D01*
X120425Y202293D01*
X120432Y202282D01*
X120646Y202029D01*
X121262Y201414D01*
X122147Y199277D01*
X122147Y197779D01*
X122148Y197771D01*
X122147Y197762D01*
X122168Y197568D01*
X122187Y197379D01*
X122189Y197370D01*
X122190Y197361D01*
X122249Y197177D01*
X122305Y196994D01*
X122309Y196986D01*
X122312Y196978D01*
X122405Y196809D01*
X122497Y196640D01*
X122502Y196633D01*
X122507Y196625D01*
X122631Y196478D01*
X122754Y196331D01*
X122761Y196325D01*
X122767Y196318D01*
X122919Y196198D01*
X123068Y196078D01*
X123076Y196074D01*
X123083Y196069D01*
X123256Y195981D01*
X123425Y195893D01*
X123434Y195890D01*
X123442Y195886D01*
X123628Y195834D01*
X123812Y195781D01*
X123821Y195781D01*
X123830Y195778D01*
X124023Y195764D01*
X124214Y195748D01*
X124222Y195749D01*
X124231Y195749D01*
X124424Y195773D01*
X124613Y195795D01*
X124622Y195798D01*
X124631Y195799D01*
X124813Y195860D01*
X124996Y195920D01*
X125004Y195925D01*
X125012Y195927D01*
X125179Y196024D01*
X125347Y196118D01*
X125354Y196124D01*
X125361Y196128D01*
X125614Y196343D01*
X158329Y229058D01*
X158343Y229075D01*
X158360Y229090D01*
X158471Y229231D01*
X158584Y229370D01*
X158595Y229389D01*
X158609Y229407D01*
X158689Y229567D01*
X158773Y229725D01*
X158779Y229747D01*
X158789Y229767D01*
X158837Y229940D01*
X158888Y230111D01*
X158890Y230134D01*
X158896Y230155D01*
X158908Y230333D01*
X158924Y230512D01*
X158922Y230535D01*
X158923Y230557D01*
X158900Y230733D01*
X158881Y230912D01*
X158874Y230934D01*
X158871Y230956D01*
X158777Y231248D01*
X158777Y233567D01*
X159662Y235704D01*
X161298Y237340D01*
X161861Y237573D01*
X161862Y237573D01*
X163435Y238225D01*
X165749Y238225D01*
X167886Y237340D01*
X169522Y235704D01*
X170407Y233567D01*
X170407Y231253D01*
X169457Y228961D01*
X169398Y228841D01*
X169316Y228687D01*
X169308Y228662D01*
X169296Y228638D01*
X169251Y228468D01*
X169201Y228301D01*
X169199Y228275D01*
X169192Y228249D01*
X169167Y227951D01*
X168469Y226264D01*
X122516Y180311D01*
X122499Y180290D01*
X122478Y180273D01*
X122371Y180135D01*
X122261Y179999D01*
X122248Y179976D01*
X122232Y179955D01*
X122154Y179798D01*
X122072Y179644D01*
X122064Y179618D01*
X122052Y179594D01*
X122007Y179425D01*
X121957Y179258D01*
X121955Y179231D01*
X121948Y179205D01*
X121921Y178875D01*
X121921Y54356D01*
X121923Y54338D01*
X121921Y54320D01*
X121942Y54138D01*
X121961Y53955D01*
X121966Y53938D01*
X121968Y53921D01*
X122025Y53746D01*
X122079Y53570D01*
X122087Y53555D01*
X122093Y53538D01*
X122183Y53378D01*
X122271Y53216D01*
X122282Y53203D01*
X122291Y53187D01*
X122411Y53048D01*
X122528Y52907D01*
X122542Y52896D01*
X122554Y52882D01*
X122699Y52770D01*
X122842Y52655D01*
X122858Y52647D01*
X122872Y52636D01*
X123037Y52554D01*
X123199Y52469D01*
X123216Y52464D01*
X123232Y52456D01*
X123411Y52409D01*
X123586Y52358D01*
X123604Y52356D01*
X123621Y52352D01*
X123952Y52325D01*
X125191Y52325D01*
X125222Y52328D01*
X125253Y52326D01*
X125423Y52348D01*
X125592Y52365D01*
X125622Y52374D01*
X125653Y52378D01*
X125969Y52479D01*
X127367Y53059D01*
X129681Y53059D01*
X131079Y52479D01*
X131109Y52470D01*
X131137Y52456D01*
X131302Y52412D01*
X131465Y52363D01*
X131496Y52360D01*
X131526Y52352D01*
X131857Y52325D01*
X138256Y52325D01*
X138283Y52327D01*
X138309Y52325D01*
X138483Y52347D01*
X138657Y52365D01*
X138682Y52372D01*
X138709Y52376D01*
X138874Y52431D01*
X139042Y52483D01*
X139065Y52496D01*
X139091Y52504D01*
X139242Y52591D01*
X139260Y52601D01*
X141591Y53567D01*
X143905Y53567D01*
X146197Y52617D01*
X146316Y52558D01*
X146470Y52476D01*
X146496Y52469D01*
X146520Y52456D01*
X146689Y52411D01*
X146856Y52361D01*
X146883Y52359D01*
X146909Y52352D01*
X147240Y52325D01*
X285555Y52325D01*
X285581Y52327D01*
X285608Y52325D01*
X285782Y52347D01*
X285955Y52365D01*
X285981Y52372D01*
X286007Y52376D01*
X286173Y52431D01*
X286340Y52483D01*
X286364Y52496D01*
X286389Y52504D01*
X286541Y52591D01*
X286694Y52675D01*
X286715Y52692D01*
X286738Y52705D01*
X286991Y52920D01*
X361890Y127819D01*
X361907Y127840D01*
X361928Y127857D01*
X362035Y127995D01*
X362145Y128131D01*
X362158Y128154D01*
X362174Y128175D01*
X362252Y128332D01*
X362334Y128486D01*
X362342Y128512D01*
X362354Y128536D01*
X362399Y128705D01*
X362449Y128872D01*
X362451Y128899D01*
X362458Y128925D01*
X362485Y129255D01*
X362485Y257382D01*
X362483Y257409D01*
X362485Y257435D01*
X362463Y257609D01*
X362445Y257783D01*
X362438Y257808D01*
X362434Y257835D01*
X362379Y258000D01*
X362327Y258168D01*
X362314Y258191D01*
X362306Y258217D01*
X362219Y258368D01*
X362209Y258386D01*
X361243Y260717D01*
X361243Y263031D01*
X362193Y265323D01*
X362252Y265443D01*
X362334Y265597D01*
X362342Y265622D01*
X362354Y265646D01*
X362399Y265816D01*
X362449Y265983D01*
X362451Y266009D01*
X362458Y266035D01*
X362485Y266366D01*
X362485Y424484D01*
X362483Y424511D01*
X362485Y424538D01*
X362463Y424711D01*
X362445Y424885D01*
X362437Y424911D01*
X362434Y424938D01*
X362378Y425103D01*
X362327Y425270D01*
X362314Y425293D01*
X362306Y425319D01*
X362218Y425470D01*
X362209Y425488D01*
X361243Y427819D01*
X361243Y430133D01*
X362193Y432425D01*
X362252Y432544D01*
X362334Y432698D01*
X362341Y432724D01*
X362354Y432748D01*
X362399Y432917D01*
X362449Y433084D01*
X362451Y433111D01*
X362458Y433137D01*
X362485Y433468D01*
X362485Y749380D01*
X362483Y749407D01*
X362485Y749434D01*
X362463Y749607D01*
X362445Y749781D01*
X362437Y749807D01*
X362434Y749834D01*
X362378Y749999D01*
X362327Y750166D01*
X362314Y750189D01*
X362306Y750215D01*
X362218Y750366D01*
X362209Y750384D01*
X361243Y752715D01*
X361243Y755029D01*
X362193Y757321D01*
X362252Y757440D01*
X362334Y757594D01*
X362341Y757620D01*
X362354Y757644D01*
X362399Y757813D01*
X362449Y757980D01*
X362451Y758007D01*
X362458Y758033D01*
X362485Y758364D01*
X362485Y970106D01*
X362483Y970133D01*
X362485Y970160D01*
X362463Y970333D01*
X362445Y970507D01*
X362437Y970533D01*
X362434Y970560D01*
X362378Y970725D01*
X362327Y970892D01*
X362314Y970915D01*
X362306Y970941D01*
X362218Y971092D01*
X362209Y971110D01*
X361243Y973441D01*
X361243Y975755D01*
X362193Y978047D01*
X362252Y978166D01*
X362334Y978320D01*
X362341Y978346D01*
X362354Y978370D01*
X362399Y978539D01*
X362449Y978706D01*
X362451Y978733D01*
X362458Y978759D01*
X362485Y979090D01*
X362485Y1085930D01*
X362483Y1085957D01*
X362485Y1085984D01*
X362463Y1086157D01*
X362445Y1086331D01*
X362437Y1086357D01*
X362434Y1086384D01*
X362378Y1086549D01*
X362327Y1086716D01*
X362314Y1086739D01*
X362306Y1086765D01*
X362218Y1086916D01*
X362209Y1086934D01*
X361243Y1089265D01*
X361243Y1091579D01*
X362193Y1093871D01*
X362252Y1093990D01*
X362334Y1094144D01*
X362341Y1094170D01*
X362354Y1094194D01*
X362399Y1094363D01*
X362449Y1094530D01*
X362451Y1094557D01*
X362458Y1094583D01*
X362485Y1094914D01*
X362485Y1209882D01*
X362483Y1209909D01*
X362485Y1209935D01*
X362463Y1210109D01*
X362445Y1210283D01*
X362438Y1210308D01*
X362434Y1210335D01*
X362379Y1210500D01*
X362327Y1210668D01*
X362314Y1210691D01*
X362306Y1210717D01*
X362219Y1210868D01*
X362209Y1210886D01*
X361243Y1213217D01*
X361243Y1215531D01*
X362193Y1217823D01*
X362252Y1217943D01*
X362334Y1218097D01*
X362342Y1218122D01*
X362354Y1218146D01*
X362399Y1218316D01*
X362449Y1218483D01*
X362451Y1218509D01*
X362458Y1218535D01*
X362485Y1218866D01*
X362485Y1262460D01*
X362483Y1262487D01*
X362485Y1262513D01*
X362463Y1262687D01*
X362445Y1262861D01*
X362438Y1262886D01*
X362434Y1262913D01*
X362379Y1263078D01*
X362327Y1263246D01*
X362314Y1263269D01*
X362306Y1263295D01*
X362219Y1263446D01*
X362209Y1263464D01*
X361243Y1265795D01*
X361243Y1268109D01*
X362193Y1270401D01*
X362252Y1270521D01*
X362334Y1270675D01*
X362342Y1270700D01*
X362354Y1270724D01*
X362399Y1270894D01*
X362449Y1271061D01*
X362451Y1271087D01*
X362458Y1271113D01*
X362485Y1271444D01*
X362485Y1353089D01*
X362483Y1353115D01*
X362485Y1353142D01*
X362463Y1353316D01*
X362445Y1353489D01*
X362438Y1353515D01*
X362434Y1353541D01*
X362379Y1353707D01*
X362327Y1353874D01*
X362314Y1353898D01*
X362306Y1353923D01*
X362219Y1354075D01*
X362135Y1354228D01*
X362118Y1354249D01*
X362105Y1354272D01*
X361890Y1354525D01*
X337537Y1378878D01*
X337516Y1378895D01*
X337499Y1378916D01*
X337361Y1379023D01*
X337225Y1379133D01*
X337202Y1379146D01*
X337181Y1379162D01*
X337024Y1379240D01*
X336870Y1379322D01*
X336844Y1379330D01*
X336820Y1379342D01*
X336651Y1379387D01*
X336484Y1379437D01*
X336457Y1379439D01*
X336431Y1379446D01*
X336101Y1379473D01*
X288718Y1379473D01*
X288691Y1379471D01*
X288665Y1379473D01*
X288491Y1379451D01*
X288317Y1379433D01*
X288292Y1379426D01*
X288265Y1379422D01*
X288100Y1379367D01*
X287932Y1379315D01*
X287909Y1379302D01*
X287883Y1379294D01*
X287732Y1379207D01*
X287578Y1379123D01*
X287558Y1379106D01*
X287535Y1379093D01*
X287282Y1378878D01*
X286504Y1378100D01*
X284367Y1377215D01*
X282053Y1377215D01*
X279916Y1378100D01*
X278280Y1379736D01*
X277395Y1381873D01*
X277395Y1384187D01*
X277512Y1384468D01*
X277516Y1384482D01*
X277522Y1384494D01*
X277574Y1384673D01*
X277628Y1384854D01*
X277630Y1384868D01*
X277634Y1384881D01*
X277649Y1385067D01*
X277666Y1385254D01*
X277665Y1385268D01*
X277666Y1385282D01*
X277644Y1385469D01*
X277625Y1385655D01*
X277621Y1385668D01*
X277619Y1385682D01*
X277561Y1385860D01*
X277505Y1386039D01*
X277498Y1386052D01*
X277494Y1386065D01*
X277402Y1386228D01*
X277312Y1386392D01*
X277303Y1386403D01*
X277296Y1386415D01*
X277173Y1386557D01*
X277053Y1386700D01*
X277042Y1386709D01*
X277032Y1386720D01*
X276884Y1386835D01*
X276738Y1386951D01*
X276725Y1386958D01*
X276714Y1386966D01*
X276546Y1387050D01*
X276380Y1387135D01*
X276366Y1387139D01*
X276353Y1387145D01*
X276171Y1387194D01*
X275992Y1387245D01*
X275978Y1387246D01*
X275965Y1387250D01*
X275634Y1387277D01*
X10669Y1387101D01*
X10652Y1387100D01*
X10634Y1387101D01*
X10451Y1387080D01*
X10268Y1387061D01*
X10252Y1387056D01*
X10234Y1387054D01*
X10059Y1386997D01*
X9883Y1386943D01*
X9868Y1386935D01*
X9852Y1386929D01*
X9691Y1386839D01*
X9530Y1386751D01*
X9516Y1386740D01*
X9501Y1386731D01*
X9361Y1386610D01*
X9220Y1386493D01*
X9210Y1386479D01*
X9196Y1386468D01*
X9083Y1386322D01*
X8968Y1386179D01*
X8960Y1386164D01*
X8950Y1386150D01*
X8867Y1385984D01*
X8783Y1385821D01*
X8778Y1385805D01*
X8771Y1385789D01*
X8722Y1385610D01*
X8672Y1385435D01*
X8671Y1385417D01*
X8666Y1385400D01*
X8639Y1385070D01*
X8888Y11946D01*
X8890Y11927D01*
X8889Y11909D01*
X8910Y11727D01*
X8928Y11545D01*
X8934Y11528D01*
X8936Y11509D01*
X8993Y11335D01*
X9047Y11160D01*
X9055Y11144D01*
X9061Y11127D01*
X9151Y10968D01*
X9238Y10806D01*
X9250Y10792D01*
X9259Y10776D01*
X9378Y10639D01*
X9496Y10497D01*
X9511Y10485D01*
X9523Y10472D01*
X9666Y10360D01*
X9810Y10245D01*
X9826Y10236D01*
X9841Y10225D01*
X10004Y10144D01*
X10167Y10059D01*
X10185Y10054D01*
X10201Y10046D01*
X10378Y9999D01*
X10554Y9948D01*
X10573Y9946D01*
X10590Y9942D01*
X10921Y9915D01*
X30113Y9928D01*
G37*
G36*
X79578Y32064D02*
X79578Y32064D01*
X79636Y32062D01*
X79718Y32084D01*
X79801Y32095D01*
X79855Y32119D01*
X79911Y32134D01*
X79984Y32177D01*
X80061Y32212D01*
X80105Y32250D01*
X80156Y32279D01*
X80213Y32341D01*
X80278Y32395D01*
X80310Y32444D01*
X80350Y32487D01*
X80388Y32562D01*
X80435Y32632D01*
X80453Y32688D01*
X80479Y32740D01*
X80491Y32808D01*
X80521Y32903D01*
X80524Y33003D01*
X80535Y33071D01*
X80535Y52096D01*
X82674Y52096D01*
X82740Y52105D01*
X82807Y52104D01*
X82881Y52125D01*
X82956Y52135D01*
X83017Y52163D01*
X83081Y52181D01*
X83146Y52221D01*
X83215Y52252D01*
X83266Y52295D01*
X83323Y52330D01*
X83374Y52386D01*
X83432Y52435D01*
X83469Y52491D01*
X83514Y52540D01*
X83548Y52609D01*
X83590Y52672D01*
X83610Y52736D01*
X83640Y52795D01*
X83649Y52859D01*
X83676Y52943D01*
X83679Y53055D01*
X83690Y53127D01*
X83548Y61767D01*
X83540Y61816D01*
X83541Y61866D01*
X83518Y61956D01*
X83504Y62047D01*
X83482Y62093D01*
X83470Y62141D01*
X83422Y62221D01*
X83383Y62305D01*
X83350Y62343D01*
X83324Y62386D01*
X83257Y62449D01*
X83196Y62519D01*
X83154Y62546D01*
X83117Y62580D01*
X83035Y62623D01*
X82957Y62673D01*
X82909Y62687D01*
X82864Y62710D01*
X82791Y62722D01*
X82684Y62754D01*
X82596Y62755D01*
X82533Y62765D01*
X82155Y62765D01*
X80018Y63651D01*
X78383Y65286D01*
X77497Y67423D01*
X77497Y69737D01*
X78383Y71874D01*
X79578Y73069D01*
X79613Y73116D01*
X79655Y73156D01*
X79698Y73229D01*
X79749Y73296D01*
X79770Y73351D01*
X79799Y73401D01*
X79820Y73483D01*
X79850Y73562D01*
X79855Y73620D01*
X79869Y73677D01*
X79867Y73761D01*
X79874Y73845D01*
X79862Y73903D01*
X79860Y73961D01*
X79834Y74041D01*
X79818Y74124D01*
X79791Y74176D01*
X79773Y74232D01*
X79733Y74288D01*
X79687Y74376D01*
X79618Y74449D01*
X79578Y74505D01*
X78129Y75954D01*
X77243Y78091D01*
X77243Y80405D01*
X78129Y82542D01*
X79578Y83991D01*
X79613Y84038D01*
X79655Y84078D01*
X79698Y84151D01*
X79749Y84218D01*
X79770Y84273D01*
X79799Y84323D01*
X79820Y84405D01*
X79850Y84484D01*
X79855Y84542D01*
X79869Y84599D01*
X79867Y84683D01*
X79874Y84767D01*
X79862Y84825D01*
X79860Y84883D01*
X79834Y84963D01*
X79818Y85046D01*
X79791Y85098D01*
X79773Y85154D01*
X79733Y85210D01*
X79687Y85298D01*
X79618Y85371D01*
X79578Y85427D01*
X77875Y87130D01*
X76989Y89267D01*
X76989Y91581D01*
X77875Y93718D01*
X79510Y95353D01*
X81647Y96239D01*
X83961Y96239D01*
X86098Y95353D01*
X87733Y93718D01*
X88619Y91581D01*
X88619Y89662D01*
X88627Y89604D01*
X88625Y89546D01*
X88647Y89464D01*
X88659Y89381D01*
X88682Y89327D01*
X88697Y89271D01*
X88740Y89198D01*
X88775Y89121D01*
X88813Y89076D01*
X88842Y89026D01*
X88904Y88968D01*
X88958Y88904D01*
X89007Y88872D01*
X89050Y88832D01*
X89125Y88793D01*
X89195Y88747D01*
X89251Y88729D01*
X89303Y88702D01*
X89371Y88691D01*
X89466Y88661D01*
X89566Y88658D01*
X89634Y88647D01*
X100988Y88647D01*
X101046Y88655D01*
X101104Y88653D01*
X101186Y88675D01*
X101269Y88687D01*
X101323Y88711D01*
X101379Y88725D01*
X101452Y88768D01*
X101529Y88803D01*
X101573Y88841D01*
X101624Y88871D01*
X101681Y88932D01*
X101746Y88987D01*
X101778Y89035D01*
X101818Y89078D01*
X101856Y89153D01*
X101903Y89223D01*
X101921Y89279D01*
X101947Y89331D01*
X101959Y89399D01*
X101989Y89494D01*
X101992Y89594D01*
X102003Y89662D01*
X102003Y90571D01*
X101995Y90629D01*
X101996Y90687D01*
X101975Y90769D01*
X101963Y90852D01*
X101939Y90906D01*
X101924Y90962D01*
X101881Y91035D01*
X101847Y91112D01*
X101809Y91156D01*
X101779Y91207D01*
X101718Y91264D01*
X101663Y91329D01*
X101615Y91361D01*
X101572Y91401D01*
X101497Y91439D01*
X101427Y91486D01*
X101371Y91504D01*
X101319Y91530D01*
X101251Y91542D01*
X101156Y91572D01*
X101056Y91575D01*
X100988Y91586D01*
X91963Y91586D01*
X91963Y106889D01*
X92136Y107536D01*
X92471Y108115D01*
X92604Y108248D01*
X92622Y108272D01*
X92644Y108291D01*
X92707Y108385D01*
X92775Y108475D01*
X92785Y108503D01*
X92802Y108527D01*
X92836Y108635D01*
X92876Y108741D01*
X92879Y108770D01*
X92887Y108798D01*
X92890Y108912D01*
X92900Y109024D01*
X92894Y109053D01*
X92895Y109082D01*
X92866Y109192D01*
X92844Y109303D01*
X92830Y109329D01*
X92823Y109357D01*
X92765Y109455D01*
X92713Y109555D01*
X92693Y109577D01*
X92678Y109602D01*
X92595Y109679D01*
X92517Y109761D01*
X92492Y109776D01*
X92470Y109796D01*
X92369Y109848D01*
X92272Y109905D01*
X92243Y109912D01*
X92217Y109926D01*
X92140Y109939D01*
X91996Y109975D01*
X91934Y109973D01*
X91886Y109981D01*
X87629Y109981D01*
X87629Y122174D01*
X87617Y122261D01*
X87614Y122348D01*
X87597Y122401D01*
X87589Y122456D01*
X87554Y122535D01*
X87527Y122619D01*
X87499Y122658D01*
X87473Y122715D01*
X87377Y122828D01*
X87332Y122892D01*
X43884Y166339D01*
X43810Y166395D01*
X43742Y166458D01*
X43697Y166480D01*
X43657Y166510D01*
X43571Y166543D01*
X43487Y166585D01*
X43444Y166592D01*
X43392Y166612D01*
X43231Y166625D01*
X43156Y166637D01*
X26405Y166457D01*
X26353Y166449D01*
X26300Y166450D01*
X26213Y166427D01*
X26124Y166414D01*
X26076Y166392D01*
X26025Y166378D01*
X25948Y166332D01*
X25866Y166295D01*
X25826Y166260D01*
X25780Y166233D01*
X25719Y166167D01*
X25651Y166109D01*
X25622Y166064D01*
X25586Y166026D01*
X25545Y165946D01*
X25496Y165870D01*
X25480Y165820D01*
X25456Y165772D01*
X25444Y165701D01*
X25413Y165598D01*
X25412Y165506D01*
X25401Y165441D01*
X25401Y122051D01*
X25413Y121964D01*
X25416Y121877D01*
X25433Y121824D01*
X25441Y121770D01*
X25476Y121690D01*
X25503Y121606D01*
X25531Y121567D01*
X25557Y121510D01*
X25653Y121397D01*
X25698Y121333D01*
X26869Y120163D01*
X26869Y110111D01*
X26877Y110053D01*
X26875Y109994D01*
X26897Y109913D01*
X26909Y109829D01*
X26932Y109776D01*
X26947Y109719D01*
X26990Y109647D01*
X27025Y109570D01*
X27063Y109525D01*
X27092Y109475D01*
X27154Y109417D01*
X27208Y109353D01*
X27257Y109320D01*
X27300Y109280D01*
X27375Y109242D01*
X27445Y109195D01*
X27501Y109178D01*
X27553Y109151D01*
X27621Y109140D01*
X27716Y109110D01*
X27816Y109107D01*
X27884Y109096D01*
X32973Y109096D01*
X32973Y90571D01*
X32981Y90513D01*
X32979Y90455D01*
X33001Y90373D01*
X33012Y90289D01*
X33036Y90236D01*
X33051Y90180D01*
X33094Y90107D01*
X33129Y90030D01*
X33166Y89985D01*
X33196Y89935D01*
X33258Y89877D01*
X33312Y89813D01*
X33361Y89781D01*
X33404Y89741D01*
X33479Y89702D01*
X33549Y89655D01*
X33605Y89638D01*
X33657Y89611D01*
X33725Y89600D01*
X33820Y89570D01*
X33920Y89567D01*
X33988Y89556D01*
X35005Y89556D01*
X35005Y89554D01*
X33988Y89554D01*
X33930Y89546D01*
X33872Y89547D01*
X33790Y89526D01*
X33706Y89514D01*
X33653Y89490D01*
X33596Y89475D01*
X33524Y89432D01*
X33447Y89398D01*
X33402Y89360D01*
X33352Y89330D01*
X33294Y89269D01*
X33230Y89214D01*
X33198Y89166D01*
X33158Y89123D01*
X33119Y89048D01*
X33072Y88978D01*
X33055Y88922D01*
X33028Y88870D01*
X33017Y88802D01*
X32987Y88707D01*
X32984Y88607D01*
X32973Y88539D01*
X32973Y70014D01*
X27884Y70014D01*
X27826Y70006D01*
X27768Y70007D01*
X27686Y69986D01*
X27602Y69974D01*
X27549Y69950D01*
X27493Y69936D01*
X27420Y69893D01*
X27343Y69858D01*
X27298Y69820D01*
X27248Y69790D01*
X27190Y69729D01*
X27126Y69674D01*
X27094Y69626D01*
X27054Y69583D01*
X27015Y69508D01*
X26968Y69438D01*
X26951Y69382D01*
X26924Y69330D01*
X26913Y69262D01*
X26883Y69167D01*
X26880Y69067D01*
X26869Y68999D01*
X26869Y67564D01*
X26876Y67510D01*
X26875Y67473D01*
X26876Y67471D01*
X26875Y67448D01*
X26897Y67366D01*
X26909Y67283D01*
X26932Y67229D01*
X26947Y67173D01*
X26990Y67100D01*
X27025Y67023D01*
X27063Y66978D01*
X27092Y66928D01*
X27154Y66870D01*
X27208Y66806D01*
X27257Y66774D01*
X27300Y66734D01*
X27375Y66695D01*
X27445Y66649D01*
X27501Y66631D01*
X27553Y66604D01*
X27621Y66593D01*
X27716Y66563D01*
X27816Y66560D01*
X27884Y66549D01*
X66636Y66549D01*
X72899Y60286D01*
X72899Y53111D01*
X72907Y53053D01*
X72905Y52994D01*
X72927Y52913D01*
X72939Y52829D01*
X72963Y52776D01*
X72977Y52719D01*
X73020Y52647D01*
X73055Y52570D01*
X73093Y52525D01*
X73123Y52475D01*
X73184Y52417D01*
X73239Y52353D01*
X73287Y52320D01*
X73330Y52280D01*
X73405Y52242D01*
X73475Y52195D01*
X73531Y52178D01*
X73583Y52151D01*
X73651Y52140D01*
X73746Y52110D01*
X73846Y52107D01*
X73914Y52096D01*
X76473Y52096D01*
X76473Y33071D01*
X76481Y33013D01*
X76479Y32955D01*
X76501Y32873D01*
X76512Y32789D01*
X76536Y32736D01*
X76551Y32680D01*
X76594Y32607D01*
X76629Y32530D01*
X76666Y32485D01*
X76696Y32435D01*
X76758Y32377D01*
X76812Y32313D01*
X76861Y32281D01*
X76904Y32241D01*
X76979Y32202D01*
X77049Y32155D01*
X77105Y32138D01*
X77157Y32111D01*
X77225Y32100D01*
X77320Y32070D01*
X77420Y32067D01*
X77488Y32056D01*
X79520Y32056D01*
X79578Y32064D01*
G37*
G36*
X52621Y10622D02*
X52621Y10622D01*
X52645Y10619D01*
X52742Y10642D01*
X52840Y10658D01*
X52862Y10669D01*
X52885Y10674D01*
X52970Y10726D01*
X53058Y10773D01*
X53074Y10790D01*
X53095Y10803D01*
X53159Y10879D01*
X53227Y10951D01*
X53237Y10973D01*
X53253Y10991D01*
X53289Y11084D01*
X53331Y11174D01*
X53333Y11198D01*
X53342Y11221D01*
X53347Y11320D01*
X53358Y11419D01*
X53353Y11442D01*
X53354Y11466D01*
X53327Y11562D01*
X53306Y11659D01*
X53293Y11680D01*
X53287Y11703D01*
X53230Y11785D01*
X53179Y11870D01*
X53161Y11886D01*
X53147Y11906D01*
X53068Y11965D01*
X52992Y12030D01*
X52970Y12039D01*
X52951Y12053D01*
X52795Y12114D01*
X52523Y12187D01*
X51944Y12522D01*
X51471Y12995D01*
X51136Y13574D01*
X50963Y14220D01*
X50963Y30532D01*
X57742Y30532D01*
X57761Y30535D01*
X57781Y30533D01*
X57882Y30555D01*
X57984Y30571D01*
X58002Y30581D01*
X58022Y30585D01*
X58111Y30638D01*
X58202Y30686D01*
X58216Y30701D01*
X58233Y30711D01*
X58300Y30790D01*
X58371Y30865D01*
X58380Y30883D01*
X58393Y30898D01*
X58431Y30994D01*
X58475Y31088D01*
X58477Y31108D01*
X58484Y31126D01*
X58503Y31293D01*
X58503Y32056D01*
X58505Y32056D01*
X58505Y31293D01*
X58508Y31273D01*
X58506Y31253D01*
X58528Y31152D01*
X58544Y31050D01*
X58554Y31033D01*
X58558Y31013D01*
X58611Y30924D01*
X58659Y30833D01*
X58674Y30819D01*
X58684Y30802D01*
X58763Y30735D01*
X58838Y30663D01*
X58856Y30655D01*
X58871Y30642D01*
X58967Y30603D01*
X59061Y30560D01*
X59081Y30558D01*
X59099Y30550D01*
X59266Y30532D01*
X66045Y30532D01*
X66045Y14220D01*
X65871Y13574D01*
X65537Y12995D01*
X65064Y12522D01*
X64485Y12187D01*
X64213Y12115D01*
X64191Y12105D01*
X64167Y12101D01*
X64079Y12054D01*
X63989Y12013D01*
X63971Y11997D01*
X63950Y11986D01*
X63881Y11913D01*
X63809Y11846D01*
X63797Y11825D01*
X63781Y11807D01*
X63739Y11717D01*
X63691Y11630D01*
X63687Y11606D01*
X63677Y11584D01*
X63666Y11486D01*
X63649Y11388D01*
X63652Y11364D01*
X63650Y11340D01*
X63671Y11243D01*
X63686Y11144D01*
X63697Y11123D01*
X63702Y11099D01*
X63753Y11014D01*
X63799Y10926D01*
X63816Y10909D01*
X63828Y10888D01*
X63904Y10824D01*
X63975Y10754D01*
X63997Y10744D01*
X64015Y10728D01*
X64107Y10691D01*
X64197Y10648D01*
X64221Y10645D01*
X64243Y10636D01*
X64410Y10618D01*
X67031Y10618D01*
X67050Y10621D01*
X67070Y10619D01*
X67171Y10641D01*
X67273Y10658D01*
X67291Y10667D01*
X67310Y10671D01*
X67399Y10724D01*
X67491Y10773D01*
X67504Y10787D01*
X67522Y10797D01*
X67589Y10876D01*
X67660Y10951D01*
X67668Y10969D01*
X67681Y10984D01*
X67720Y11081D01*
X67764Y11174D01*
X67766Y11194D01*
X67773Y11212D01*
X67792Y11379D01*
X67792Y60655D01*
X67789Y60675D01*
X67791Y60695D01*
X67769Y60796D01*
X67752Y60898D01*
X67743Y60916D01*
X67739Y60935D01*
X67685Y61024D01*
X67637Y61115D01*
X67623Y61129D01*
X67612Y61146D01*
X67534Y61213D01*
X67459Y61285D01*
X67441Y61293D01*
X67425Y61306D01*
X67329Y61345D01*
X67236Y61388D01*
X67216Y61391D01*
X67197Y61398D01*
X67081Y61411D01*
X67069Y61414D01*
X67061Y61413D01*
X67031Y61416D01*
X67005Y61416D01*
X66996Y61415D01*
X66991Y61415D01*
X66967Y61410D01*
X66915Y61402D01*
X66824Y61395D01*
X66794Y61382D01*
X66762Y61377D01*
X66682Y61334D01*
X66598Y61298D01*
X66566Y61273D01*
X66545Y61262D01*
X66523Y61238D01*
X66467Y61193D01*
X66182Y60908D01*
X42164Y60908D01*
X42144Y60905D01*
X42125Y60907D01*
X42023Y60885D01*
X41921Y60869D01*
X41904Y60859D01*
X41884Y60855D01*
X41795Y60802D01*
X41704Y60754D01*
X41690Y60739D01*
X41673Y60729D01*
X41606Y60650D01*
X41534Y60575D01*
X41526Y60557D01*
X41513Y60542D01*
X41474Y60446D01*
X41431Y60352D01*
X41429Y60332D01*
X41421Y60314D01*
X41403Y60147D01*
X41403Y55256D01*
X41344Y55197D01*
X41291Y55123D01*
X41231Y55053D01*
X41219Y55023D01*
X41200Y54997D01*
X41173Y54910D01*
X41139Y54825D01*
X41135Y54784D01*
X41128Y54762D01*
X41129Y54730D01*
X41121Y54659D01*
X41121Y54469D01*
X40235Y52332D01*
X38600Y50697D01*
X36463Y49811D01*
X34149Y49811D01*
X32012Y50697D01*
X30377Y52332D01*
X29491Y54469D01*
X29491Y56783D01*
X30377Y58920D01*
X31066Y59609D01*
X31107Y59667D01*
X31157Y59719D01*
X31179Y59766D01*
X31209Y59809D01*
X31230Y59877D01*
X31260Y59942D01*
X31266Y59994D01*
X31282Y60044D01*
X31280Y60115D01*
X31288Y60187D01*
X31276Y60238D01*
X31275Y60290D01*
X31251Y60357D01*
X31235Y60427D01*
X31209Y60472D01*
X31191Y60521D01*
X31146Y60577D01*
X31109Y60638D01*
X31070Y60672D01*
X31037Y60713D01*
X30977Y60751D01*
X30922Y60798D01*
X30874Y60818D01*
X30830Y60846D01*
X30761Y60863D01*
X30694Y60890D01*
X30623Y60898D01*
X30592Y60906D01*
X30568Y60904D01*
X30527Y60908D01*
X27483Y60908D01*
X27463Y60905D01*
X27443Y60907D01*
X27342Y60885D01*
X27240Y60869D01*
X27223Y60859D01*
X27203Y60855D01*
X27114Y60802D01*
X27023Y60754D01*
X27009Y60739D01*
X26992Y60729D01*
X26925Y60650D01*
X26853Y60575D01*
X26845Y60557D01*
X26832Y60542D01*
X26793Y60446D01*
X26750Y60352D01*
X26748Y60332D01*
X26740Y60314D01*
X26722Y60147D01*
X26722Y21412D01*
X26736Y21322D01*
X26743Y21231D01*
X26756Y21201D01*
X26761Y21169D01*
X26804Y21089D01*
X26840Y21005D01*
X26865Y20973D01*
X26876Y20952D01*
X26900Y20930D01*
X26945Y20874D01*
X36978Y10841D01*
X37051Y10788D01*
X37121Y10728D01*
X37151Y10716D01*
X37177Y10697D01*
X37264Y10671D01*
X37349Y10636D01*
X37390Y10632D01*
X37412Y10625D01*
X37445Y10626D01*
X37516Y10618D01*
X52598Y10618D01*
X52621Y10622D01*
G37*
%LPC*%
G36*
X93585Y682779D02*
X93585Y682779D01*
X91448Y683664D01*
X89812Y685300D01*
X88927Y687437D01*
X88927Y689751D01*
X89812Y691888D01*
X91098Y693174D01*
X91115Y693194D01*
X91136Y693212D01*
X91243Y693350D01*
X91353Y693485D01*
X91366Y693509D01*
X91382Y693530D01*
X91460Y693687D01*
X91542Y693841D01*
X91550Y693866D01*
X91562Y693890D01*
X91607Y694060D01*
X91657Y694227D01*
X91659Y694253D01*
X91666Y694279D01*
X91693Y694610D01*
X91693Y775598D01*
X91691Y775620D01*
X91693Y775643D01*
X91671Y775820D01*
X91653Y775999D01*
X91647Y776020D01*
X91644Y776042D01*
X91588Y776212D01*
X91535Y776384D01*
X91525Y776403D01*
X91518Y776424D01*
X91429Y776580D01*
X91343Y776738D01*
X91329Y776755D01*
X91318Y776774D01*
X91200Y776910D01*
X91086Y777047D01*
X91068Y777061D01*
X91054Y777078D01*
X90912Y777187D01*
X90772Y777299D01*
X90752Y777310D01*
X90734Y777323D01*
X90439Y777475D01*
X89416Y777898D01*
X87780Y779534D01*
X86895Y781671D01*
X86895Y783985D01*
X87780Y786122D01*
X89416Y787758D01*
X91553Y788643D01*
X93867Y788643D01*
X96004Y787758D01*
X97640Y786122D01*
X98525Y783985D01*
X98525Y781671D01*
X97945Y780273D01*
X97936Y780243D01*
X97922Y780215D01*
X97878Y780050D01*
X97829Y779887D01*
X97826Y779856D01*
X97818Y779826D01*
X97791Y779495D01*
X97791Y694610D01*
X97793Y694583D01*
X97791Y694557D01*
X97813Y694383D01*
X97831Y694209D01*
X97838Y694184D01*
X97842Y694157D01*
X97897Y693992D01*
X97949Y693824D01*
X97962Y693801D01*
X97970Y693775D01*
X98057Y693624D01*
X98141Y693470D01*
X98158Y693450D01*
X98171Y693427D01*
X98386Y693174D01*
X99672Y691888D01*
X100557Y689751D01*
X100557Y687437D01*
X99672Y685300D01*
X98036Y683664D01*
X95899Y682779D01*
X93585Y682779D01*
G37*
%LPD*%
%LPC*%
G36*
X182992Y370331D02*
X182992Y370331D01*
X179444Y371801D01*
X176729Y374516D01*
X175259Y378064D01*
X175259Y397144D01*
X176729Y400692D01*
X179444Y403407D01*
X181202Y404135D01*
X182992Y404877D01*
X186832Y404877D01*
X190380Y403407D01*
X193095Y400692D01*
X194565Y397144D01*
X194565Y378064D01*
X193095Y374516D01*
X190380Y371801D01*
X186832Y370331D01*
X182992Y370331D01*
G37*
%LPD*%
%LPC*%
G36*
X151497Y709195D02*
X151497Y709195D01*
X149360Y710080D01*
X147724Y711716D01*
X146839Y713853D01*
X146839Y716167D01*
X147724Y718304D01*
X149360Y719940D01*
X151497Y720825D01*
X153811Y720825D01*
X155948Y719940D01*
X157234Y718654D01*
X157254Y718637D01*
X157272Y718616D01*
X157410Y718509D01*
X157545Y718399D01*
X157569Y718386D01*
X157590Y718370D01*
X157747Y718292D01*
X157901Y718210D01*
X157926Y718202D01*
X157950Y718190D01*
X158120Y718145D01*
X158287Y718095D01*
X158313Y718093D01*
X158339Y718086D01*
X158670Y718059D01*
X200434Y718059D01*
X200452Y718061D01*
X200470Y718059D01*
X200652Y718080D01*
X200835Y718099D01*
X200852Y718104D01*
X200869Y718106D01*
X201044Y718163D01*
X201220Y718217D01*
X201235Y718225D01*
X201252Y718231D01*
X201412Y718321D01*
X201574Y718409D01*
X201587Y718420D01*
X201603Y718429D01*
X201742Y718549D01*
X201883Y718666D01*
X201894Y718680D01*
X201908Y718692D01*
X202020Y718837D01*
X202135Y718980D01*
X202143Y718996D01*
X202154Y719010D01*
X202236Y719175D01*
X202321Y719337D01*
X202326Y719354D01*
X202334Y719370D01*
X202381Y719549D01*
X202432Y719724D01*
X202434Y719742D01*
X202438Y719759D01*
X202465Y720090D01*
X202465Y720739D01*
X203350Y722876D01*
X204986Y724512D01*
X207123Y725397D01*
X209437Y725397D01*
X211574Y724512D01*
X213210Y722876D01*
X214095Y720739D01*
X214095Y718425D01*
X213210Y716288D01*
X211574Y714652D01*
X211448Y714601D01*
X211448Y714600D01*
X209437Y713767D01*
X207618Y713767D01*
X207592Y713765D01*
X207565Y713767D01*
X207391Y713745D01*
X207218Y713727D01*
X207192Y713720D01*
X207165Y713716D01*
X207000Y713661D01*
X206833Y713609D01*
X206809Y713596D01*
X206784Y713588D01*
X206632Y713501D01*
X206479Y713417D01*
X206458Y713400D01*
X206435Y713387D01*
X206182Y713172D01*
X204971Y711961D01*
X158670Y711961D01*
X158643Y711959D01*
X158617Y711961D01*
X158443Y711939D01*
X158269Y711921D01*
X158244Y711914D01*
X158217Y711910D01*
X158052Y711855D01*
X157884Y711803D01*
X157861Y711790D01*
X157835Y711782D01*
X157684Y711695D01*
X157530Y711611D01*
X157510Y711594D01*
X157487Y711581D01*
X157234Y711366D01*
X155948Y710080D01*
X153811Y709195D01*
X151497Y709195D01*
G37*
%LPD*%
%LPC*%
G36*
X37035Y91586D02*
X37035Y91586D01*
X37035Y109096D01*
X42838Y109096D01*
X43485Y108922D01*
X44064Y108588D01*
X44537Y108115D01*
X44871Y107536D01*
X45045Y106889D01*
X45045Y91586D01*
X37035Y91586D01*
G37*
%LPD*%
%LPC*%
G36*
X37035Y70014D02*
X37035Y70014D01*
X37035Y87524D01*
X45045Y87524D01*
X45045Y72220D01*
X44871Y71574D01*
X44537Y70995D01*
X44064Y70522D01*
X43485Y70187D01*
X42838Y70014D01*
X37035Y70014D01*
G37*
%LPD*%
%LPC*%
G36*
X60027Y33578D02*
X60027Y33578D01*
X60027Y52096D01*
X63838Y52096D01*
X64485Y51922D01*
X65064Y51588D01*
X65537Y51115D01*
X65871Y50536D01*
X66045Y49889D01*
X66045Y33578D01*
X60027Y33578D01*
G37*
%LPD*%
%LPC*%
G36*
X50963Y33578D02*
X50963Y33578D01*
X50963Y49889D01*
X51136Y50536D01*
X51471Y51115D01*
X51944Y51588D01*
X52523Y51922D01*
X53169Y52096D01*
X56981Y52096D01*
X56981Y33578D01*
X50963Y33578D01*
G37*
%LPD*%
%LPC*%
G36*
X200151Y390143D02*
X200151Y390143D01*
X200151Y396024D01*
X200401Y397603D01*
X200896Y399124D01*
X201622Y400549D01*
X202562Y401843D01*
X203693Y402974D01*
X204987Y403914D01*
X206412Y404640D01*
X207773Y405083D01*
X207773Y390143D01*
X200151Y390143D01*
G37*
%LPD*%
%LPC*%
G36*
X206412Y370568D02*
X206412Y370568D01*
X204987Y371294D01*
X203693Y372234D01*
X202562Y373365D01*
X201622Y374659D01*
X200896Y376084D01*
X200401Y377605D01*
X200151Y379184D01*
X200151Y385065D01*
X207773Y385065D01*
X207773Y370125D01*
X206412Y370568D01*
G37*
%LPD*%
D10*
X78504Y32055D03*
X58504Y32055D03*
D11*
X102004Y89555D03*
X35004Y89555D03*
D12*
X157754Y25868D02*
X157754Y15788D01*
X223754Y15788D02*
X223754Y25868D01*
D13*
X159512Y379984D02*
X159512Y395224D01*
X184912Y395224D02*
X184912Y379984D01*
X210312Y379984D02*
X210312Y395224D01*
D14*
X222783Y63856D03*
X211455Y63576D03*
X233375Y63373D03*
X83058Y79248D03*
X83312Y68580D03*
X82804Y90424D03*
X13688Y115062D03*
X209296Y100584D03*
X86360Y325882D03*
X86614Y311912D03*
X86360Y299974D03*
X86614Y287274D03*
X86614Y275590D03*
X216916Y189992D03*
X216916Y179324D03*
X333502Y382778D03*
X343154Y376174D03*
X353822Y370078D03*
X353314Y382524D03*
X332994Y369570D03*
X343408Y364236D03*
X128016Y119126D03*
X140970Y119126D03*
X128524Y106680D03*
X140970Y106680D03*
X128270Y94742D03*
X140970Y94996D03*
X91088Y128170D03*
X39370Y199136D03*
X49530Y1373886D03*
X349504Y545338D03*
X152654Y488696D03*
X150837Y623277D03*
X189738Y867156D03*
X40894Y844296D03*
X259842Y1196594D03*
X269494Y1196594D03*
X267970Y1377442D03*
X182626Y1223264D03*
X301498Y716534D03*
X301498Y703834D03*
X301498Y691134D03*
X301498Y678434D03*
X301498Y665734D03*
X332740Y716280D03*
X332740Y703580D03*
X332740Y690880D03*
X332740Y678180D03*
X332740Y665480D03*
X46736Y608838D03*
X46482Y595630D03*
X46482Y582930D03*
X87376Y608584D03*
X87122Y595376D03*
X87122Y582676D03*
X93980Y1229360D03*
X257048Y1061720D03*
X262636Y900684D03*
X333502Y800354D03*
X53086Y726694D03*
X86106Y439166D03*
X302006Y428244D03*
X99568Y1047242D03*
X99060Y1026668D03*
X99060Y1013968D03*
X99060Y1001268D03*
X99060Y988568D03*
X153670Y1044956D03*
X153162Y1024382D03*
X153162Y1011682D03*
X153162Y998982D03*
X153162Y986282D03*
X198374Y1045972D03*
X197866Y1025398D03*
X197866Y1012698D03*
X197866Y999998D03*
X197866Y987298D03*
X153416Y1138936D03*
X152908Y1118362D03*
X152908Y1105662D03*
X152908Y1092962D03*
X152908Y1080262D03*
X196088Y1138682D03*
X195580Y1118108D03*
X195580Y1105408D03*
X195580Y1092708D03*
X195580Y1080008D03*
X147828Y591312D03*
X168402Y590804D03*
X181102Y590804D03*
X193802Y590804D03*
X206502Y590804D03*
X61468Y56642D03*
X36220Y35560D03*
X37287Y25375D03*
X49378Y56464D03*
D15*
X36220Y35966D02*
X22296Y49891D01*
X22296Y118268D01*
X20828Y119736D01*
D14*
X21562Y672592D03*
D15*
X20828Y671858D01*
X20828Y119736D01*
X36220Y35966D02*
X36220Y35560D01*
D14*
X117602Y34544D03*
X128778Y34544D03*
X116332Y47752D03*
X128524Y47244D03*
X142748Y47752D03*
D15*
X117348Y51562D02*
X117348Y181610D01*
X121158Y47752D02*
X142748Y47752D01*
X121158Y47752D02*
X117348Y51562D01*
X164592Y228854D02*
X164592Y232410D01*
X164592Y228854D02*
X117348Y181610D01*
D14*
X164592Y232410D03*
D15*
X142748Y47752D02*
X288290Y47752D01*
X367058Y126520D02*
X367058Y261874D01*
D14*
X367058Y261874D03*
D15*
X367058Y126520D02*
X288290Y47752D01*
X367058Y261874D02*
X367058Y428976D01*
X367058Y753872D01*
X367058Y974598D01*
X367058Y1090422D01*
X367058Y1214374D01*
X367058Y1266952D01*
X367058Y1355824D01*
X338836Y1384046D01*
D14*
X283210Y1383030D03*
D15*
X284226Y1384046D01*
X338836Y1384046D01*
D14*
X367058Y1266952D03*
X367058Y1214374D03*
X367058Y1090422D03*
X367058Y974598D03*
X367058Y753872D03*
X367058Y428976D03*
X84836Y526288D03*
D15*
X84074Y527050D01*
X84074Y557276D01*
D14*
X84074Y557276D03*
X35306Y55626D03*
X35560Y155702D03*
X45974Y149352D03*
D15*
X92753Y98806D02*
X102004Y89555D01*
X88943Y102616D01*
X36830Y57150D02*
X35306Y55626D01*
X37084Y98806D02*
X92753Y98806D01*
X45974Y107696D02*
X45974Y149352D01*
X45974Y107696D02*
X37084Y98806D01*
X36830Y89555D02*
X35004Y89555D01*
X36830Y89555D02*
X36830Y57150D01*
D14*
X106172Y218694D03*
D16*
X116586Y708406D02*
X116586Y1200404D01*
X116586Y708406D02*
X121666Y703326D01*
X120015Y232537D02*
X106172Y218694D01*
D14*
X116586Y1200404D03*
D16*
X121666Y703326D02*
X121666Y395986D01*
X121412Y395732D01*
D14*
X121412Y395732D03*
D16*
X120015Y366649D02*
X120015Y232537D01*
X120015Y366649D02*
X115824Y370840D01*
D14*
X115824Y370840D03*
D16*
X72644Y241808D02*
X116332Y198120D01*
D14*
X116332Y198120D03*
D16*
X72644Y241808D02*
X72644Y1179576D01*
X76962Y1183894D01*
D14*
X76962Y1183894D03*
X106934Y180848D03*
D16*
X64770Y223012D01*
X64770Y1247140D01*
X61214Y1250696D01*
D14*
X61214Y1250696D03*
X182372Y832612D03*
D16*
X189484Y830727D02*
X224028Y796183D01*
X189484Y830727D02*
X184257Y830727D01*
X182372Y832612D01*
X224028Y796183D02*
X224028Y300482D01*
X180792Y257246D02*
X180792Y199080D01*
X161036Y179324D01*
D14*
X161036Y179324D03*
D16*
X180792Y257246D02*
X224028Y300482D01*
D14*
X171704Y170942D03*
D16*
X185420Y184658D01*
X227584Y299009D02*
X227584Y762254D01*
X227584Y299009D02*
X185420Y256845D01*
X185420Y184658D01*
X227584Y762254D02*
X248158Y782828D01*
D14*
X248158Y782828D03*
X185166Y168910D03*
X234696Y570738D03*
D16*
X231140Y297536D02*
X189484Y255880D01*
X231140Y561340D02*
X234696Y564896D01*
X234696Y570738D01*
X231140Y561340D02*
X231140Y297536D01*
D14*
X94742Y688594D03*
D16*
X94742Y780796D01*
X92710Y782828D01*
D14*
X92710Y782828D03*
D16*
X189484Y173228D02*
X185166Y168910D01*
X189484Y173228D02*
X189484Y255880D01*
D14*
X256097Y216219D03*
D16*
X226757Y216219D01*
X209470Y233506D01*
X209470Y253717D01*
X318262Y862584D02*
X329946Y874268D01*
X318262Y862584D02*
X318262Y362509D01*
X209470Y253717D01*
X329946Y874268D02*
X329946Y1166114D01*
X292862Y1203198D01*
D14*
X292862Y1203198D03*
X248920Y231648D03*
D16*
X219964Y231648D01*
X213106Y238506D01*
D14*
X326898Y860552D03*
D16*
X321818Y361036D02*
X213106Y252324D01*
X321818Y855472D02*
X326898Y860552D01*
X321818Y855472D02*
X321818Y361036D01*
X213106Y252324D02*
X213106Y238506D01*
D14*
X314706Y877062D03*
D16*
X314706Y363982D01*
X203148Y252424D02*
X203148Y239724D01*
D14*
X203148Y239724D03*
D16*
X203148Y252424D02*
X314706Y363982D01*
D14*
X212090Y305054D03*
D16*
X131064Y386080D01*
X131064Y1306322D01*
X134112Y1309370D01*
D14*
X134112Y1309370D03*
X242316Y559054D03*
D16*
X236982Y553720D01*
X236982Y298171D02*
X193040Y254229D01*
X193040Y162814D02*
X187706Y157480D01*
D14*
X187706Y157480D03*
D16*
X236982Y298171D02*
X236982Y553720D01*
X193040Y254229D02*
X193040Y162814D01*
D14*
X207772Y162052D03*
D16*
X196596Y173228D01*
X196596Y250952D01*
X237744Y579679D02*
X237744Y719074D01*
X237744Y579679D02*
X248638Y568785D01*
X248638Y302994D01*
X196596Y250952D01*
D14*
X237490Y718820D03*
D16*
X237744Y719074D01*
D14*
X112776Y556514D03*
D16*
X112776Y392176D01*
X189738Y315214D02*
X189738Y311150D01*
X189738Y315214D02*
X112776Y392176D01*
D14*
X189738Y311150D03*
X118110Y210312D03*
D16*
X121412Y213614D02*
X121412Y227330D01*
X121412Y213614D02*
X118110Y210312D01*
X121412Y227330D02*
X157226Y263144D01*
X174752Y263144D02*
X175260Y263652D01*
X174752Y263144D02*
X157226Y263144D01*
D14*
X175260Y263652D03*
X173962Y251460D03*
D16*
X158016Y251460D01*
X156972Y250416D01*
D14*
X156972Y250416D03*
X122936Y1175004D03*
D16*
X122936Y1321308D01*
X136144Y1334516D01*
D14*
X136144Y1334516D03*
X152654Y715010D03*
D16*
X203708Y715010D01*
X208280Y719582D01*
D14*
X208280Y719582D03*
X151384Y770636D03*
D16*
X215138Y771116D02*
X215166Y771144D01*
D14*
X215166Y771144D03*
X209804Y740918D03*
D16*
X215138Y746252D02*
X215138Y771116D01*
X215138Y746252D02*
X209804Y740918D01*
X214658Y770636D02*
X215166Y771144D01*
X214658Y770636D02*
X151384Y770636D01*
D14*
X53340Y490982D03*
D16*
X53340Y460784D01*
X50518Y457962D01*
X49756Y457962D01*
D14*
X49756Y457962D03*
X140970Y409956D03*
D16*
X140970Y437642D01*
X143256Y439928D01*
D14*
X143256Y439928D03*
M02*
