G04 EAGLE Gerber RS-274X export*
G75*
%MOMM*%
%FSLAX34Y34*%
%LPD*%
%INSilkscreen Top*%
%IPPOS*%
%AMOC8*
5,1,8,0,0,1.08239X$1,22.5*%
G01*
%ADD10C,0.127000*%
%ADD11C,0.152400*%
%ADD12C,0.200000*%
%ADD13C,0.050000*%
%ADD14C,0.076200*%
%ADD15C,0.508000*%


D10*
X189072Y644016D02*
X201072Y644016D01*
X201072Y628016D02*
X189072Y628016D01*
X200072Y630016D02*
X200072Y642016D01*
X200072Y630016D02*
X189072Y636016D01*
X200072Y642016D01*
D11*
X147650Y282270D02*
X147650Y279770D01*
X147650Y282270D02*
X150150Y282270D01*
X218150Y282270D02*
X220650Y282270D01*
X220650Y279770D01*
X220650Y211770D02*
X220650Y209270D01*
X218150Y209270D01*
X150150Y209270D02*
X147650Y209270D01*
X147650Y211770D01*
D12*
X126150Y273770D02*
X126152Y273833D01*
X126158Y273895D01*
X126168Y273957D01*
X126181Y274019D01*
X126199Y274079D01*
X126220Y274138D01*
X126245Y274196D01*
X126274Y274252D01*
X126306Y274306D01*
X126341Y274358D01*
X126379Y274407D01*
X126421Y274455D01*
X126465Y274499D01*
X126513Y274541D01*
X126562Y274579D01*
X126614Y274614D01*
X126668Y274646D01*
X126724Y274675D01*
X126782Y274700D01*
X126841Y274721D01*
X126901Y274739D01*
X126963Y274752D01*
X127025Y274762D01*
X127087Y274768D01*
X127150Y274770D01*
X127213Y274768D01*
X127275Y274762D01*
X127337Y274752D01*
X127399Y274739D01*
X127459Y274721D01*
X127518Y274700D01*
X127576Y274675D01*
X127632Y274646D01*
X127686Y274614D01*
X127738Y274579D01*
X127787Y274541D01*
X127835Y274499D01*
X127879Y274455D01*
X127921Y274407D01*
X127959Y274358D01*
X127994Y274306D01*
X128026Y274252D01*
X128055Y274196D01*
X128080Y274138D01*
X128101Y274079D01*
X128119Y274019D01*
X128132Y273957D01*
X128142Y273895D01*
X128148Y273833D01*
X128150Y273770D01*
X128148Y273707D01*
X128142Y273645D01*
X128132Y273583D01*
X128119Y273521D01*
X128101Y273461D01*
X128080Y273402D01*
X128055Y273344D01*
X128026Y273288D01*
X127994Y273234D01*
X127959Y273182D01*
X127921Y273133D01*
X127879Y273085D01*
X127835Y273041D01*
X127787Y272999D01*
X127738Y272961D01*
X127686Y272926D01*
X127632Y272894D01*
X127576Y272865D01*
X127518Y272840D01*
X127459Y272819D01*
X127399Y272801D01*
X127337Y272788D01*
X127275Y272778D01*
X127213Y272772D01*
X127150Y272770D01*
X127087Y272772D01*
X127025Y272778D01*
X126963Y272788D01*
X126901Y272801D01*
X126841Y272819D01*
X126782Y272840D01*
X126724Y272865D01*
X126668Y272894D01*
X126614Y272926D01*
X126562Y272961D01*
X126513Y272999D01*
X126465Y273041D01*
X126421Y273085D01*
X126379Y273133D01*
X126341Y273182D01*
X126306Y273234D01*
X126274Y273288D01*
X126245Y273344D01*
X126220Y273402D01*
X126199Y273461D01*
X126181Y273521D01*
X126168Y273583D01*
X126158Y273645D01*
X126152Y273707D01*
X126150Y273770D01*
D10*
X119216Y85448D02*
X136816Y85448D01*
X136816Y54048D02*
X119216Y54048D01*
D12*
X102016Y79748D02*
X102018Y79811D01*
X102024Y79873D01*
X102034Y79935D01*
X102047Y79997D01*
X102065Y80057D01*
X102086Y80116D01*
X102111Y80174D01*
X102140Y80230D01*
X102172Y80284D01*
X102207Y80336D01*
X102245Y80385D01*
X102287Y80433D01*
X102331Y80477D01*
X102379Y80519D01*
X102428Y80557D01*
X102480Y80592D01*
X102534Y80624D01*
X102590Y80653D01*
X102648Y80678D01*
X102707Y80699D01*
X102767Y80717D01*
X102829Y80730D01*
X102891Y80740D01*
X102953Y80746D01*
X103016Y80748D01*
X103079Y80746D01*
X103141Y80740D01*
X103203Y80730D01*
X103265Y80717D01*
X103325Y80699D01*
X103384Y80678D01*
X103442Y80653D01*
X103498Y80624D01*
X103552Y80592D01*
X103604Y80557D01*
X103653Y80519D01*
X103701Y80477D01*
X103745Y80433D01*
X103787Y80385D01*
X103825Y80336D01*
X103860Y80284D01*
X103892Y80230D01*
X103921Y80174D01*
X103946Y80116D01*
X103967Y80057D01*
X103985Y79997D01*
X103998Y79935D01*
X104008Y79873D01*
X104014Y79811D01*
X104016Y79748D01*
X104014Y79685D01*
X104008Y79623D01*
X103998Y79561D01*
X103985Y79499D01*
X103967Y79439D01*
X103946Y79380D01*
X103921Y79322D01*
X103892Y79266D01*
X103860Y79212D01*
X103825Y79160D01*
X103787Y79111D01*
X103745Y79063D01*
X103701Y79019D01*
X103653Y78977D01*
X103604Y78939D01*
X103552Y78904D01*
X103498Y78872D01*
X103442Y78843D01*
X103384Y78818D01*
X103325Y78797D01*
X103265Y78779D01*
X103203Y78766D01*
X103141Y78756D01*
X103079Y78750D01*
X103016Y78748D01*
X102953Y78750D01*
X102891Y78756D01*
X102829Y78766D01*
X102767Y78779D01*
X102707Y78797D01*
X102648Y78818D01*
X102590Y78843D01*
X102534Y78872D01*
X102480Y78904D01*
X102428Y78939D01*
X102379Y78977D01*
X102331Y79019D01*
X102287Y79063D01*
X102245Y79111D01*
X102207Y79160D01*
X102172Y79212D01*
X102140Y79266D01*
X102111Y79322D01*
X102086Y79380D01*
X102065Y79439D01*
X102047Y79499D01*
X102034Y79561D01*
X102024Y79623D01*
X102018Y79685D01*
X102016Y79748D01*
D11*
X97714Y6807D02*
X77394Y6807D01*
X97714Y19761D02*
X97714Y26873D01*
X97714Y39827D02*
X77394Y39827D01*
D13*
X25715Y63422D02*
X25717Y63485D01*
X25723Y63547D01*
X25733Y63609D01*
X25746Y63671D01*
X25764Y63731D01*
X25785Y63790D01*
X25810Y63848D01*
X25839Y63904D01*
X25871Y63958D01*
X25906Y64010D01*
X25944Y64059D01*
X25986Y64107D01*
X26030Y64151D01*
X26078Y64193D01*
X26127Y64231D01*
X26179Y64266D01*
X26233Y64298D01*
X26289Y64327D01*
X26347Y64352D01*
X26406Y64373D01*
X26466Y64391D01*
X26528Y64404D01*
X26590Y64414D01*
X26652Y64420D01*
X26715Y64422D01*
X26778Y64420D01*
X26840Y64414D01*
X26902Y64404D01*
X26964Y64391D01*
X27024Y64373D01*
X27083Y64352D01*
X27141Y64327D01*
X27197Y64298D01*
X27251Y64266D01*
X27303Y64231D01*
X27352Y64193D01*
X27400Y64151D01*
X27444Y64107D01*
X27486Y64059D01*
X27524Y64010D01*
X27559Y63958D01*
X27591Y63904D01*
X27620Y63848D01*
X27645Y63790D01*
X27666Y63731D01*
X27684Y63671D01*
X27697Y63609D01*
X27707Y63547D01*
X27713Y63485D01*
X27715Y63422D01*
X27713Y63359D01*
X27707Y63297D01*
X27697Y63235D01*
X27684Y63173D01*
X27666Y63113D01*
X27645Y63054D01*
X27620Y62996D01*
X27591Y62940D01*
X27559Y62886D01*
X27524Y62834D01*
X27486Y62785D01*
X27444Y62737D01*
X27400Y62693D01*
X27352Y62651D01*
X27303Y62613D01*
X27251Y62578D01*
X27197Y62546D01*
X27141Y62517D01*
X27083Y62492D01*
X27024Y62471D01*
X26964Y62453D01*
X26902Y62440D01*
X26840Y62430D01*
X26778Y62424D01*
X26715Y62422D01*
X26652Y62424D01*
X26590Y62430D01*
X26528Y62440D01*
X26466Y62453D01*
X26406Y62471D01*
X26347Y62492D01*
X26289Y62517D01*
X26233Y62546D01*
X26179Y62578D01*
X26127Y62613D01*
X26078Y62651D01*
X26030Y62693D01*
X25986Y62737D01*
X25944Y62785D01*
X25906Y62834D01*
X25871Y62886D01*
X25839Y62940D01*
X25810Y62996D01*
X25785Y63054D01*
X25764Y63113D01*
X25746Y63173D01*
X25733Y63235D01*
X25723Y63297D01*
X25717Y63359D01*
X25715Y63422D01*
D11*
X170358Y93599D02*
X170358Y113919D01*
X203378Y113919D02*
X203378Y93599D01*
D14*
X206115Y122590D02*
X210095Y122590D01*
X206115Y122590D02*
X203131Y120269D01*
X206115Y122590D02*
X203131Y124912D01*
X206115Y122590D02*
X207442Y118943D01*
X206115Y122590D02*
X207442Y126238D01*
D11*
X306273Y358673D02*
X342849Y358673D01*
X342849Y292633D02*
X306273Y292633D01*
D15*
X344119Y290093D02*
X344241Y290091D01*
X344363Y290085D01*
X344485Y290075D01*
X344606Y290062D01*
X344727Y290044D01*
X344847Y290023D01*
X344967Y289997D01*
X345085Y289968D01*
X345203Y289936D01*
X345320Y289899D01*
X345435Y289859D01*
X345549Y289815D01*
X345661Y289767D01*
X345772Y289716D01*
X345881Y289661D01*
X345989Y289603D01*
X346094Y289541D01*
X346197Y289476D01*
X346299Y289408D01*
X346398Y289336D01*
X346494Y289262D01*
X346589Y289184D01*
X346680Y289103D01*
X346770Y289020D01*
X346856Y288934D01*
X346939Y288844D01*
X347020Y288753D01*
X347098Y288658D01*
X347172Y288562D01*
X347244Y288463D01*
X347312Y288361D01*
X347377Y288258D01*
X347439Y288153D01*
X347497Y288045D01*
X347552Y287936D01*
X347603Y287825D01*
X347651Y287713D01*
X347695Y287599D01*
X347735Y287484D01*
X347772Y287367D01*
X347804Y287249D01*
X347833Y287131D01*
X347859Y287011D01*
X347880Y286891D01*
X347898Y286770D01*
X347911Y286649D01*
X347921Y286527D01*
X347927Y286405D01*
X347929Y286283D01*
X347927Y286161D01*
X347921Y286039D01*
X347911Y285917D01*
X347898Y285796D01*
X347880Y285675D01*
X347859Y285555D01*
X347833Y285435D01*
X347804Y285317D01*
X347772Y285199D01*
X347735Y285082D01*
X347695Y284967D01*
X347651Y284853D01*
X347603Y284741D01*
X347552Y284630D01*
X347497Y284521D01*
X347439Y284413D01*
X347377Y284308D01*
X347312Y284205D01*
X347244Y284103D01*
X347172Y284004D01*
X347098Y283908D01*
X347020Y283813D01*
X346939Y283722D01*
X346856Y283632D01*
X346770Y283546D01*
X346680Y283463D01*
X346589Y283382D01*
X346494Y283304D01*
X346398Y283230D01*
X346299Y283158D01*
X346197Y283090D01*
X346094Y283025D01*
X345989Y282963D01*
X345881Y282905D01*
X345772Y282850D01*
X345661Y282799D01*
X345549Y282751D01*
X345435Y282707D01*
X345320Y282667D01*
X345203Y282630D01*
X345085Y282598D01*
X344967Y282569D01*
X344847Y282543D01*
X344727Y282522D01*
X344606Y282504D01*
X344485Y282491D01*
X344363Y282481D01*
X344241Y282475D01*
X344119Y282473D01*
X343997Y282475D01*
X343875Y282481D01*
X343753Y282491D01*
X343632Y282504D01*
X343511Y282522D01*
X343391Y282543D01*
X343271Y282569D01*
X343153Y282598D01*
X343035Y282630D01*
X342918Y282667D01*
X342803Y282707D01*
X342689Y282751D01*
X342577Y282799D01*
X342466Y282850D01*
X342357Y282905D01*
X342249Y282963D01*
X342144Y283025D01*
X342041Y283090D01*
X341939Y283158D01*
X341840Y283230D01*
X341744Y283304D01*
X341649Y283382D01*
X341558Y283463D01*
X341468Y283546D01*
X341382Y283632D01*
X341299Y283722D01*
X341218Y283813D01*
X341140Y283908D01*
X341066Y284004D01*
X340994Y284103D01*
X340926Y284205D01*
X340861Y284308D01*
X340799Y284413D01*
X340741Y284521D01*
X340686Y284630D01*
X340635Y284741D01*
X340587Y284853D01*
X340543Y284967D01*
X340503Y285082D01*
X340466Y285199D01*
X340434Y285317D01*
X340405Y285435D01*
X340379Y285555D01*
X340358Y285675D01*
X340340Y285796D01*
X340327Y285917D01*
X340317Y286039D01*
X340311Y286161D01*
X340309Y286283D01*
X340311Y286405D01*
X340317Y286527D01*
X340327Y286649D01*
X340340Y286770D01*
X340358Y286891D01*
X340379Y287011D01*
X340405Y287131D01*
X340434Y287249D01*
X340466Y287367D01*
X340503Y287484D01*
X340543Y287599D01*
X340587Y287713D01*
X340635Y287825D01*
X340686Y287936D01*
X340741Y288045D01*
X340799Y288153D01*
X340861Y288258D01*
X340926Y288361D01*
X340994Y288463D01*
X341066Y288562D01*
X341140Y288658D01*
X341218Y288753D01*
X341299Y288844D01*
X341382Y288934D01*
X341468Y289020D01*
X341558Y289103D01*
X341649Y289184D01*
X341744Y289262D01*
X341840Y289336D01*
X341939Y289408D01*
X342041Y289476D01*
X342144Y289541D01*
X342249Y289603D01*
X342357Y289661D01*
X342466Y289716D01*
X342577Y289767D01*
X342689Y289815D01*
X342803Y289859D01*
X342918Y289899D01*
X343035Y289936D01*
X343153Y289968D01*
X343271Y289997D01*
X343391Y290023D01*
X343511Y290044D01*
X343632Y290062D01*
X343753Y290075D01*
X343875Y290085D01*
X343997Y290091D01*
X344119Y290093D01*
D12*
X169754Y55828D02*
X169756Y55891D01*
X169762Y55953D01*
X169772Y56015D01*
X169785Y56077D01*
X169803Y56137D01*
X169824Y56196D01*
X169849Y56254D01*
X169878Y56310D01*
X169910Y56364D01*
X169945Y56416D01*
X169983Y56465D01*
X170025Y56513D01*
X170069Y56557D01*
X170117Y56599D01*
X170166Y56637D01*
X170218Y56672D01*
X170272Y56704D01*
X170328Y56733D01*
X170386Y56758D01*
X170445Y56779D01*
X170505Y56797D01*
X170567Y56810D01*
X170629Y56820D01*
X170691Y56826D01*
X170754Y56828D01*
X170817Y56826D01*
X170879Y56820D01*
X170941Y56810D01*
X171003Y56797D01*
X171063Y56779D01*
X171122Y56758D01*
X171180Y56733D01*
X171236Y56704D01*
X171290Y56672D01*
X171342Y56637D01*
X171391Y56599D01*
X171439Y56557D01*
X171483Y56513D01*
X171525Y56465D01*
X171563Y56416D01*
X171598Y56364D01*
X171630Y56310D01*
X171659Y56254D01*
X171684Y56196D01*
X171705Y56137D01*
X171723Y56077D01*
X171736Y56015D01*
X171746Y55953D01*
X171752Y55891D01*
X171754Y55828D01*
X171752Y55765D01*
X171746Y55703D01*
X171736Y55641D01*
X171723Y55579D01*
X171705Y55519D01*
X171684Y55460D01*
X171659Y55402D01*
X171630Y55346D01*
X171598Y55292D01*
X171563Y55240D01*
X171525Y55191D01*
X171483Y55143D01*
X171439Y55099D01*
X171391Y55057D01*
X171342Y55019D01*
X171290Y54984D01*
X171236Y54952D01*
X171180Y54923D01*
X171122Y54898D01*
X171063Y54877D01*
X171003Y54859D01*
X170941Y54846D01*
X170879Y54836D01*
X170817Y54830D01*
X170754Y54828D01*
X170691Y54830D01*
X170629Y54836D01*
X170567Y54846D01*
X170505Y54859D01*
X170445Y54877D01*
X170386Y54898D01*
X170328Y54923D01*
X170272Y54952D01*
X170218Y54984D01*
X170166Y55019D01*
X170117Y55057D01*
X170069Y55099D01*
X170025Y55143D01*
X169983Y55191D01*
X169945Y55240D01*
X169910Y55292D01*
X169878Y55346D01*
X169849Y55402D01*
X169824Y55460D01*
X169803Y55519D01*
X169785Y55579D01*
X169772Y55641D01*
X169762Y55703D01*
X169756Y55765D01*
X169754Y55828D01*
D10*
X152754Y6328D02*
X228754Y6328D01*
X152754Y31828D02*
X152754Y35828D01*
X228754Y35828D02*
X228754Y31828D01*
X152754Y9828D02*
X152754Y6828D01*
X228754Y6828D02*
X228754Y9828D01*
D12*
X153500Y1293800D02*
X153502Y1293863D01*
X153508Y1293925D01*
X153518Y1293987D01*
X153531Y1294049D01*
X153549Y1294109D01*
X153570Y1294168D01*
X153595Y1294226D01*
X153624Y1294282D01*
X153656Y1294336D01*
X153691Y1294388D01*
X153729Y1294437D01*
X153771Y1294485D01*
X153815Y1294529D01*
X153863Y1294571D01*
X153912Y1294609D01*
X153964Y1294644D01*
X154018Y1294676D01*
X154074Y1294705D01*
X154132Y1294730D01*
X154191Y1294751D01*
X154251Y1294769D01*
X154313Y1294782D01*
X154375Y1294792D01*
X154437Y1294798D01*
X154500Y1294800D01*
X154563Y1294798D01*
X154625Y1294792D01*
X154687Y1294782D01*
X154749Y1294769D01*
X154809Y1294751D01*
X154868Y1294730D01*
X154926Y1294705D01*
X154982Y1294676D01*
X155036Y1294644D01*
X155088Y1294609D01*
X155137Y1294571D01*
X155185Y1294529D01*
X155229Y1294485D01*
X155271Y1294437D01*
X155309Y1294388D01*
X155344Y1294336D01*
X155376Y1294282D01*
X155405Y1294226D01*
X155430Y1294168D01*
X155451Y1294109D01*
X155469Y1294049D01*
X155482Y1293987D01*
X155492Y1293925D01*
X155498Y1293863D01*
X155500Y1293800D01*
X155498Y1293737D01*
X155492Y1293675D01*
X155482Y1293613D01*
X155469Y1293551D01*
X155451Y1293491D01*
X155430Y1293432D01*
X155405Y1293374D01*
X155376Y1293318D01*
X155344Y1293264D01*
X155309Y1293212D01*
X155271Y1293163D01*
X155229Y1293115D01*
X155185Y1293071D01*
X155137Y1293029D01*
X155088Y1292991D01*
X155036Y1292956D01*
X154982Y1292924D01*
X154926Y1292895D01*
X154868Y1292870D01*
X154809Y1292849D01*
X154749Y1292831D01*
X154687Y1292818D01*
X154625Y1292808D01*
X154563Y1292802D01*
X154500Y1292800D01*
X154437Y1292802D01*
X154375Y1292808D01*
X154313Y1292818D01*
X154251Y1292831D01*
X154191Y1292849D01*
X154132Y1292870D01*
X154074Y1292895D01*
X154018Y1292924D01*
X153964Y1292956D01*
X153912Y1292991D01*
X153863Y1293029D01*
X153815Y1293071D01*
X153771Y1293115D01*
X153729Y1293163D01*
X153691Y1293212D01*
X153656Y1293264D01*
X153624Y1293318D01*
X153595Y1293374D01*
X153570Y1293432D01*
X153549Y1293491D01*
X153531Y1293551D01*
X153518Y1293613D01*
X153508Y1293675D01*
X153502Y1293737D01*
X153500Y1293800D01*
D10*
X168000Y1298300D02*
X213000Y1298300D01*
X168000Y1298300D02*
X168000Y1343300D01*
X213000Y1343300D01*
X213000Y1298300D01*
D12*
X356200Y1017948D02*
X356202Y1018011D01*
X356208Y1018073D01*
X356218Y1018135D01*
X356231Y1018197D01*
X356249Y1018257D01*
X356270Y1018316D01*
X356295Y1018374D01*
X356324Y1018430D01*
X356356Y1018484D01*
X356391Y1018536D01*
X356429Y1018585D01*
X356471Y1018633D01*
X356515Y1018677D01*
X356563Y1018719D01*
X356612Y1018757D01*
X356664Y1018792D01*
X356718Y1018824D01*
X356774Y1018853D01*
X356832Y1018878D01*
X356891Y1018899D01*
X356951Y1018917D01*
X357013Y1018930D01*
X357075Y1018940D01*
X357137Y1018946D01*
X357200Y1018948D01*
X357263Y1018946D01*
X357325Y1018940D01*
X357387Y1018930D01*
X357449Y1018917D01*
X357509Y1018899D01*
X357568Y1018878D01*
X357626Y1018853D01*
X357682Y1018824D01*
X357736Y1018792D01*
X357788Y1018757D01*
X357837Y1018719D01*
X357885Y1018677D01*
X357929Y1018633D01*
X357971Y1018585D01*
X358009Y1018536D01*
X358044Y1018484D01*
X358076Y1018430D01*
X358105Y1018374D01*
X358130Y1018316D01*
X358151Y1018257D01*
X358169Y1018197D01*
X358182Y1018135D01*
X358192Y1018073D01*
X358198Y1018011D01*
X358200Y1017948D01*
X358198Y1017885D01*
X358192Y1017823D01*
X358182Y1017761D01*
X358169Y1017699D01*
X358151Y1017639D01*
X358130Y1017580D01*
X358105Y1017522D01*
X358076Y1017466D01*
X358044Y1017412D01*
X358009Y1017360D01*
X357971Y1017311D01*
X357929Y1017263D01*
X357885Y1017219D01*
X357837Y1017177D01*
X357788Y1017139D01*
X357736Y1017104D01*
X357682Y1017072D01*
X357626Y1017043D01*
X357568Y1017018D01*
X357509Y1016997D01*
X357449Y1016979D01*
X357387Y1016966D01*
X357325Y1016956D01*
X357263Y1016950D01*
X357200Y1016948D01*
X357137Y1016950D01*
X357075Y1016956D01*
X357013Y1016966D01*
X356951Y1016979D01*
X356891Y1016997D01*
X356832Y1017018D01*
X356774Y1017043D01*
X356718Y1017072D01*
X356664Y1017104D01*
X356612Y1017139D01*
X356563Y1017177D01*
X356515Y1017219D01*
X356471Y1017263D01*
X356429Y1017311D01*
X356391Y1017360D01*
X356356Y1017412D01*
X356324Y1017466D01*
X356295Y1017522D01*
X356270Y1017580D01*
X356249Y1017639D01*
X356231Y1017699D01*
X356218Y1017761D01*
X356208Y1017823D01*
X356202Y1017885D01*
X356200Y1017948D01*
D10*
X352700Y1031448D02*
X352700Y1076448D01*
X352700Y1031448D02*
X307700Y1031448D01*
X307700Y1076448D01*
X352700Y1076448D01*
D12*
X356200Y903800D02*
X356202Y903863D01*
X356208Y903925D01*
X356218Y903987D01*
X356231Y904049D01*
X356249Y904109D01*
X356270Y904168D01*
X356295Y904226D01*
X356324Y904282D01*
X356356Y904336D01*
X356391Y904388D01*
X356429Y904437D01*
X356471Y904485D01*
X356515Y904529D01*
X356563Y904571D01*
X356612Y904609D01*
X356664Y904644D01*
X356718Y904676D01*
X356774Y904705D01*
X356832Y904730D01*
X356891Y904751D01*
X356951Y904769D01*
X357013Y904782D01*
X357075Y904792D01*
X357137Y904798D01*
X357200Y904800D01*
X357263Y904798D01*
X357325Y904792D01*
X357387Y904782D01*
X357449Y904769D01*
X357509Y904751D01*
X357568Y904730D01*
X357626Y904705D01*
X357682Y904676D01*
X357736Y904644D01*
X357788Y904609D01*
X357837Y904571D01*
X357885Y904529D01*
X357929Y904485D01*
X357971Y904437D01*
X358009Y904388D01*
X358044Y904336D01*
X358076Y904282D01*
X358105Y904226D01*
X358130Y904168D01*
X358151Y904109D01*
X358169Y904049D01*
X358182Y903987D01*
X358192Y903925D01*
X358198Y903863D01*
X358200Y903800D01*
X358198Y903737D01*
X358192Y903675D01*
X358182Y903613D01*
X358169Y903551D01*
X358151Y903491D01*
X358130Y903432D01*
X358105Y903374D01*
X358076Y903318D01*
X358044Y903264D01*
X358009Y903212D01*
X357971Y903163D01*
X357929Y903115D01*
X357885Y903071D01*
X357837Y903029D01*
X357788Y902991D01*
X357736Y902956D01*
X357682Y902924D01*
X357626Y902895D01*
X357568Y902870D01*
X357509Y902849D01*
X357449Y902831D01*
X357387Y902818D01*
X357325Y902808D01*
X357263Y902802D01*
X357200Y902800D01*
X357137Y902802D01*
X357075Y902808D01*
X357013Y902818D01*
X356951Y902831D01*
X356891Y902849D01*
X356832Y902870D01*
X356774Y902895D01*
X356718Y902924D01*
X356664Y902956D01*
X356612Y902991D01*
X356563Y903029D01*
X356515Y903071D01*
X356471Y903115D01*
X356429Y903163D01*
X356391Y903212D01*
X356356Y903264D01*
X356324Y903318D01*
X356295Y903374D01*
X356270Y903432D01*
X356249Y903491D01*
X356231Y903551D01*
X356218Y903613D01*
X356208Y903675D01*
X356202Y903737D01*
X356200Y903800D01*
D10*
X352700Y917300D02*
X352700Y962300D01*
X352700Y917300D02*
X307700Y917300D01*
X307700Y962300D01*
X352700Y962300D01*
D12*
X10100Y514790D02*
X10102Y514853D01*
X10108Y514915D01*
X10118Y514977D01*
X10131Y515039D01*
X10149Y515099D01*
X10170Y515158D01*
X10195Y515216D01*
X10224Y515272D01*
X10256Y515326D01*
X10291Y515378D01*
X10329Y515427D01*
X10371Y515475D01*
X10415Y515519D01*
X10463Y515561D01*
X10512Y515599D01*
X10564Y515634D01*
X10618Y515666D01*
X10674Y515695D01*
X10732Y515720D01*
X10791Y515741D01*
X10851Y515759D01*
X10913Y515772D01*
X10975Y515782D01*
X11037Y515788D01*
X11100Y515790D01*
X11163Y515788D01*
X11225Y515782D01*
X11287Y515772D01*
X11349Y515759D01*
X11409Y515741D01*
X11468Y515720D01*
X11526Y515695D01*
X11582Y515666D01*
X11636Y515634D01*
X11688Y515599D01*
X11737Y515561D01*
X11785Y515519D01*
X11829Y515475D01*
X11871Y515427D01*
X11909Y515378D01*
X11944Y515326D01*
X11976Y515272D01*
X12005Y515216D01*
X12030Y515158D01*
X12051Y515099D01*
X12069Y515039D01*
X12082Y514977D01*
X12092Y514915D01*
X12098Y514853D01*
X12100Y514790D01*
X12098Y514727D01*
X12092Y514665D01*
X12082Y514603D01*
X12069Y514541D01*
X12051Y514481D01*
X12030Y514422D01*
X12005Y514364D01*
X11976Y514308D01*
X11944Y514254D01*
X11909Y514202D01*
X11871Y514153D01*
X11829Y514105D01*
X11785Y514061D01*
X11737Y514019D01*
X11688Y513981D01*
X11636Y513946D01*
X11582Y513914D01*
X11526Y513885D01*
X11468Y513860D01*
X11409Y513839D01*
X11349Y513821D01*
X11287Y513808D01*
X11225Y513798D01*
X11163Y513792D01*
X11100Y513790D01*
X11037Y513792D01*
X10975Y513798D01*
X10913Y513808D01*
X10851Y513821D01*
X10791Y513839D01*
X10732Y513860D01*
X10674Y513885D01*
X10618Y513914D01*
X10564Y513946D01*
X10512Y513981D01*
X10463Y514019D01*
X10415Y514061D01*
X10371Y514105D01*
X10329Y514153D01*
X10291Y514202D01*
X10256Y514254D01*
X10224Y514308D01*
X10195Y514364D01*
X10170Y514422D01*
X10149Y514481D01*
X10131Y514541D01*
X10118Y514603D01*
X10108Y514665D01*
X10102Y514727D01*
X10100Y514790D01*
D10*
X15600Y501290D02*
X15600Y456290D01*
X15600Y501290D02*
X60600Y501290D01*
X60600Y456290D01*
X15600Y456290D01*
D12*
X86300Y514790D02*
X86302Y514853D01*
X86308Y514915D01*
X86318Y514977D01*
X86331Y515039D01*
X86349Y515099D01*
X86370Y515158D01*
X86395Y515216D01*
X86424Y515272D01*
X86456Y515326D01*
X86491Y515378D01*
X86529Y515427D01*
X86571Y515475D01*
X86615Y515519D01*
X86663Y515561D01*
X86712Y515599D01*
X86764Y515634D01*
X86818Y515666D01*
X86874Y515695D01*
X86932Y515720D01*
X86991Y515741D01*
X87051Y515759D01*
X87113Y515772D01*
X87175Y515782D01*
X87237Y515788D01*
X87300Y515790D01*
X87363Y515788D01*
X87425Y515782D01*
X87487Y515772D01*
X87549Y515759D01*
X87609Y515741D01*
X87668Y515720D01*
X87726Y515695D01*
X87782Y515666D01*
X87836Y515634D01*
X87888Y515599D01*
X87937Y515561D01*
X87985Y515519D01*
X88029Y515475D01*
X88071Y515427D01*
X88109Y515378D01*
X88144Y515326D01*
X88176Y515272D01*
X88205Y515216D01*
X88230Y515158D01*
X88251Y515099D01*
X88269Y515039D01*
X88282Y514977D01*
X88292Y514915D01*
X88298Y514853D01*
X88300Y514790D01*
X88298Y514727D01*
X88292Y514665D01*
X88282Y514603D01*
X88269Y514541D01*
X88251Y514481D01*
X88230Y514422D01*
X88205Y514364D01*
X88176Y514308D01*
X88144Y514254D01*
X88109Y514202D01*
X88071Y514153D01*
X88029Y514105D01*
X87985Y514061D01*
X87937Y514019D01*
X87888Y513981D01*
X87836Y513946D01*
X87782Y513914D01*
X87726Y513885D01*
X87668Y513860D01*
X87609Y513839D01*
X87549Y513821D01*
X87487Y513808D01*
X87425Y513798D01*
X87363Y513792D01*
X87300Y513790D01*
X87237Y513792D01*
X87175Y513798D01*
X87113Y513808D01*
X87051Y513821D01*
X86991Y513839D01*
X86932Y513860D01*
X86874Y513885D01*
X86818Y513914D01*
X86764Y513946D01*
X86712Y513981D01*
X86663Y514019D01*
X86615Y514061D01*
X86571Y514105D01*
X86529Y514153D01*
X86491Y514202D01*
X86456Y514254D01*
X86424Y514308D01*
X86395Y514364D01*
X86370Y514422D01*
X86349Y514481D01*
X86331Y514541D01*
X86318Y514603D01*
X86308Y514665D01*
X86302Y514727D01*
X86300Y514790D01*
D10*
X91800Y501290D02*
X91800Y456290D01*
X91800Y501290D02*
X136800Y501290D01*
X136800Y456290D01*
X91800Y456290D01*
D12*
X162500Y514790D02*
X162502Y514853D01*
X162508Y514915D01*
X162518Y514977D01*
X162531Y515039D01*
X162549Y515099D01*
X162570Y515158D01*
X162595Y515216D01*
X162624Y515272D01*
X162656Y515326D01*
X162691Y515378D01*
X162729Y515427D01*
X162771Y515475D01*
X162815Y515519D01*
X162863Y515561D01*
X162912Y515599D01*
X162964Y515634D01*
X163018Y515666D01*
X163074Y515695D01*
X163132Y515720D01*
X163191Y515741D01*
X163251Y515759D01*
X163313Y515772D01*
X163375Y515782D01*
X163437Y515788D01*
X163500Y515790D01*
X163563Y515788D01*
X163625Y515782D01*
X163687Y515772D01*
X163749Y515759D01*
X163809Y515741D01*
X163868Y515720D01*
X163926Y515695D01*
X163982Y515666D01*
X164036Y515634D01*
X164088Y515599D01*
X164137Y515561D01*
X164185Y515519D01*
X164229Y515475D01*
X164271Y515427D01*
X164309Y515378D01*
X164344Y515326D01*
X164376Y515272D01*
X164405Y515216D01*
X164430Y515158D01*
X164451Y515099D01*
X164469Y515039D01*
X164482Y514977D01*
X164492Y514915D01*
X164498Y514853D01*
X164500Y514790D01*
X164498Y514727D01*
X164492Y514665D01*
X164482Y514603D01*
X164469Y514541D01*
X164451Y514481D01*
X164430Y514422D01*
X164405Y514364D01*
X164376Y514308D01*
X164344Y514254D01*
X164309Y514202D01*
X164271Y514153D01*
X164229Y514105D01*
X164185Y514061D01*
X164137Y514019D01*
X164088Y513981D01*
X164036Y513946D01*
X163982Y513914D01*
X163926Y513885D01*
X163868Y513860D01*
X163809Y513839D01*
X163749Y513821D01*
X163687Y513808D01*
X163625Y513798D01*
X163563Y513792D01*
X163500Y513790D01*
X163437Y513792D01*
X163375Y513798D01*
X163313Y513808D01*
X163251Y513821D01*
X163191Y513839D01*
X163132Y513860D01*
X163074Y513885D01*
X163018Y513914D01*
X162964Y513946D01*
X162912Y513981D01*
X162863Y514019D01*
X162815Y514061D01*
X162771Y514105D01*
X162729Y514153D01*
X162691Y514202D01*
X162656Y514254D01*
X162624Y514308D01*
X162595Y514364D01*
X162570Y514422D01*
X162549Y514481D01*
X162531Y514541D01*
X162518Y514603D01*
X162508Y514665D01*
X162502Y514727D01*
X162500Y514790D01*
D10*
X168000Y501290D02*
X168000Y456290D01*
X168000Y501290D02*
X213000Y501290D01*
X213000Y456290D01*
X168000Y456290D01*
D12*
X238700Y514790D02*
X238702Y514853D01*
X238708Y514915D01*
X238718Y514977D01*
X238731Y515039D01*
X238749Y515099D01*
X238770Y515158D01*
X238795Y515216D01*
X238824Y515272D01*
X238856Y515326D01*
X238891Y515378D01*
X238929Y515427D01*
X238971Y515475D01*
X239015Y515519D01*
X239063Y515561D01*
X239112Y515599D01*
X239164Y515634D01*
X239218Y515666D01*
X239274Y515695D01*
X239332Y515720D01*
X239391Y515741D01*
X239451Y515759D01*
X239513Y515772D01*
X239575Y515782D01*
X239637Y515788D01*
X239700Y515790D01*
X239763Y515788D01*
X239825Y515782D01*
X239887Y515772D01*
X239949Y515759D01*
X240009Y515741D01*
X240068Y515720D01*
X240126Y515695D01*
X240182Y515666D01*
X240236Y515634D01*
X240288Y515599D01*
X240337Y515561D01*
X240385Y515519D01*
X240429Y515475D01*
X240471Y515427D01*
X240509Y515378D01*
X240544Y515326D01*
X240576Y515272D01*
X240605Y515216D01*
X240630Y515158D01*
X240651Y515099D01*
X240669Y515039D01*
X240682Y514977D01*
X240692Y514915D01*
X240698Y514853D01*
X240700Y514790D01*
X240698Y514727D01*
X240692Y514665D01*
X240682Y514603D01*
X240669Y514541D01*
X240651Y514481D01*
X240630Y514422D01*
X240605Y514364D01*
X240576Y514308D01*
X240544Y514254D01*
X240509Y514202D01*
X240471Y514153D01*
X240429Y514105D01*
X240385Y514061D01*
X240337Y514019D01*
X240288Y513981D01*
X240236Y513946D01*
X240182Y513914D01*
X240126Y513885D01*
X240068Y513860D01*
X240009Y513839D01*
X239949Y513821D01*
X239887Y513808D01*
X239825Y513798D01*
X239763Y513792D01*
X239700Y513790D01*
X239637Y513792D01*
X239575Y513798D01*
X239513Y513808D01*
X239451Y513821D01*
X239391Y513839D01*
X239332Y513860D01*
X239274Y513885D01*
X239218Y513914D01*
X239164Y513946D01*
X239112Y513981D01*
X239063Y514019D01*
X239015Y514061D01*
X238971Y514105D01*
X238929Y514153D01*
X238891Y514202D01*
X238856Y514254D01*
X238824Y514308D01*
X238795Y514364D01*
X238770Y514422D01*
X238749Y514481D01*
X238731Y514541D01*
X238718Y514603D01*
X238708Y514665D01*
X238702Y514727D01*
X238700Y514790D01*
D10*
X244200Y501290D02*
X244200Y456290D01*
X244200Y501290D02*
X289200Y501290D01*
X289200Y456290D01*
X244200Y456290D01*
D12*
X314900Y514790D02*
X314902Y514853D01*
X314908Y514915D01*
X314918Y514977D01*
X314931Y515039D01*
X314949Y515099D01*
X314970Y515158D01*
X314995Y515216D01*
X315024Y515272D01*
X315056Y515326D01*
X315091Y515378D01*
X315129Y515427D01*
X315171Y515475D01*
X315215Y515519D01*
X315263Y515561D01*
X315312Y515599D01*
X315364Y515634D01*
X315418Y515666D01*
X315474Y515695D01*
X315532Y515720D01*
X315591Y515741D01*
X315651Y515759D01*
X315713Y515772D01*
X315775Y515782D01*
X315837Y515788D01*
X315900Y515790D01*
X315963Y515788D01*
X316025Y515782D01*
X316087Y515772D01*
X316149Y515759D01*
X316209Y515741D01*
X316268Y515720D01*
X316326Y515695D01*
X316382Y515666D01*
X316436Y515634D01*
X316488Y515599D01*
X316537Y515561D01*
X316585Y515519D01*
X316629Y515475D01*
X316671Y515427D01*
X316709Y515378D01*
X316744Y515326D01*
X316776Y515272D01*
X316805Y515216D01*
X316830Y515158D01*
X316851Y515099D01*
X316869Y515039D01*
X316882Y514977D01*
X316892Y514915D01*
X316898Y514853D01*
X316900Y514790D01*
X316898Y514727D01*
X316892Y514665D01*
X316882Y514603D01*
X316869Y514541D01*
X316851Y514481D01*
X316830Y514422D01*
X316805Y514364D01*
X316776Y514308D01*
X316744Y514254D01*
X316709Y514202D01*
X316671Y514153D01*
X316629Y514105D01*
X316585Y514061D01*
X316537Y514019D01*
X316488Y513981D01*
X316436Y513946D01*
X316382Y513914D01*
X316326Y513885D01*
X316268Y513860D01*
X316209Y513839D01*
X316149Y513821D01*
X316087Y513808D01*
X316025Y513798D01*
X315963Y513792D01*
X315900Y513790D01*
X315837Y513792D01*
X315775Y513798D01*
X315713Y513808D01*
X315651Y513821D01*
X315591Y513839D01*
X315532Y513860D01*
X315474Y513885D01*
X315418Y513914D01*
X315364Y513946D01*
X315312Y513981D01*
X315263Y514019D01*
X315215Y514061D01*
X315171Y514105D01*
X315129Y514153D01*
X315091Y514202D01*
X315056Y514254D01*
X315024Y514308D01*
X314995Y514364D01*
X314970Y514422D01*
X314949Y514481D01*
X314931Y514541D01*
X314918Y514603D01*
X314908Y514665D01*
X314902Y514727D01*
X314900Y514790D01*
D10*
X320400Y501290D02*
X320400Y456290D01*
X320400Y501290D02*
X365400Y501290D01*
X365400Y456290D01*
X320400Y456290D01*
D12*
X39200Y1255700D02*
X39202Y1255763D01*
X39208Y1255825D01*
X39218Y1255887D01*
X39231Y1255949D01*
X39249Y1256009D01*
X39270Y1256068D01*
X39295Y1256126D01*
X39324Y1256182D01*
X39356Y1256236D01*
X39391Y1256288D01*
X39429Y1256337D01*
X39471Y1256385D01*
X39515Y1256429D01*
X39563Y1256471D01*
X39612Y1256509D01*
X39664Y1256544D01*
X39718Y1256576D01*
X39774Y1256605D01*
X39832Y1256630D01*
X39891Y1256651D01*
X39951Y1256669D01*
X40013Y1256682D01*
X40075Y1256692D01*
X40137Y1256698D01*
X40200Y1256700D01*
X40263Y1256698D01*
X40325Y1256692D01*
X40387Y1256682D01*
X40449Y1256669D01*
X40509Y1256651D01*
X40568Y1256630D01*
X40626Y1256605D01*
X40682Y1256576D01*
X40736Y1256544D01*
X40788Y1256509D01*
X40837Y1256471D01*
X40885Y1256429D01*
X40929Y1256385D01*
X40971Y1256337D01*
X41009Y1256288D01*
X41044Y1256236D01*
X41076Y1256182D01*
X41105Y1256126D01*
X41130Y1256068D01*
X41151Y1256009D01*
X41169Y1255949D01*
X41182Y1255887D01*
X41192Y1255825D01*
X41198Y1255763D01*
X41200Y1255700D01*
X41198Y1255637D01*
X41192Y1255575D01*
X41182Y1255513D01*
X41169Y1255451D01*
X41151Y1255391D01*
X41130Y1255332D01*
X41105Y1255274D01*
X41076Y1255218D01*
X41044Y1255164D01*
X41009Y1255112D01*
X40971Y1255063D01*
X40929Y1255015D01*
X40885Y1254971D01*
X40837Y1254929D01*
X40788Y1254891D01*
X40736Y1254856D01*
X40682Y1254824D01*
X40626Y1254795D01*
X40568Y1254770D01*
X40509Y1254749D01*
X40449Y1254731D01*
X40387Y1254718D01*
X40325Y1254708D01*
X40263Y1254702D01*
X40200Y1254700D01*
X40137Y1254702D01*
X40075Y1254708D01*
X40013Y1254718D01*
X39951Y1254731D01*
X39891Y1254749D01*
X39832Y1254770D01*
X39774Y1254795D01*
X39718Y1254824D01*
X39664Y1254856D01*
X39612Y1254891D01*
X39563Y1254929D01*
X39515Y1254971D01*
X39471Y1255015D01*
X39429Y1255063D01*
X39391Y1255112D01*
X39356Y1255164D01*
X39324Y1255218D01*
X39295Y1255274D01*
X39270Y1255332D01*
X39249Y1255391D01*
X39231Y1255451D01*
X39218Y1255513D01*
X39208Y1255575D01*
X39202Y1255637D01*
X39200Y1255700D01*
D10*
X53700Y1260200D02*
X98700Y1260200D01*
X53700Y1260200D02*
X53700Y1305200D01*
X98700Y1305200D01*
X98700Y1260200D01*
D12*
X267800Y1255700D02*
X267802Y1255763D01*
X267808Y1255825D01*
X267818Y1255887D01*
X267831Y1255949D01*
X267849Y1256009D01*
X267870Y1256068D01*
X267895Y1256126D01*
X267924Y1256182D01*
X267956Y1256236D01*
X267991Y1256288D01*
X268029Y1256337D01*
X268071Y1256385D01*
X268115Y1256429D01*
X268163Y1256471D01*
X268212Y1256509D01*
X268264Y1256544D01*
X268318Y1256576D01*
X268374Y1256605D01*
X268432Y1256630D01*
X268491Y1256651D01*
X268551Y1256669D01*
X268613Y1256682D01*
X268675Y1256692D01*
X268737Y1256698D01*
X268800Y1256700D01*
X268863Y1256698D01*
X268925Y1256692D01*
X268987Y1256682D01*
X269049Y1256669D01*
X269109Y1256651D01*
X269168Y1256630D01*
X269226Y1256605D01*
X269282Y1256576D01*
X269336Y1256544D01*
X269388Y1256509D01*
X269437Y1256471D01*
X269485Y1256429D01*
X269529Y1256385D01*
X269571Y1256337D01*
X269609Y1256288D01*
X269644Y1256236D01*
X269676Y1256182D01*
X269705Y1256126D01*
X269730Y1256068D01*
X269751Y1256009D01*
X269769Y1255949D01*
X269782Y1255887D01*
X269792Y1255825D01*
X269798Y1255763D01*
X269800Y1255700D01*
X269798Y1255637D01*
X269792Y1255575D01*
X269782Y1255513D01*
X269769Y1255451D01*
X269751Y1255391D01*
X269730Y1255332D01*
X269705Y1255274D01*
X269676Y1255218D01*
X269644Y1255164D01*
X269609Y1255112D01*
X269571Y1255063D01*
X269529Y1255015D01*
X269485Y1254971D01*
X269437Y1254929D01*
X269388Y1254891D01*
X269336Y1254856D01*
X269282Y1254824D01*
X269226Y1254795D01*
X269168Y1254770D01*
X269109Y1254749D01*
X269049Y1254731D01*
X268987Y1254718D01*
X268925Y1254708D01*
X268863Y1254702D01*
X268800Y1254700D01*
X268737Y1254702D01*
X268675Y1254708D01*
X268613Y1254718D01*
X268551Y1254731D01*
X268491Y1254749D01*
X268432Y1254770D01*
X268374Y1254795D01*
X268318Y1254824D01*
X268264Y1254856D01*
X268212Y1254891D01*
X268163Y1254929D01*
X268115Y1254971D01*
X268071Y1255015D01*
X268029Y1255063D01*
X267991Y1255112D01*
X267956Y1255164D01*
X267924Y1255218D01*
X267895Y1255274D01*
X267870Y1255332D01*
X267849Y1255391D01*
X267831Y1255451D01*
X267818Y1255513D01*
X267808Y1255575D01*
X267802Y1255637D01*
X267800Y1255700D01*
D10*
X282300Y1260200D02*
X327300Y1260200D01*
X282300Y1260200D02*
X282300Y1305200D01*
X327300Y1305200D01*
X327300Y1260200D01*
D12*
X151341Y797027D02*
X151343Y797090D01*
X151349Y797152D01*
X151359Y797214D01*
X151372Y797276D01*
X151390Y797336D01*
X151411Y797395D01*
X151436Y797453D01*
X151465Y797509D01*
X151497Y797563D01*
X151532Y797615D01*
X151570Y797664D01*
X151612Y797712D01*
X151656Y797756D01*
X151704Y797798D01*
X151753Y797836D01*
X151805Y797871D01*
X151859Y797903D01*
X151915Y797932D01*
X151973Y797957D01*
X152032Y797978D01*
X152092Y797996D01*
X152154Y798009D01*
X152216Y798019D01*
X152278Y798025D01*
X152341Y798027D01*
X152404Y798025D01*
X152466Y798019D01*
X152528Y798009D01*
X152590Y797996D01*
X152650Y797978D01*
X152709Y797957D01*
X152767Y797932D01*
X152823Y797903D01*
X152877Y797871D01*
X152929Y797836D01*
X152978Y797798D01*
X153026Y797756D01*
X153070Y797712D01*
X153112Y797664D01*
X153150Y797615D01*
X153185Y797563D01*
X153217Y797509D01*
X153246Y797453D01*
X153271Y797395D01*
X153292Y797336D01*
X153310Y797276D01*
X153323Y797214D01*
X153333Y797152D01*
X153339Y797090D01*
X153341Y797027D01*
X153339Y796964D01*
X153333Y796902D01*
X153323Y796840D01*
X153310Y796778D01*
X153292Y796718D01*
X153271Y796659D01*
X153246Y796601D01*
X153217Y796545D01*
X153185Y796491D01*
X153150Y796439D01*
X153112Y796390D01*
X153070Y796342D01*
X153026Y796298D01*
X152978Y796256D01*
X152929Y796218D01*
X152877Y796183D01*
X152823Y796151D01*
X152767Y796122D01*
X152709Y796097D01*
X152650Y796076D01*
X152590Y796058D01*
X152528Y796045D01*
X152466Y796035D01*
X152404Y796029D01*
X152341Y796027D01*
X152278Y796029D01*
X152216Y796035D01*
X152154Y796045D01*
X152092Y796058D01*
X152032Y796076D01*
X151973Y796097D01*
X151915Y796122D01*
X151859Y796151D01*
X151805Y796183D01*
X151753Y796218D01*
X151704Y796256D01*
X151656Y796298D01*
X151612Y796342D01*
X151570Y796390D01*
X151532Y796439D01*
X151497Y796491D01*
X151465Y796545D01*
X151436Y796601D01*
X151411Y796659D01*
X151390Y796718D01*
X151372Y796778D01*
X151359Y796840D01*
X151349Y796902D01*
X151343Y796964D01*
X151341Y797027D01*
D10*
X165841Y801527D02*
X210841Y801527D01*
X165841Y801527D02*
X165841Y846527D01*
X210841Y846527D01*
X210841Y801527D01*
D12*
X265641Y741401D02*
X265643Y741464D01*
X265649Y741526D01*
X265659Y741588D01*
X265672Y741650D01*
X265690Y741710D01*
X265711Y741769D01*
X265736Y741827D01*
X265765Y741883D01*
X265797Y741937D01*
X265832Y741989D01*
X265870Y742038D01*
X265912Y742086D01*
X265956Y742130D01*
X266004Y742172D01*
X266053Y742210D01*
X266105Y742245D01*
X266159Y742277D01*
X266215Y742306D01*
X266273Y742331D01*
X266332Y742352D01*
X266392Y742370D01*
X266454Y742383D01*
X266516Y742393D01*
X266578Y742399D01*
X266641Y742401D01*
X266704Y742399D01*
X266766Y742393D01*
X266828Y742383D01*
X266890Y742370D01*
X266950Y742352D01*
X267009Y742331D01*
X267067Y742306D01*
X267123Y742277D01*
X267177Y742245D01*
X267229Y742210D01*
X267278Y742172D01*
X267326Y742130D01*
X267370Y742086D01*
X267412Y742038D01*
X267450Y741989D01*
X267485Y741937D01*
X267517Y741883D01*
X267546Y741827D01*
X267571Y741769D01*
X267592Y741710D01*
X267610Y741650D01*
X267623Y741588D01*
X267633Y741526D01*
X267639Y741464D01*
X267641Y741401D01*
X267639Y741338D01*
X267633Y741276D01*
X267623Y741214D01*
X267610Y741152D01*
X267592Y741092D01*
X267571Y741033D01*
X267546Y740975D01*
X267517Y740919D01*
X267485Y740865D01*
X267450Y740813D01*
X267412Y740764D01*
X267370Y740716D01*
X267326Y740672D01*
X267278Y740630D01*
X267229Y740592D01*
X267177Y740557D01*
X267123Y740525D01*
X267067Y740496D01*
X267009Y740471D01*
X266950Y740450D01*
X266890Y740432D01*
X266828Y740419D01*
X266766Y740409D01*
X266704Y740403D01*
X266641Y740401D01*
X266578Y740403D01*
X266516Y740409D01*
X266454Y740419D01*
X266392Y740432D01*
X266332Y740450D01*
X266273Y740471D01*
X266215Y740496D01*
X266159Y740525D01*
X266105Y740557D01*
X266053Y740592D01*
X266004Y740630D01*
X265956Y740672D01*
X265912Y740716D01*
X265870Y740764D01*
X265832Y740813D01*
X265797Y740865D01*
X265765Y740919D01*
X265736Y740975D01*
X265711Y741033D01*
X265690Y741092D01*
X265672Y741152D01*
X265659Y741214D01*
X265649Y741276D01*
X265643Y741338D01*
X265641Y741401D01*
D10*
X280141Y745901D02*
X325141Y745901D01*
X280141Y745901D02*
X280141Y790901D01*
X325141Y790901D01*
X325141Y745901D01*
D12*
X37041Y741401D02*
X37043Y741464D01*
X37049Y741526D01*
X37059Y741588D01*
X37072Y741650D01*
X37090Y741710D01*
X37111Y741769D01*
X37136Y741827D01*
X37165Y741883D01*
X37197Y741937D01*
X37232Y741989D01*
X37270Y742038D01*
X37312Y742086D01*
X37356Y742130D01*
X37404Y742172D01*
X37453Y742210D01*
X37505Y742245D01*
X37559Y742277D01*
X37615Y742306D01*
X37673Y742331D01*
X37732Y742352D01*
X37792Y742370D01*
X37854Y742383D01*
X37916Y742393D01*
X37978Y742399D01*
X38041Y742401D01*
X38104Y742399D01*
X38166Y742393D01*
X38228Y742383D01*
X38290Y742370D01*
X38350Y742352D01*
X38409Y742331D01*
X38467Y742306D01*
X38523Y742277D01*
X38577Y742245D01*
X38629Y742210D01*
X38678Y742172D01*
X38726Y742130D01*
X38770Y742086D01*
X38812Y742038D01*
X38850Y741989D01*
X38885Y741937D01*
X38917Y741883D01*
X38946Y741827D01*
X38971Y741769D01*
X38992Y741710D01*
X39010Y741650D01*
X39023Y741588D01*
X39033Y741526D01*
X39039Y741464D01*
X39041Y741401D01*
X39039Y741338D01*
X39033Y741276D01*
X39023Y741214D01*
X39010Y741152D01*
X38992Y741092D01*
X38971Y741033D01*
X38946Y740975D01*
X38917Y740919D01*
X38885Y740865D01*
X38850Y740813D01*
X38812Y740764D01*
X38770Y740716D01*
X38726Y740672D01*
X38678Y740630D01*
X38629Y740592D01*
X38577Y740557D01*
X38523Y740525D01*
X38467Y740496D01*
X38409Y740471D01*
X38350Y740450D01*
X38290Y740432D01*
X38228Y740419D01*
X38166Y740409D01*
X38104Y740403D01*
X38041Y740401D01*
X37978Y740403D01*
X37916Y740409D01*
X37854Y740419D01*
X37792Y740432D01*
X37732Y740450D01*
X37673Y740471D01*
X37615Y740496D01*
X37559Y740525D01*
X37505Y740557D01*
X37453Y740592D01*
X37404Y740630D01*
X37356Y740672D01*
X37312Y740716D01*
X37270Y740764D01*
X37232Y740813D01*
X37197Y740865D01*
X37165Y740919D01*
X37136Y740975D01*
X37111Y741033D01*
X37090Y741092D01*
X37072Y741152D01*
X37059Y741214D01*
X37049Y741276D01*
X37043Y741338D01*
X37041Y741401D01*
D10*
X51541Y745901D02*
X96541Y745901D01*
X51541Y745901D02*
X51541Y790901D01*
X96541Y790901D01*
X96541Y745901D01*
D12*
X151341Y685775D02*
X151343Y685838D01*
X151349Y685900D01*
X151359Y685962D01*
X151372Y686024D01*
X151390Y686084D01*
X151411Y686143D01*
X151436Y686201D01*
X151465Y686257D01*
X151497Y686311D01*
X151532Y686363D01*
X151570Y686412D01*
X151612Y686460D01*
X151656Y686504D01*
X151704Y686546D01*
X151753Y686584D01*
X151805Y686619D01*
X151859Y686651D01*
X151915Y686680D01*
X151973Y686705D01*
X152032Y686726D01*
X152092Y686744D01*
X152154Y686757D01*
X152216Y686767D01*
X152278Y686773D01*
X152341Y686775D01*
X152404Y686773D01*
X152466Y686767D01*
X152528Y686757D01*
X152590Y686744D01*
X152650Y686726D01*
X152709Y686705D01*
X152767Y686680D01*
X152823Y686651D01*
X152877Y686619D01*
X152929Y686584D01*
X152978Y686546D01*
X153026Y686504D01*
X153070Y686460D01*
X153112Y686412D01*
X153150Y686363D01*
X153185Y686311D01*
X153217Y686257D01*
X153246Y686201D01*
X153271Y686143D01*
X153292Y686084D01*
X153310Y686024D01*
X153323Y685962D01*
X153333Y685900D01*
X153339Y685838D01*
X153341Y685775D01*
X153339Y685712D01*
X153333Y685650D01*
X153323Y685588D01*
X153310Y685526D01*
X153292Y685466D01*
X153271Y685407D01*
X153246Y685349D01*
X153217Y685293D01*
X153185Y685239D01*
X153150Y685187D01*
X153112Y685138D01*
X153070Y685090D01*
X153026Y685046D01*
X152978Y685004D01*
X152929Y684966D01*
X152877Y684931D01*
X152823Y684899D01*
X152767Y684870D01*
X152709Y684845D01*
X152650Y684824D01*
X152590Y684806D01*
X152528Y684793D01*
X152466Y684783D01*
X152404Y684777D01*
X152341Y684775D01*
X152278Y684777D01*
X152216Y684783D01*
X152154Y684793D01*
X152092Y684806D01*
X152032Y684824D01*
X151973Y684845D01*
X151915Y684870D01*
X151859Y684899D01*
X151805Y684931D01*
X151753Y684966D01*
X151704Y685004D01*
X151656Y685046D01*
X151612Y685090D01*
X151570Y685138D01*
X151532Y685187D01*
X151497Y685239D01*
X151465Y685293D01*
X151436Y685349D01*
X151411Y685407D01*
X151390Y685466D01*
X151372Y685526D01*
X151359Y685588D01*
X151349Y685650D01*
X151343Y685712D01*
X151341Y685775D01*
D10*
X165841Y690275D02*
X210841Y690275D01*
X165841Y690275D02*
X165841Y735275D01*
X210841Y735275D01*
X210841Y690275D01*
D12*
X151341Y741401D02*
X151343Y741464D01*
X151349Y741526D01*
X151359Y741588D01*
X151372Y741650D01*
X151390Y741710D01*
X151411Y741769D01*
X151436Y741827D01*
X151465Y741883D01*
X151497Y741937D01*
X151532Y741989D01*
X151570Y742038D01*
X151612Y742086D01*
X151656Y742130D01*
X151704Y742172D01*
X151753Y742210D01*
X151805Y742245D01*
X151859Y742277D01*
X151915Y742306D01*
X151973Y742331D01*
X152032Y742352D01*
X152092Y742370D01*
X152154Y742383D01*
X152216Y742393D01*
X152278Y742399D01*
X152341Y742401D01*
X152404Y742399D01*
X152466Y742393D01*
X152528Y742383D01*
X152590Y742370D01*
X152650Y742352D01*
X152709Y742331D01*
X152767Y742306D01*
X152823Y742277D01*
X152877Y742245D01*
X152929Y742210D01*
X152978Y742172D01*
X153026Y742130D01*
X153070Y742086D01*
X153112Y742038D01*
X153150Y741989D01*
X153185Y741937D01*
X153217Y741883D01*
X153246Y741827D01*
X153271Y741769D01*
X153292Y741710D01*
X153310Y741650D01*
X153323Y741588D01*
X153333Y741526D01*
X153339Y741464D01*
X153341Y741401D01*
X153339Y741338D01*
X153333Y741276D01*
X153323Y741214D01*
X153310Y741152D01*
X153292Y741092D01*
X153271Y741033D01*
X153246Y740975D01*
X153217Y740919D01*
X153185Y740865D01*
X153150Y740813D01*
X153112Y740764D01*
X153070Y740716D01*
X153026Y740672D01*
X152978Y740630D01*
X152929Y740592D01*
X152877Y740557D01*
X152823Y740525D01*
X152767Y740496D01*
X152709Y740471D01*
X152650Y740450D01*
X152590Y740432D01*
X152528Y740419D01*
X152466Y740409D01*
X152404Y740403D01*
X152341Y740401D01*
X152278Y740403D01*
X152216Y740409D01*
X152154Y740419D01*
X152092Y740432D01*
X152032Y740450D01*
X151973Y740471D01*
X151915Y740496D01*
X151859Y740525D01*
X151805Y740557D01*
X151753Y740592D01*
X151704Y740630D01*
X151656Y740672D01*
X151612Y740716D01*
X151570Y740764D01*
X151532Y740813D01*
X151497Y740865D01*
X151465Y740919D01*
X151436Y740975D01*
X151411Y741033D01*
X151390Y741092D01*
X151372Y741152D01*
X151359Y741214D01*
X151349Y741276D01*
X151343Y741338D01*
X151341Y741401D01*
D10*
X165841Y745901D02*
X210841Y745901D01*
X165841Y745901D02*
X165841Y790901D01*
X210841Y790901D01*
X210841Y745901D01*
D12*
X356200Y1141925D02*
X356202Y1141988D01*
X356208Y1142050D01*
X356218Y1142112D01*
X356231Y1142174D01*
X356249Y1142234D01*
X356270Y1142293D01*
X356295Y1142351D01*
X356324Y1142407D01*
X356356Y1142461D01*
X356391Y1142513D01*
X356429Y1142562D01*
X356471Y1142610D01*
X356515Y1142654D01*
X356563Y1142696D01*
X356612Y1142734D01*
X356664Y1142769D01*
X356718Y1142801D01*
X356774Y1142830D01*
X356832Y1142855D01*
X356891Y1142876D01*
X356951Y1142894D01*
X357013Y1142907D01*
X357075Y1142917D01*
X357137Y1142923D01*
X357200Y1142925D01*
X357263Y1142923D01*
X357325Y1142917D01*
X357387Y1142907D01*
X357449Y1142894D01*
X357509Y1142876D01*
X357568Y1142855D01*
X357626Y1142830D01*
X357682Y1142801D01*
X357736Y1142769D01*
X357788Y1142734D01*
X357837Y1142696D01*
X357885Y1142654D01*
X357929Y1142610D01*
X357971Y1142562D01*
X358009Y1142513D01*
X358044Y1142461D01*
X358076Y1142407D01*
X358105Y1142351D01*
X358130Y1142293D01*
X358151Y1142234D01*
X358169Y1142174D01*
X358182Y1142112D01*
X358192Y1142050D01*
X358198Y1141988D01*
X358200Y1141925D01*
X358198Y1141862D01*
X358192Y1141800D01*
X358182Y1141738D01*
X358169Y1141676D01*
X358151Y1141616D01*
X358130Y1141557D01*
X358105Y1141499D01*
X358076Y1141443D01*
X358044Y1141389D01*
X358009Y1141337D01*
X357971Y1141288D01*
X357929Y1141240D01*
X357885Y1141196D01*
X357837Y1141154D01*
X357788Y1141116D01*
X357736Y1141081D01*
X357682Y1141049D01*
X357626Y1141020D01*
X357568Y1140995D01*
X357509Y1140974D01*
X357449Y1140956D01*
X357387Y1140943D01*
X357325Y1140933D01*
X357263Y1140927D01*
X357200Y1140925D01*
X357137Y1140927D01*
X357075Y1140933D01*
X357013Y1140943D01*
X356951Y1140956D01*
X356891Y1140974D01*
X356832Y1140995D01*
X356774Y1141020D01*
X356718Y1141049D01*
X356664Y1141081D01*
X356612Y1141116D01*
X356563Y1141154D01*
X356515Y1141196D01*
X356471Y1141240D01*
X356429Y1141288D01*
X356391Y1141337D01*
X356356Y1141389D01*
X356324Y1141443D01*
X356295Y1141499D01*
X356270Y1141557D01*
X356249Y1141616D01*
X356231Y1141676D01*
X356218Y1141738D01*
X356208Y1141800D01*
X356202Y1141862D01*
X356200Y1141925D01*
D10*
X352700Y1155425D02*
X352700Y1200425D01*
X352700Y1155425D02*
X307700Y1155425D01*
X307700Y1200425D01*
X352700Y1200425D01*
D11*
X165862Y400304D02*
X153162Y400304D01*
X165862Y400304D02*
X172212Y393954D01*
X172212Y381254D02*
X165862Y374904D01*
X172212Y393954D02*
X178562Y400304D01*
X191262Y400304D01*
X197612Y393954D01*
X197612Y381254D02*
X191262Y374904D01*
X178562Y374904D01*
X172212Y381254D01*
X146812Y381254D02*
X146812Y393954D01*
X153162Y400304D01*
X146812Y381254D02*
X153162Y374904D01*
X165862Y374904D01*
X197612Y393954D02*
X203962Y400304D01*
X216662Y400304D01*
X223012Y393954D01*
X223012Y381254D02*
X216662Y374904D01*
X203962Y374904D01*
X197612Y381254D01*
X223012Y381254D02*
X223012Y393954D01*
D10*
X137922Y393319D02*
X134747Y390779D01*
X137922Y393319D02*
X137922Y381889D01*
X134747Y381889D02*
X141097Y381889D01*
M02*
