G04 EAGLE Gerber RS-274X export*
G75*
%MOMM*%
%FSLAX34Y34*%
%LPD*%
%INSoldermask Bottom*%
%IPPOS*%
%AMOC8*
5,1,8,0,0,1.08239X$1,22.5*%
G01*
%ADD10R,1.203200X3.703200*%
%ADD11R,1.703200X3.603200*%
%ADD12C,0.703200*%
%ADD13C,1.211200*%
%ADD14C,1.727200*%
%ADD15C,0.959600*%


D10*
X78504Y32055D03*
X58504Y32055D03*
D11*
X102004Y89555D03*
X35004Y89555D03*
D12*
X157754Y20828D03*
X223754Y20828D03*
D13*
X157754Y15788D02*
X157754Y25868D01*
X223754Y25868D02*
X223754Y15788D01*
D14*
X159512Y379984D02*
X159512Y395224D01*
X184912Y395224D02*
X184912Y379984D01*
X210312Y379984D02*
X210312Y395224D01*
D15*
X222783Y63856D03*
X211455Y63576D03*
X233375Y63373D03*
X83058Y79248D03*
X83312Y68580D03*
X82804Y90424D03*
X13688Y115062D03*
X209296Y100584D03*
X86360Y325882D03*
X86614Y311912D03*
X86360Y299974D03*
X86614Y287274D03*
X86614Y275590D03*
X216916Y189992D03*
X216916Y179324D03*
X333502Y382778D03*
X343154Y376174D03*
X353822Y370078D03*
X353314Y382524D03*
X332994Y369570D03*
X343408Y364236D03*
X128016Y119126D03*
X140970Y119126D03*
X128524Y106680D03*
X140970Y106680D03*
X128270Y94742D03*
X140970Y94996D03*
X91088Y128170D03*
X39370Y199136D03*
X49530Y1373886D03*
X349504Y545338D03*
X152654Y488696D03*
X150837Y623277D03*
X189738Y867156D03*
X40894Y844296D03*
X259842Y1196594D03*
X269494Y1196594D03*
X267970Y1377442D03*
X182626Y1223264D03*
X301498Y716534D03*
X301498Y703834D03*
X301498Y691134D03*
X301498Y678434D03*
X301498Y665734D03*
X332740Y716280D03*
X332740Y703580D03*
X332740Y690880D03*
X332740Y678180D03*
X332740Y665480D03*
X46736Y608838D03*
X46482Y595630D03*
X46482Y582930D03*
X87376Y608584D03*
X87122Y595376D03*
X87122Y582676D03*
X93980Y1229360D03*
X257048Y1061720D03*
X262636Y900684D03*
X333502Y800354D03*
X53086Y726694D03*
X86106Y439166D03*
X302006Y428244D03*
X99568Y1047242D03*
X99060Y1026668D03*
X99060Y1013968D03*
X99060Y1001268D03*
X99060Y988568D03*
X153670Y1044956D03*
X153162Y1024382D03*
X153162Y1011682D03*
X153162Y998982D03*
X153162Y986282D03*
X198374Y1045972D03*
X197866Y1025398D03*
X197866Y1012698D03*
X197866Y999998D03*
X197866Y987298D03*
X153416Y1138936D03*
X152908Y1118362D03*
X152908Y1105662D03*
X152908Y1092962D03*
X152908Y1080262D03*
X196088Y1138682D03*
X195580Y1118108D03*
X195580Y1105408D03*
X195580Y1092708D03*
X195580Y1080008D03*
X147828Y591312D03*
X168402Y590804D03*
X181102Y590804D03*
X193802Y590804D03*
X206502Y590804D03*
X61468Y56642D03*
X36220Y35560D03*
X37287Y25375D03*
X49378Y56464D03*
X21562Y672592D03*
X117602Y34544D03*
X128778Y34544D03*
X116332Y47752D03*
X128524Y47244D03*
X142748Y47752D03*
X164592Y232410D03*
X367058Y261874D03*
X283210Y1383030D03*
X367058Y1266952D03*
X367058Y1214374D03*
X367058Y1090422D03*
X367058Y974598D03*
X367058Y753872D03*
X367058Y428976D03*
X84836Y526288D03*
X84074Y557276D03*
X35306Y55626D03*
X35560Y155702D03*
X45974Y149352D03*
X106172Y218694D03*
X116586Y1200404D03*
X121412Y395732D03*
X115824Y370840D03*
X116332Y198120D03*
X76962Y1183894D03*
X106934Y180848D03*
X61214Y1250696D03*
X182372Y832612D03*
X161036Y179324D03*
X171704Y170942D03*
X248158Y782828D03*
X185166Y168910D03*
X234696Y570738D03*
X94742Y688594D03*
X92710Y782828D03*
X256097Y216219D03*
X292862Y1203198D03*
X248920Y231648D03*
X326898Y860552D03*
X314706Y877062D03*
X203148Y239724D03*
X212090Y305054D03*
X134112Y1309370D03*
X242316Y559054D03*
X187706Y157480D03*
X207772Y162052D03*
X237490Y718820D03*
X112776Y556514D03*
X189738Y311150D03*
X118110Y210312D03*
X175260Y263652D03*
X173962Y251460D03*
X156972Y250416D03*
X122936Y1175004D03*
X136144Y1334516D03*
X152654Y715010D03*
X208280Y719582D03*
X151384Y770636D03*
X215166Y771144D03*
X209804Y740918D03*
X53340Y490982D03*
X49756Y457962D03*
X140970Y409956D03*
X143256Y439928D03*
M02*
