G04 EAGLE Gerber RS-274X export*
G75*
%MOMM*%
%FSLAX34Y34*%
%LPD*%
%INSoldermask Top*%
%IPPOS*%
%AMOC8*
5,1,8,0,0,1.08239X$1,22.5*%
G01*
%ADD10R,1.503200X1.803200*%
%ADD11R,1.803200X1.503200*%
%ADD12R,1.103200X1.103200*%
%ADD13R,1.703200X1.703200*%
%ADD14R,1.603200X1.703200*%
%ADD15C,0.338938*%
%ADD16R,1.603200X1.203200*%
%ADD17C,0.506016*%
%ADD18R,1.384300X0.711200*%
%ADD19R,0.803200X1.553200*%
%ADD20R,0.812800X1.384300*%
%ADD21R,2.590800X0.965200*%
%ADD22R,0.603200X1.553200*%
%ADD23R,1.803200X1.603200*%
%ADD24R,2.103200X2.103200*%
%ADD25C,0.703200*%
%ADD26C,1.211200*%
%ADD27R,1.203200X1.703200*%
%ADD28R,1.703200X1.203200*%
%ADD29R,1.603200X1.803200*%
%ADD30C,1.727200*%
%ADD31C,0.959600*%


D10*
X251554Y178562D03*
X231554Y178562D03*
D11*
X40386Y806864D03*
X40386Y826864D03*
D10*
X109314Y726948D03*
X89314Y726948D03*
X260764Y702310D03*
X280764Y702310D03*
X289400Y1182370D03*
X269400Y1182370D03*
X292448Y1060704D03*
X272448Y1060704D03*
X296004Y901954D03*
X276004Y901954D03*
X66708Y354838D03*
X86708Y354838D03*
X65946Y423926D03*
X85946Y423926D03*
D11*
X152908Y520794D03*
X152908Y500794D03*
D10*
X270416Y412242D03*
X290416Y412242D03*
X124808Y305054D03*
X104808Y305054D03*
X334170Y560578D03*
X354170Y560578D03*
X125062Y322834D03*
X105062Y322834D03*
D11*
X156210Y76868D03*
X156210Y96868D03*
X97790Y49944D03*
X97790Y69944D03*
D10*
X116238Y19812D03*
X136238Y19812D03*
D11*
X104394Y117254D03*
X104394Y137254D03*
D10*
X252062Y196850D03*
X232062Y196850D03*
X124300Y287020D03*
X104300Y287020D03*
X148750Y1213866D03*
X168750Y1213866D03*
X61374Y1228598D03*
X81374Y1228598D03*
X240698Y1234440D03*
X260698Y1234440D03*
X157386Y863854D03*
X177386Y863854D03*
X280322Y805688D03*
X300322Y805688D03*
D12*
X190500Y1366522D03*
D13*
X208000Y1373022D03*
X173000Y1373022D03*
D14*
X180072Y636016D03*
X210072Y636016D03*
D15*
X149472Y271698D02*
X135228Y271698D01*
X135228Y275842D01*
X149472Y275842D01*
X149472Y271698D01*
X149472Y274918D02*
X135228Y274918D01*
X135228Y263698D02*
X149472Y263698D01*
X135228Y263698D02*
X135228Y267842D01*
X149472Y267842D01*
X149472Y263698D01*
X149472Y266918D02*
X135228Y266918D01*
X135228Y255698D02*
X149472Y255698D01*
X135228Y255698D02*
X135228Y259842D01*
X149472Y259842D01*
X149472Y255698D01*
X149472Y258918D02*
X135228Y258918D01*
X135228Y247698D02*
X149472Y247698D01*
X135228Y247698D02*
X135228Y251842D01*
X149472Y251842D01*
X149472Y247698D01*
X149472Y250918D02*
X135228Y250918D01*
X135228Y239698D02*
X149472Y239698D01*
X135228Y239698D02*
X135228Y243842D01*
X149472Y243842D01*
X149472Y239698D01*
X149472Y242918D02*
X135228Y242918D01*
X135228Y231698D02*
X149472Y231698D01*
X135228Y231698D02*
X135228Y235842D01*
X149472Y235842D01*
X149472Y231698D01*
X149472Y234918D02*
X135228Y234918D01*
X135228Y223698D02*
X149472Y223698D01*
X135228Y223698D02*
X135228Y227842D01*
X149472Y227842D01*
X149472Y223698D01*
X149472Y226918D02*
X135228Y226918D01*
X135228Y215698D02*
X149472Y215698D01*
X135228Y215698D02*
X135228Y219842D01*
X149472Y219842D01*
X149472Y215698D01*
X149472Y218918D02*
X135228Y218918D01*
X158222Y211092D02*
X158222Y196848D01*
X154078Y196848D01*
X154078Y211092D01*
X158222Y211092D01*
X158222Y200068D02*
X154078Y200068D01*
X154078Y203288D02*
X158222Y203288D01*
X158222Y206508D02*
X154078Y206508D01*
X154078Y209728D02*
X158222Y209728D01*
X166222Y211092D02*
X166222Y196848D01*
X162078Y196848D01*
X162078Y211092D01*
X166222Y211092D01*
X166222Y200068D02*
X162078Y200068D01*
X162078Y203288D02*
X166222Y203288D01*
X166222Y206508D02*
X162078Y206508D01*
X162078Y209728D02*
X166222Y209728D01*
X174222Y211092D02*
X174222Y196848D01*
X170078Y196848D01*
X170078Y211092D01*
X174222Y211092D01*
X174222Y200068D02*
X170078Y200068D01*
X170078Y203288D02*
X174222Y203288D01*
X174222Y206508D02*
X170078Y206508D01*
X170078Y209728D02*
X174222Y209728D01*
X182222Y211092D02*
X182222Y196848D01*
X178078Y196848D01*
X178078Y211092D01*
X182222Y211092D01*
X182222Y200068D02*
X178078Y200068D01*
X178078Y203288D02*
X182222Y203288D01*
X182222Y206508D02*
X178078Y206508D01*
X178078Y209728D02*
X182222Y209728D01*
X190222Y211092D02*
X190222Y196848D01*
X186078Y196848D01*
X186078Y211092D01*
X190222Y211092D01*
X190222Y200068D02*
X186078Y200068D01*
X186078Y203288D02*
X190222Y203288D01*
X190222Y206508D02*
X186078Y206508D01*
X186078Y209728D02*
X190222Y209728D01*
X198222Y211092D02*
X198222Y196848D01*
X194078Y196848D01*
X194078Y211092D01*
X198222Y211092D01*
X198222Y200068D02*
X194078Y200068D01*
X194078Y203288D02*
X198222Y203288D01*
X198222Y206508D02*
X194078Y206508D01*
X194078Y209728D02*
X198222Y209728D01*
X206222Y211092D02*
X206222Y196848D01*
X202078Y196848D01*
X202078Y211092D01*
X206222Y211092D01*
X206222Y200068D02*
X202078Y200068D01*
X202078Y203288D02*
X206222Y203288D01*
X206222Y206508D02*
X202078Y206508D01*
X202078Y209728D02*
X206222Y209728D01*
X214222Y211092D02*
X214222Y196848D01*
X210078Y196848D01*
X210078Y211092D01*
X214222Y211092D01*
X214222Y200068D02*
X210078Y200068D01*
X210078Y203288D02*
X214222Y203288D01*
X214222Y206508D02*
X210078Y206508D01*
X210078Y209728D02*
X214222Y209728D01*
X218828Y219842D02*
X233072Y219842D01*
X233072Y215698D01*
X218828Y215698D01*
X218828Y219842D01*
X218828Y218918D02*
X233072Y218918D01*
X233072Y227842D02*
X218828Y227842D01*
X233072Y227842D02*
X233072Y223698D01*
X218828Y223698D01*
X218828Y227842D01*
X218828Y226918D02*
X233072Y226918D01*
X233072Y235842D02*
X218828Y235842D01*
X233072Y235842D02*
X233072Y231698D01*
X218828Y231698D01*
X218828Y235842D01*
X218828Y234918D02*
X233072Y234918D01*
X233072Y243842D02*
X218828Y243842D01*
X233072Y243842D02*
X233072Y239698D01*
X218828Y239698D01*
X218828Y243842D01*
X218828Y242918D02*
X233072Y242918D01*
X233072Y251842D02*
X218828Y251842D01*
X233072Y251842D02*
X233072Y247698D01*
X218828Y247698D01*
X218828Y251842D01*
X218828Y250918D02*
X233072Y250918D01*
X233072Y259842D02*
X218828Y259842D01*
X233072Y259842D02*
X233072Y255698D01*
X218828Y255698D01*
X218828Y259842D01*
X218828Y258918D02*
X233072Y258918D01*
X233072Y267842D02*
X218828Y267842D01*
X233072Y267842D02*
X233072Y263698D01*
X218828Y263698D01*
X218828Y267842D01*
X218828Y266918D02*
X233072Y266918D01*
X233072Y275842D02*
X218828Y275842D01*
X233072Y275842D02*
X233072Y271698D01*
X218828Y271698D01*
X218828Y275842D01*
X218828Y274918D02*
X233072Y274918D01*
X210078Y280448D02*
X210078Y294692D01*
X214222Y294692D01*
X214222Y280448D01*
X210078Y280448D01*
X210078Y283668D02*
X214222Y283668D01*
X214222Y286888D02*
X210078Y286888D01*
X210078Y290108D02*
X214222Y290108D01*
X214222Y293328D02*
X210078Y293328D01*
X202078Y294692D02*
X202078Y280448D01*
X202078Y294692D02*
X206222Y294692D01*
X206222Y280448D01*
X202078Y280448D01*
X202078Y283668D02*
X206222Y283668D01*
X206222Y286888D02*
X202078Y286888D01*
X202078Y290108D02*
X206222Y290108D01*
X206222Y293328D02*
X202078Y293328D01*
X194078Y294692D02*
X194078Y280448D01*
X194078Y294692D02*
X198222Y294692D01*
X198222Y280448D01*
X194078Y280448D01*
X194078Y283668D02*
X198222Y283668D01*
X198222Y286888D02*
X194078Y286888D01*
X194078Y290108D02*
X198222Y290108D01*
X198222Y293328D02*
X194078Y293328D01*
X186078Y294692D02*
X186078Y280448D01*
X186078Y294692D02*
X190222Y294692D01*
X190222Y280448D01*
X186078Y280448D01*
X186078Y283668D02*
X190222Y283668D01*
X190222Y286888D02*
X186078Y286888D01*
X186078Y290108D02*
X190222Y290108D01*
X190222Y293328D02*
X186078Y293328D01*
X178078Y294692D02*
X178078Y280448D01*
X178078Y294692D02*
X182222Y294692D01*
X182222Y280448D01*
X178078Y280448D01*
X178078Y283668D02*
X182222Y283668D01*
X182222Y286888D02*
X178078Y286888D01*
X178078Y290108D02*
X182222Y290108D01*
X182222Y293328D02*
X178078Y293328D01*
X170078Y294692D02*
X170078Y280448D01*
X170078Y294692D02*
X174222Y294692D01*
X174222Y280448D01*
X170078Y280448D01*
X170078Y283668D02*
X174222Y283668D01*
X174222Y286888D02*
X170078Y286888D01*
X170078Y290108D02*
X174222Y290108D01*
X174222Y293328D02*
X170078Y293328D01*
X162078Y294692D02*
X162078Y280448D01*
X162078Y294692D02*
X166222Y294692D01*
X166222Y280448D01*
X162078Y280448D01*
X162078Y283668D02*
X166222Y283668D01*
X166222Y286888D02*
X162078Y286888D01*
X162078Y290108D02*
X166222Y290108D01*
X166222Y293328D02*
X162078Y293328D01*
X154078Y294692D02*
X154078Y280448D01*
X154078Y294692D02*
X158222Y294692D01*
X158222Y280448D01*
X154078Y280448D01*
X154078Y283668D02*
X158222Y283668D01*
X158222Y286888D02*
X154078Y286888D01*
X154078Y290108D02*
X158222Y290108D01*
X158222Y293328D02*
X154078Y293328D01*
D16*
X230783Y1369136D03*
X252783Y1378636D03*
X252783Y1359636D03*
X157050Y635762D03*
X135050Y626262D03*
X135050Y645262D03*
D17*
X120152Y77762D02*
X110980Y77762D01*
X110980Y80734D01*
X120152Y80734D01*
X120152Y77762D01*
X120152Y68262D02*
X110980Y68262D01*
X110980Y71234D01*
X120152Y71234D01*
X120152Y68262D01*
X120152Y58762D02*
X110980Y58762D01*
X110980Y61734D01*
X120152Y61734D01*
X120152Y58762D01*
X135880Y58762D02*
X145052Y58762D01*
X135880Y58762D02*
X135880Y61734D01*
X145052Y61734D01*
X145052Y58762D01*
X145052Y77762D02*
X135880Y77762D01*
X135880Y80734D01*
X145052Y80734D01*
X145052Y77762D01*
D18*
X72885Y32817D03*
X72885Y23317D03*
X72885Y13817D03*
X102222Y13817D03*
X102222Y32817D03*
D19*
X32715Y72072D03*
X42215Y72072D03*
X51715Y72072D03*
X32715Y95772D03*
X42215Y95772D03*
X51715Y95772D03*
D16*
X17778Y128372D03*
X39778Y137872D03*
X39778Y118872D03*
X57402Y128880D03*
X79402Y138380D03*
X79402Y119380D03*
D20*
X196368Y118428D03*
X186868Y118428D03*
X177368Y118428D03*
X177368Y89091D03*
X186868Y89091D03*
X196368Y89091D03*
D21*
X344061Y300253D03*
X305061Y300253D03*
X344061Y312953D03*
X305061Y312953D03*
X344061Y325653D03*
X305061Y325653D03*
X344061Y338353D03*
X305061Y338353D03*
X344061Y351053D03*
X305061Y351053D03*
D22*
X177754Y47578D03*
X184254Y47578D03*
X190754Y47578D03*
X197254Y47578D03*
X203754Y47578D03*
D23*
X158754Y45328D03*
X222754Y45328D03*
D24*
X178754Y20828D03*
X202754Y20828D03*
D25*
X157754Y20828D03*
X223754Y20828D03*
D26*
X157754Y15788D02*
X157754Y25868D01*
X223754Y25868D02*
X223754Y15788D01*
D27*
X311658Y373523D03*
X311658Y394573D03*
D28*
X259985Y723646D03*
X281035Y723646D03*
X289163Y1159764D03*
X268113Y1159764D03*
X291195Y1040130D03*
X270145Y1040130D03*
X293481Y923036D03*
X272431Y923036D03*
X66691Y373634D03*
X87741Y373634D03*
X86725Y405384D03*
X65675Y405384D03*
D27*
X152908Y474837D03*
X152908Y453787D03*
D28*
X290433Y392938D03*
X269383Y392938D03*
X353933Y582422D03*
X332883Y582422D03*
X130667Y354838D03*
X109617Y354838D03*
X110887Y671830D03*
X131937Y671830D03*
D27*
X117348Y645525D03*
X117348Y624475D03*
X94488Y624983D03*
X94488Y646033D03*
D28*
X87233Y1373632D03*
X66183Y1373632D03*
X90313Y1351026D03*
X111363Y1351026D03*
D27*
X13970Y99171D03*
X13970Y78121D03*
X68834Y72025D03*
X68834Y93075D03*
D28*
X171053Y1193546D03*
X150003Y1193546D03*
X80121Y1206500D03*
X59071Y1206500D03*
X261223Y1213866D03*
X240173Y1213866D03*
X157369Y887222D03*
X178419Y887222D03*
X301355Y824484D03*
X280305Y824484D03*
D27*
X62992Y805831D03*
X62992Y826881D03*
D28*
X114919Y707644D03*
X93869Y707644D03*
D23*
X154500Y1305800D03*
X226500Y1305800D03*
X154500Y1335800D03*
X226500Y1335800D03*
D29*
X345200Y1017948D03*
X345200Y1089948D03*
X315200Y1017948D03*
X315200Y1089948D03*
X345200Y903800D03*
X345200Y975800D03*
X315200Y903800D03*
X315200Y975800D03*
X23100Y514790D03*
X23100Y442790D03*
X53100Y514790D03*
X53100Y442790D03*
X99300Y514790D03*
X99300Y442790D03*
X129300Y514790D03*
X129300Y442790D03*
X175500Y514790D03*
X175500Y442790D03*
X205500Y514790D03*
X205500Y442790D03*
X251700Y514790D03*
X251700Y442790D03*
X281700Y514790D03*
X281700Y442790D03*
X327900Y514790D03*
X327900Y442790D03*
X357900Y514790D03*
X357900Y442790D03*
D23*
X40200Y1267700D03*
X112200Y1267700D03*
X40200Y1297700D03*
X112200Y1297700D03*
X268800Y1267700D03*
X340800Y1267700D03*
X268800Y1297700D03*
X340800Y1297700D03*
X152341Y809027D03*
X224341Y809027D03*
X152341Y839027D03*
X224341Y839027D03*
X266641Y753401D03*
X338641Y753401D03*
X266641Y783401D03*
X338641Y783401D03*
X38041Y753401D03*
X110041Y753401D03*
X38041Y783401D03*
X110041Y783401D03*
X152341Y697775D03*
X224341Y697775D03*
X152341Y727775D03*
X224341Y727775D03*
X152341Y753401D03*
X224341Y753401D03*
X152341Y783401D03*
X224341Y783401D03*
D29*
X345200Y1141925D03*
X345200Y1213925D03*
X315200Y1141925D03*
X315200Y1213925D03*
D27*
X70358Y167529D03*
X70358Y188579D03*
D28*
X68869Y211328D03*
X47819Y211328D03*
X118888Y1372870D03*
X139938Y1372870D03*
X263820Y241630D03*
X284870Y241630D03*
X263592Y266548D03*
X284642Y266548D03*
D30*
X159512Y379984D02*
X159512Y395224D01*
X184912Y395224D02*
X184912Y379984D01*
X210312Y379984D02*
X210312Y395224D01*
D31*
X222783Y63856D03*
X211455Y63576D03*
X233375Y63373D03*
X83058Y79248D03*
X83312Y68580D03*
X82804Y90424D03*
X13688Y115062D03*
X209296Y100584D03*
X86360Y325882D03*
X86614Y311912D03*
X86360Y299974D03*
X86614Y287274D03*
X86614Y275590D03*
X216916Y189992D03*
X216916Y179324D03*
X333502Y382778D03*
X343154Y376174D03*
X353822Y370078D03*
X353314Y382524D03*
X332994Y369570D03*
X343408Y364236D03*
X128016Y119126D03*
X140970Y119126D03*
X128524Y106680D03*
X140970Y106680D03*
X128270Y94742D03*
X140970Y94996D03*
X91088Y128170D03*
X39370Y199136D03*
X49530Y1373886D03*
X349504Y545338D03*
X152654Y488696D03*
X150837Y623277D03*
X189738Y867156D03*
X40894Y844296D03*
X259842Y1196594D03*
X269494Y1196594D03*
X267970Y1377442D03*
X182626Y1223264D03*
X301498Y716534D03*
X301498Y703834D03*
X301498Y691134D03*
X301498Y678434D03*
X301498Y665734D03*
X332740Y716280D03*
X332740Y703580D03*
X332740Y690880D03*
X332740Y678180D03*
X332740Y665480D03*
X46736Y608838D03*
X46482Y595630D03*
X46482Y582930D03*
X87376Y608584D03*
X87122Y595376D03*
X87122Y582676D03*
X93980Y1229360D03*
X257048Y1061720D03*
X262636Y900684D03*
X333502Y800354D03*
X53086Y726694D03*
X86106Y439166D03*
X302006Y428244D03*
X99568Y1047242D03*
X99060Y1026668D03*
X99060Y1013968D03*
X99060Y1001268D03*
X99060Y988568D03*
X153670Y1044956D03*
X153162Y1024382D03*
X153162Y1011682D03*
X153162Y998982D03*
X153162Y986282D03*
X198374Y1045972D03*
X197866Y1025398D03*
X197866Y1012698D03*
X197866Y999998D03*
X197866Y987298D03*
X153416Y1138936D03*
X152908Y1118362D03*
X152908Y1105662D03*
X152908Y1092962D03*
X152908Y1080262D03*
X196088Y1138682D03*
X195580Y1118108D03*
X195580Y1105408D03*
X195580Y1092708D03*
X195580Y1080008D03*
X147828Y591312D03*
X168402Y590804D03*
X181102Y590804D03*
X193802Y590804D03*
X206502Y590804D03*
X61468Y56642D03*
X36220Y35560D03*
X37287Y25375D03*
X49378Y56464D03*
X21562Y672592D03*
X117602Y34544D03*
X128778Y34544D03*
X116332Y47752D03*
X128524Y47244D03*
X142748Y47752D03*
X164592Y232410D03*
X367058Y261874D03*
X283210Y1383030D03*
X367058Y1266952D03*
X367058Y1214374D03*
X367058Y1090422D03*
X367058Y974598D03*
X367058Y753872D03*
X367058Y428976D03*
X84836Y526288D03*
X84074Y557276D03*
X35306Y55626D03*
X35560Y155702D03*
X45974Y149352D03*
X106172Y218694D03*
X116586Y1200404D03*
X121412Y395732D03*
X115824Y370840D03*
X116332Y198120D03*
X76962Y1183894D03*
X106934Y180848D03*
X61214Y1250696D03*
X182372Y832612D03*
X161036Y179324D03*
X171704Y170942D03*
X248158Y782828D03*
X185166Y168910D03*
X234696Y570738D03*
X94742Y688594D03*
X92710Y782828D03*
X256097Y216219D03*
X292862Y1203198D03*
X248920Y231648D03*
X326898Y860552D03*
X314706Y877062D03*
X203148Y239724D03*
X212090Y305054D03*
X134112Y1309370D03*
X242316Y559054D03*
X187706Y157480D03*
X207772Y162052D03*
X237490Y718820D03*
X112776Y556514D03*
X189738Y311150D03*
X118110Y210312D03*
X175260Y263652D03*
X173962Y251460D03*
X156972Y250416D03*
X122936Y1175004D03*
X136144Y1334516D03*
X152654Y715010D03*
X208280Y719582D03*
X151384Y770636D03*
X215166Y771144D03*
X209804Y740918D03*
X53340Y490982D03*
X49756Y457962D03*
X140970Y409956D03*
X143256Y439928D03*
M02*
