G04 EAGLE Gerber RS-274X export*
G75*
%MOMM*%
%FSLAX34Y34*%
%LPD*%
%INSolderpaste Top*%
%IPPOS*%
%AMOC8*
5,1,8,0,0,1.08239X$1,22.5*%
G01*
%ADD10R,1.300000X1.600000*%
%ADD11R,1.600000X1.300000*%
%ADD12R,0.900000X0.900000*%
%ADD13R,1.500000X1.500000*%
%ADD14R,1.400000X1.500000*%
%ADD15C,0.137500*%
%ADD16R,1.400000X1.000000*%
%ADD17C,0.300000*%
%ADD18R,1.181100X0.508000*%
%ADD19R,0.600000X1.350000*%
%ADD20R,0.609600X1.181100*%
%ADD21R,2.387600X0.762000*%
%ADD22R,0.400000X1.350000*%
%ADD23R,1.600000X1.400000*%
%ADD24R,1.900000X1.900000*%
%ADD25R,1.000000X1.500000*%
%ADD26R,1.500000X1.000000*%
%ADD27R,1.400000X1.600000*%


D10*
X251554Y178562D03*
X231554Y178562D03*
D11*
X40386Y806864D03*
X40386Y826864D03*
D10*
X109314Y726948D03*
X89314Y726948D03*
X260764Y702310D03*
X280764Y702310D03*
X289400Y1182370D03*
X269400Y1182370D03*
X292448Y1060704D03*
X272448Y1060704D03*
X296004Y901954D03*
X276004Y901954D03*
X66708Y354838D03*
X86708Y354838D03*
X65946Y423926D03*
X85946Y423926D03*
D11*
X152908Y520794D03*
X152908Y500794D03*
D10*
X270416Y412242D03*
X290416Y412242D03*
X124808Y305054D03*
X104808Y305054D03*
X334170Y560578D03*
X354170Y560578D03*
X125062Y322834D03*
X105062Y322834D03*
D11*
X156210Y76868D03*
X156210Y96868D03*
X97790Y49944D03*
X97790Y69944D03*
D10*
X116238Y19812D03*
X136238Y19812D03*
D11*
X104394Y117254D03*
X104394Y137254D03*
D10*
X252062Y196850D03*
X232062Y196850D03*
X124300Y287020D03*
X104300Y287020D03*
X148750Y1213866D03*
X168750Y1213866D03*
X61374Y1228598D03*
X81374Y1228598D03*
X240698Y1234440D03*
X260698Y1234440D03*
X157386Y863854D03*
X177386Y863854D03*
X280322Y805688D03*
X300322Y805688D03*
D12*
X190500Y1366522D03*
D13*
X208000Y1373022D03*
X173000Y1373022D03*
D14*
X180072Y636016D03*
X210072Y636016D03*
D15*
X149463Y271707D02*
X135237Y271707D01*
X135237Y275833D01*
X149463Y275833D01*
X149463Y271707D01*
X149463Y273013D02*
X135237Y273013D01*
X135237Y274319D02*
X149463Y274319D01*
X149463Y275625D02*
X135237Y275625D01*
X135237Y263707D02*
X149463Y263707D01*
X135237Y263707D02*
X135237Y267833D01*
X149463Y267833D01*
X149463Y263707D01*
X149463Y265013D02*
X135237Y265013D01*
X135237Y266319D02*
X149463Y266319D01*
X149463Y267625D02*
X135237Y267625D01*
X135237Y255707D02*
X149463Y255707D01*
X135237Y255707D02*
X135237Y259833D01*
X149463Y259833D01*
X149463Y255707D01*
X149463Y257013D02*
X135237Y257013D01*
X135237Y258319D02*
X149463Y258319D01*
X149463Y259625D02*
X135237Y259625D01*
X135237Y247707D02*
X149463Y247707D01*
X135237Y247707D02*
X135237Y251833D01*
X149463Y251833D01*
X149463Y247707D01*
X149463Y249013D02*
X135237Y249013D01*
X135237Y250319D02*
X149463Y250319D01*
X149463Y251625D02*
X135237Y251625D01*
X135237Y239707D02*
X149463Y239707D01*
X135237Y239707D02*
X135237Y243833D01*
X149463Y243833D01*
X149463Y239707D01*
X149463Y241013D02*
X135237Y241013D01*
X135237Y242319D02*
X149463Y242319D01*
X149463Y243625D02*
X135237Y243625D01*
X135237Y231707D02*
X149463Y231707D01*
X135237Y231707D02*
X135237Y235833D01*
X149463Y235833D01*
X149463Y231707D01*
X149463Y233013D02*
X135237Y233013D01*
X135237Y234319D02*
X149463Y234319D01*
X149463Y235625D02*
X135237Y235625D01*
X135237Y223707D02*
X149463Y223707D01*
X135237Y223707D02*
X135237Y227833D01*
X149463Y227833D01*
X149463Y223707D01*
X149463Y225013D02*
X135237Y225013D01*
X135237Y226319D02*
X149463Y226319D01*
X149463Y227625D02*
X135237Y227625D01*
X135237Y215707D02*
X149463Y215707D01*
X135237Y215707D02*
X135237Y219833D01*
X149463Y219833D01*
X149463Y215707D01*
X149463Y217013D02*
X135237Y217013D01*
X135237Y218319D02*
X149463Y218319D01*
X149463Y219625D02*
X135237Y219625D01*
X158213Y211083D02*
X158213Y196857D01*
X154087Y196857D01*
X154087Y211083D01*
X158213Y211083D01*
X158213Y198163D02*
X154087Y198163D01*
X154087Y199469D02*
X158213Y199469D01*
X158213Y200775D02*
X154087Y200775D01*
X154087Y202081D02*
X158213Y202081D01*
X158213Y203387D02*
X154087Y203387D01*
X154087Y204693D02*
X158213Y204693D01*
X158213Y205999D02*
X154087Y205999D01*
X154087Y207305D02*
X158213Y207305D01*
X158213Y208611D02*
X154087Y208611D01*
X154087Y209917D02*
X158213Y209917D01*
X166213Y211083D02*
X166213Y196857D01*
X162087Y196857D01*
X162087Y211083D01*
X166213Y211083D01*
X166213Y198163D02*
X162087Y198163D01*
X162087Y199469D02*
X166213Y199469D01*
X166213Y200775D02*
X162087Y200775D01*
X162087Y202081D02*
X166213Y202081D01*
X166213Y203387D02*
X162087Y203387D01*
X162087Y204693D02*
X166213Y204693D01*
X166213Y205999D02*
X162087Y205999D01*
X162087Y207305D02*
X166213Y207305D01*
X166213Y208611D02*
X162087Y208611D01*
X162087Y209917D02*
X166213Y209917D01*
X174213Y211083D02*
X174213Y196857D01*
X170087Y196857D01*
X170087Y211083D01*
X174213Y211083D01*
X174213Y198163D02*
X170087Y198163D01*
X170087Y199469D02*
X174213Y199469D01*
X174213Y200775D02*
X170087Y200775D01*
X170087Y202081D02*
X174213Y202081D01*
X174213Y203387D02*
X170087Y203387D01*
X170087Y204693D02*
X174213Y204693D01*
X174213Y205999D02*
X170087Y205999D01*
X170087Y207305D02*
X174213Y207305D01*
X174213Y208611D02*
X170087Y208611D01*
X170087Y209917D02*
X174213Y209917D01*
X182213Y211083D02*
X182213Y196857D01*
X178087Y196857D01*
X178087Y211083D01*
X182213Y211083D01*
X182213Y198163D02*
X178087Y198163D01*
X178087Y199469D02*
X182213Y199469D01*
X182213Y200775D02*
X178087Y200775D01*
X178087Y202081D02*
X182213Y202081D01*
X182213Y203387D02*
X178087Y203387D01*
X178087Y204693D02*
X182213Y204693D01*
X182213Y205999D02*
X178087Y205999D01*
X178087Y207305D02*
X182213Y207305D01*
X182213Y208611D02*
X178087Y208611D01*
X178087Y209917D02*
X182213Y209917D01*
X190213Y211083D02*
X190213Y196857D01*
X186087Y196857D01*
X186087Y211083D01*
X190213Y211083D01*
X190213Y198163D02*
X186087Y198163D01*
X186087Y199469D02*
X190213Y199469D01*
X190213Y200775D02*
X186087Y200775D01*
X186087Y202081D02*
X190213Y202081D01*
X190213Y203387D02*
X186087Y203387D01*
X186087Y204693D02*
X190213Y204693D01*
X190213Y205999D02*
X186087Y205999D01*
X186087Y207305D02*
X190213Y207305D01*
X190213Y208611D02*
X186087Y208611D01*
X186087Y209917D02*
X190213Y209917D01*
X198213Y211083D02*
X198213Y196857D01*
X194087Y196857D01*
X194087Y211083D01*
X198213Y211083D01*
X198213Y198163D02*
X194087Y198163D01*
X194087Y199469D02*
X198213Y199469D01*
X198213Y200775D02*
X194087Y200775D01*
X194087Y202081D02*
X198213Y202081D01*
X198213Y203387D02*
X194087Y203387D01*
X194087Y204693D02*
X198213Y204693D01*
X198213Y205999D02*
X194087Y205999D01*
X194087Y207305D02*
X198213Y207305D01*
X198213Y208611D02*
X194087Y208611D01*
X194087Y209917D02*
X198213Y209917D01*
X206213Y211083D02*
X206213Y196857D01*
X202087Y196857D01*
X202087Y211083D01*
X206213Y211083D01*
X206213Y198163D02*
X202087Y198163D01*
X202087Y199469D02*
X206213Y199469D01*
X206213Y200775D02*
X202087Y200775D01*
X202087Y202081D02*
X206213Y202081D01*
X206213Y203387D02*
X202087Y203387D01*
X202087Y204693D02*
X206213Y204693D01*
X206213Y205999D02*
X202087Y205999D01*
X202087Y207305D02*
X206213Y207305D01*
X206213Y208611D02*
X202087Y208611D01*
X202087Y209917D02*
X206213Y209917D01*
X214213Y211083D02*
X214213Y196857D01*
X210087Y196857D01*
X210087Y211083D01*
X214213Y211083D01*
X214213Y198163D02*
X210087Y198163D01*
X210087Y199469D02*
X214213Y199469D01*
X214213Y200775D02*
X210087Y200775D01*
X210087Y202081D02*
X214213Y202081D01*
X214213Y203387D02*
X210087Y203387D01*
X210087Y204693D02*
X214213Y204693D01*
X214213Y205999D02*
X210087Y205999D01*
X210087Y207305D02*
X214213Y207305D01*
X214213Y208611D02*
X210087Y208611D01*
X210087Y209917D02*
X214213Y209917D01*
X218837Y219833D02*
X233063Y219833D01*
X233063Y215707D01*
X218837Y215707D01*
X218837Y219833D01*
X218837Y217013D02*
X233063Y217013D01*
X233063Y218319D02*
X218837Y218319D01*
X218837Y219625D02*
X233063Y219625D01*
X233063Y227833D02*
X218837Y227833D01*
X233063Y227833D02*
X233063Y223707D01*
X218837Y223707D01*
X218837Y227833D01*
X218837Y225013D02*
X233063Y225013D01*
X233063Y226319D02*
X218837Y226319D01*
X218837Y227625D02*
X233063Y227625D01*
X233063Y235833D02*
X218837Y235833D01*
X233063Y235833D02*
X233063Y231707D01*
X218837Y231707D01*
X218837Y235833D01*
X218837Y233013D02*
X233063Y233013D01*
X233063Y234319D02*
X218837Y234319D01*
X218837Y235625D02*
X233063Y235625D01*
X233063Y243833D02*
X218837Y243833D01*
X233063Y243833D02*
X233063Y239707D01*
X218837Y239707D01*
X218837Y243833D01*
X218837Y241013D02*
X233063Y241013D01*
X233063Y242319D02*
X218837Y242319D01*
X218837Y243625D02*
X233063Y243625D01*
X233063Y251833D02*
X218837Y251833D01*
X233063Y251833D02*
X233063Y247707D01*
X218837Y247707D01*
X218837Y251833D01*
X218837Y249013D02*
X233063Y249013D01*
X233063Y250319D02*
X218837Y250319D01*
X218837Y251625D02*
X233063Y251625D01*
X233063Y259833D02*
X218837Y259833D01*
X233063Y259833D02*
X233063Y255707D01*
X218837Y255707D01*
X218837Y259833D01*
X218837Y257013D02*
X233063Y257013D01*
X233063Y258319D02*
X218837Y258319D01*
X218837Y259625D02*
X233063Y259625D01*
X233063Y267833D02*
X218837Y267833D01*
X233063Y267833D02*
X233063Y263707D01*
X218837Y263707D01*
X218837Y267833D01*
X218837Y265013D02*
X233063Y265013D01*
X233063Y266319D02*
X218837Y266319D01*
X218837Y267625D02*
X233063Y267625D01*
X233063Y275833D02*
X218837Y275833D01*
X233063Y275833D02*
X233063Y271707D01*
X218837Y271707D01*
X218837Y275833D01*
X218837Y273013D02*
X233063Y273013D01*
X233063Y274319D02*
X218837Y274319D01*
X218837Y275625D02*
X233063Y275625D01*
X210087Y280457D02*
X210087Y294683D01*
X214213Y294683D01*
X214213Y280457D01*
X210087Y280457D01*
X210087Y281763D02*
X214213Y281763D01*
X214213Y283069D02*
X210087Y283069D01*
X210087Y284375D02*
X214213Y284375D01*
X214213Y285681D02*
X210087Y285681D01*
X210087Y286987D02*
X214213Y286987D01*
X214213Y288293D02*
X210087Y288293D01*
X210087Y289599D02*
X214213Y289599D01*
X214213Y290905D02*
X210087Y290905D01*
X210087Y292211D02*
X214213Y292211D01*
X214213Y293517D02*
X210087Y293517D01*
X202087Y294683D02*
X202087Y280457D01*
X202087Y294683D02*
X206213Y294683D01*
X206213Y280457D01*
X202087Y280457D01*
X202087Y281763D02*
X206213Y281763D01*
X206213Y283069D02*
X202087Y283069D01*
X202087Y284375D02*
X206213Y284375D01*
X206213Y285681D02*
X202087Y285681D01*
X202087Y286987D02*
X206213Y286987D01*
X206213Y288293D02*
X202087Y288293D01*
X202087Y289599D02*
X206213Y289599D01*
X206213Y290905D02*
X202087Y290905D01*
X202087Y292211D02*
X206213Y292211D01*
X206213Y293517D02*
X202087Y293517D01*
X194087Y294683D02*
X194087Y280457D01*
X194087Y294683D02*
X198213Y294683D01*
X198213Y280457D01*
X194087Y280457D01*
X194087Y281763D02*
X198213Y281763D01*
X198213Y283069D02*
X194087Y283069D01*
X194087Y284375D02*
X198213Y284375D01*
X198213Y285681D02*
X194087Y285681D01*
X194087Y286987D02*
X198213Y286987D01*
X198213Y288293D02*
X194087Y288293D01*
X194087Y289599D02*
X198213Y289599D01*
X198213Y290905D02*
X194087Y290905D01*
X194087Y292211D02*
X198213Y292211D01*
X198213Y293517D02*
X194087Y293517D01*
X186087Y294683D02*
X186087Y280457D01*
X186087Y294683D02*
X190213Y294683D01*
X190213Y280457D01*
X186087Y280457D01*
X186087Y281763D02*
X190213Y281763D01*
X190213Y283069D02*
X186087Y283069D01*
X186087Y284375D02*
X190213Y284375D01*
X190213Y285681D02*
X186087Y285681D01*
X186087Y286987D02*
X190213Y286987D01*
X190213Y288293D02*
X186087Y288293D01*
X186087Y289599D02*
X190213Y289599D01*
X190213Y290905D02*
X186087Y290905D01*
X186087Y292211D02*
X190213Y292211D01*
X190213Y293517D02*
X186087Y293517D01*
X178087Y294683D02*
X178087Y280457D01*
X178087Y294683D02*
X182213Y294683D01*
X182213Y280457D01*
X178087Y280457D01*
X178087Y281763D02*
X182213Y281763D01*
X182213Y283069D02*
X178087Y283069D01*
X178087Y284375D02*
X182213Y284375D01*
X182213Y285681D02*
X178087Y285681D01*
X178087Y286987D02*
X182213Y286987D01*
X182213Y288293D02*
X178087Y288293D01*
X178087Y289599D02*
X182213Y289599D01*
X182213Y290905D02*
X178087Y290905D01*
X178087Y292211D02*
X182213Y292211D01*
X182213Y293517D02*
X178087Y293517D01*
X170087Y294683D02*
X170087Y280457D01*
X170087Y294683D02*
X174213Y294683D01*
X174213Y280457D01*
X170087Y280457D01*
X170087Y281763D02*
X174213Y281763D01*
X174213Y283069D02*
X170087Y283069D01*
X170087Y284375D02*
X174213Y284375D01*
X174213Y285681D02*
X170087Y285681D01*
X170087Y286987D02*
X174213Y286987D01*
X174213Y288293D02*
X170087Y288293D01*
X170087Y289599D02*
X174213Y289599D01*
X174213Y290905D02*
X170087Y290905D01*
X170087Y292211D02*
X174213Y292211D01*
X174213Y293517D02*
X170087Y293517D01*
X162087Y294683D02*
X162087Y280457D01*
X162087Y294683D02*
X166213Y294683D01*
X166213Y280457D01*
X162087Y280457D01*
X162087Y281763D02*
X166213Y281763D01*
X166213Y283069D02*
X162087Y283069D01*
X162087Y284375D02*
X166213Y284375D01*
X166213Y285681D02*
X162087Y285681D01*
X162087Y286987D02*
X166213Y286987D01*
X166213Y288293D02*
X162087Y288293D01*
X162087Y289599D02*
X166213Y289599D01*
X166213Y290905D02*
X162087Y290905D01*
X162087Y292211D02*
X166213Y292211D01*
X166213Y293517D02*
X162087Y293517D01*
X154087Y294683D02*
X154087Y280457D01*
X154087Y294683D02*
X158213Y294683D01*
X158213Y280457D01*
X154087Y280457D01*
X154087Y281763D02*
X158213Y281763D01*
X158213Y283069D02*
X154087Y283069D01*
X154087Y284375D02*
X158213Y284375D01*
X158213Y285681D02*
X154087Y285681D01*
X154087Y286987D02*
X158213Y286987D01*
X158213Y288293D02*
X154087Y288293D01*
X154087Y289599D02*
X158213Y289599D01*
X158213Y290905D02*
X154087Y290905D01*
X154087Y292211D02*
X158213Y292211D01*
X158213Y293517D02*
X154087Y293517D01*
D16*
X230783Y1369136D03*
X252783Y1378636D03*
X252783Y1359636D03*
X157050Y635762D03*
X135050Y626262D03*
X135050Y645262D03*
D17*
X120166Y77748D02*
X110966Y77748D01*
X110966Y80748D01*
X120166Y80748D01*
X120166Y77748D01*
X120166Y80598D02*
X110966Y80598D01*
X110966Y68248D02*
X120166Y68248D01*
X110966Y68248D02*
X110966Y71248D01*
X120166Y71248D01*
X120166Y68248D01*
X120166Y71098D02*
X110966Y71098D01*
X110966Y58748D02*
X120166Y58748D01*
X110966Y58748D02*
X110966Y61748D01*
X120166Y61748D01*
X120166Y58748D01*
X120166Y61598D02*
X110966Y61598D01*
X135866Y58748D02*
X145066Y58748D01*
X135866Y58748D02*
X135866Y61748D01*
X145066Y61748D01*
X145066Y58748D01*
X145066Y61598D02*
X135866Y61598D01*
X135866Y77748D02*
X145066Y77748D01*
X135866Y77748D02*
X135866Y80748D01*
X145066Y80748D01*
X145066Y77748D01*
X145066Y80598D02*
X135866Y80598D01*
D18*
X72885Y32817D03*
X72885Y23317D03*
X72885Y13817D03*
X102222Y13817D03*
X102222Y32817D03*
D19*
X32715Y72072D03*
X42215Y72072D03*
X51715Y72072D03*
X32715Y95772D03*
X42215Y95772D03*
X51715Y95772D03*
D16*
X17778Y128372D03*
X39778Y137872D03*
X39778Y118872D03*
X57402Y128880D03*
X79402Y138380D03*
X79402Y119380D03*
D20*
X196368Y118428D03*
X186868Y118428D03*
X177368Y118428D03*
X177368Y89091D03*
X186868Y89091D03*
X196368Y89091D03*
D21*
X344061Y300253D03*
X305061Y300253D03*
X344061Y312953D03*
X305061Y312953D03*
X344061Y325653D03*
X305061Y325653D03*
X344061Y338353D03*
X305061Y338353D03*
X344061Y351053D03*
X305061Y351053D03*
D22*
X177754Y47578D03*
X184254Y47578D03*
X190754Y47578D03*
X197254Y47578D03*
X203754Y47578D03*
D23*
X158754Y45328D03*
X222754Y45328D03*
D24*
X178754Y20828D03*
X202754Y20828D03*
D25*
X311658Y373523D03*
X311658Y394573D03*
D26*
X259985Y723646D03*
X281035Y723646D03*
X289163Y1159764D03*
X268113Y1159764D03*
X291195Y1040130D03*
X270145Y1040130D03*
X293481Y923036D03*
X272431Y923036D03*
X66691Y373634D03*
X87741Y373634D03*
X86725Y405384D03*
X65675Y405384D03*
D25*
X152908Y474837D03*
X152908Y453787D03*
D26*
X290433Y392938D03*
X269383Y392938D03*
X353933Y582422D03*
X332883Y582422D03*
X130667Y354838D03*
X109617Y354838D03*
X110887Y671830D03*
X131937Y671830D03*
D25*
X117348Y645525D03*
X117348Y624475D03*
X94488Y624983D03*
X94488Y646033D03*
D26*
X87233Y1373632D03*
X66183Y1373632D03*
X90313Y1351026D03*
X111363Y1351026D03*
D25*
X13970Y99171D03*
X13970Y78121D03*
X68834Y72025D03*
X68834Y93075D03*
D26*
X171053Y1193546D03*
X150003Y1193546D03*
X80121Y1206500D03*
X59071Y1206500D03*
X261223Y1213866D03*
X240173Y1213866D03*
X157369Y887222D03*
X178419Y887222D03*
X301355Y824484D03*
X280305Y824484D03*
D25*
X62992Y805831D03*
X62992Y826881D03*
D26*
X114919Y707644D03*
X93869Y707644D03*
D23*
X154500Y1305800D03*
X226500Y1305800D03*
X154500Y1335800D03*
X226500Y1335800D03*
D27*
X345200Y1017948D03*
X345200Y1089948D03*
X315200Y1017948D03*
X315200Y1089948D03*
X345200Y903800D03*
X345200Y975800D03*
X315200Y903800D03*
X315200Y975800D03*
X23100Y514790D03*
X23100Y442790D03*
X53100Y514790D03*
X53100Y442790D03*
X99300Y514790D03*
X99300Y442790D03*
X129300Y514790D03*
X129300Y442790D03*
X175500Y514790D03*
X175500Y442790D03*
X205500Y514790D03*
X205500Y442790D03*
X251700Y514790D03*
X251700Y442790D03*
X281700Y514790D03*
X281700Y442790D03*
X327900Y514790D03*
X327900Y442790D03*
X357900Y514790D03*
X357900Y442790D03*
D23*
X40200Y1267700D03*
X112200Y1267700D03*
X40200Y1297700D03*
X112200Y1297700D03*
X268800Y1267700D03*
X340800Y1267700D03*
X268800Y1297700D03*
X340800Y1297700D03*
X152341Y809027D03*
X224341Y809027D03*
X152341Y839027D03*
X224341Y839027D03*
X266641Y753401D03*
X338641Y753401D03*
X266641Y783401D03*
X338641Y783401D03*
X38041Y753401D03*
X110041Y753401D03*
X38041Y783401D03*
X110041Y783401D03*
X152341Y697775D03*
X224341Y697775D03*
X152341Y727775D03*
X224341Y727775D03*
X152341Y753401D03*
X224341Y753401D03*
X152341Y783401D03*
X224341Y783401D03*
D27*
X345200Y1141925D03*
X345200Y1213925D03*
X315200Y1141925D03*
X315200Y1213925D03*
D25*
X70358Y167529D03*
X70358Y188579D03*
D26*
X68869Y211328D03*
X47819Y211328D03*
X118888Y1372870D03*
X139938Y1372870D03*
X263820Y241630D03*
X284870Y241630D03*
X263592Y266548D03*
X284642Y266548D03*
M02*
